<?xml version="1.0" encoding="utf-8"?>
<!-- Generator: Adobe Illustrator 25.1.0, SVG Export Plug-In . SVG Version: 6.00 Build 0)  -->
<svg version="1.1" id="Layer_1" xmlns="http://www.w3.org/2000/svg" xmlns:xlink="http://www.w3.org/1999/xlink" x="0px" y="0px"
	 viewBox="0 0 72 72" style="enable-background:new 0 0 72 72;" xml:space="preserve">
<style type="text/css">
	.st0{fill:#2D2B2B;}
</style>
<path class="st0" d="M20.7,61.5c-1.6,0-3.1-0.3-4.5-0.9c-1.4-0.6-2.6-1.4-3.6-2.5s-1.8-2.2-2.5-3.6S9.2,51.6,9.2,50s0.3-3.1,0.9-4.5
	c0.6-1.4,1.4-2.6,2.5-3.6c1-1,2.2-1.8,3.6-2.5c1.4-0.6,2.9-0.9,4.5-0.9s3.1,0.3,4.5,0.9s2.6,1.4,3.6,2.5c1,1,1.8,2.2,2.5,3.6
	c0.6,1.4,0.9,2.9,0.9,4.5s-0.3,3.1-0.9,4.5s-1.4,2.6-2.5,3.6s-2.2,1.8-3.6,2.5C23.7,61.2,22.3,61.5,20.7,61.5z M20.7,59.2
	c2.6,0,4.7-0.9,6.5-2.7s2.7-3.9,2.7-6.5s-0.9-4.7-2.7-6.5s-3.9-2.7-6.5-2.7s-4.7,0.9-6.5,2.7s-2.7,3.9-2.7,6.5s0.9,4.7,2.7,6.5
	S18.1,59.2,20.7,59.2z"/>
<path class="st0" d="M48.3,61.5c-1.6,0-3.1-0.3-4.5-0.9c-1.4-0.6-2.6-1.4-3.6-2.5s-1.8-2.2-2.5-3.6c-0.6-1.4-0.9-2.9-0.9-4.5
	s0.3-3.1,0.9-4.5c0.6-1.4,1.4-2.6,2.5-3.6c1-1,2.2-1.8,3.6-2.5s2.9-0.9,4.5-0.9s3.1,0.3,4.5,0.9c1.4,0.6,2.6,1.4,3.6,2.5
	c1,1,1.8,2.2,2.5,3.6c0.6,1.4,0.9,2.9,0.9,4.5s-0.3,3.1-0.9,4.5s-1.4,2.6-2.5,3.6c-1,1-2.2,1.8-3.6,2.5
	C51.4,61.2,49.9,61.5,48.3,61.5z M48.3,59.2c2.6,0,4.7-0.9,6.5-2.7s2.7-3.9,2.7-6.5s-0.9-4.7-2.7-6.5s-3.9-2.7-6.5-2.7
	s-4.7,0.9-6.5,2.7s-2.7,3.9-2.7,6.5s0.9,4.7,2.7,6.5S45.7,59.2,48.3,59.2z"/>
<path class="st0" d="M19.5,34.8L34.8,8.4l15.3,26.4H19.5z M24.3,32h21L34.8,14L24.3,32z M34.8,30.7c0.4,0,0.7-0.1,1-0.4
	c0.3-0.3,0.4-0.6,0.4-1c0-0.4-0.1-0.7-0.4-1c-0.3-0.3-0.6-0.4-1-0.4s-0.7,0.1-1,0.4c-0.3,0.3-0.4,0.6-0.4,1c0,0.4,0.1,0.7,0.4,1
	C34.1,30.5,34.4,30.7,34.8,30.7z M33.4,26.5h2.8v-7h-2.8V26.5z"/>
<path class="st0" d="M44.8,55.2l3.5-3.5l3.5,3.5l1.7-1.7L50,50l3.5-3.5l-1.7-1.7l-3.5,3.5l-3.5-3.5l-1.7,1.7l3.5,3.5l-3.5,3.5
	L44.8,55.2z"/>
<path class="st0" d="M18.4,55.2l8.7-8.7l-1.7-1.7l-6.9,6.9l-3.5-3.5L13.2,50L18.4,55.2z"/>
</svg>
