<svg width="32" height="32" viewBox="0 0 32 32" fill="none" xmlns="http://www.w3.org/2000/svg">
<path d="M11.7332 21.184C10.8404 21.9491 9.70886 22.3791 8.53325 22.4C7.67226 22.4826 6.80366 22.3738 5.98965 22.0814C5.17564 21.7889 4.43636 21.3201 3.82475 20.7085C3.21315 20.0969 2.74434 19.3577 2.45191 18.5436C2.15948 17.7296 2.05066 16.861 2.13325 16C2.05066 15.1391 2.15948 14.2705 2.45191 13.4564C2.74434 12.6424 3.21315 11.9032 3.82475 11.2916C4.43636 10.6799 5.17564 10.2111 5.98965 9.91871C6.80366 9.62628 7.67226 9.51746 8.53325 9.60004C14.3999 9.60004 17.5999 22.4 23.4666 22.4C24.3276 22.4826 25.1962 22.3738 26.0102 22.0814C26.8242 21.7889 27.5635 21.3201 28.1751 20.7085C28.7867 20.0969 29.2555 19.3577 29.5479 18.5436C29.8403 17.7296 29.9492 16.861 29.8666 16C29.9492 15.1391 29.8403 14.2705 29.5479 13.4564C29.2555 12.6424 28.7867 11.9032 28.1751 11.2916C27.5635 10.6799 26.8242 10.2111 26.0102 9.91871C25.1962 9.62628 24.3276 9.51746 23.4666 9.60004C22.3279 9.64519 21.2379 10.0737 20.3732 10.816" stroke="#2D2B2B" stroke-width="1.5" stroke-linecap="round" stroke-linejoin="round"/>
</svg>
