<svg width="32" height="32" viewBox="0 0 32 32" fill="none" xmlns="http://www.w3.org/2000/svg">
<g clip-path="url(#clip0_11499_80653)">
<path d="M23.8976 1.33337H8.10273C4.36418 1.33337 1.3335 4.36406 1.3335 8.1026V23.8975C1.3335 27.636 4.36418 30.6667 8.10273 30.6667H23.8976C27.6361 30.6667 30.6668 27.636 30.6668 23.8975V8.1026C30.6668 4.36406 27.6361 1.33337 23.8976 1.33337Z" stroke="#2D2B2B" stroke-linecap="round" stroke-linejoin="round"/>
<path d="M9.7815 22.4C9.65705 22.4 9.55127 22.3565 9.46416 22.2694C9.37705 22.1823 9.3335 22.0765 9.3335 21.952V9.78137C9.3335 9.65693 9.37705 9.55115 9.46416 9.46404C9.55127 9.37693 9.65705 9.33337 9.7815 9.33337H11.5362C11.6731 9.33337 11.7788 9.37693 11.8535 9.46404C11.9406 9.55115 11.9842 9.65693 11.9842 9.78137V21.952C11.9842 22.0765 11.9406 22.1823 11.8535 22.2694C11.7788 22.3565 11.6731 22.4 11.5362 22.4H9.7815Z" fill="#2D2B2B"/>
<path d="M15.1148 22.4C14.9904 22.4 14.8846 22.3565 14.7975 22.2694C14.7104 22.1823 14.6668 22.0765 14.6668 21.952V9.80004C14.6668 9.66315 14.7104 9.55115 14.7975 9.46404C14.8846 9.37693 14.9904 9.33337 15.1148 9.33337H23.2162C23.3531 9.33337 23.4651 9.37693 23.5522 9.46404C23.6393 9.55115 23.6828 9.66315 23.6828 9.80004V11.1067C23.6828 11.2436 23.6393 11.3556 23.5522 11.4427C23.4651 11.5174 23.3531 11.5547 23.2162 11.5547H17.2242V15.1014H22.8428C22.9797 15.1014 23.0917 15.1449 23.1788 15.232C23.2659 15.3192 23.3095 15.4312 23.3095 15.568V16.8747C23.3095 16.9992 23.2659 17.1049 23.1788 17.192C23.0917 17.2792 22.9797 17.3227 22.8428 17.3227H17.2242V21.952C17.2242 22.0765 17.1806 22.1823 17.0935 22.2694C17.0064 22.3565 16.8944 22.4 16.7575 22.4H15.1148Z" fill="#2D2B2B"/>
</g>
<defs>
<clipPath id="clip0_11499_80653">
<rect width="32" height="32" fill="white"/>
</clipPath>
</defs>
</svg>
