<?xml version="1.0" encoding="utf-8"?>
<!-- Generator: Adobe Illustrator 23.1.1, SVG Export Plug-In . SVG Version: 6.00 Build 0)  -->
<svg version="1.1" id="Layer_1" xmlns="http://www.w3.org/2000/svg" xmlns:xlink="http://www.w3.org/1999/xlink" x="0px" y="0px"
	 viewBox="0 0 72 72" style="enable-background:new 0 0 72 72;" xml:space="preserve">
<style type="text/css">
	.st0{fill:#2D2B2B;}
	.st1{font-family:'Quicksand-Bold';}
	.st2{font-size:7.8026px;}
	.st3{fill:none;}
</style>
<g>
	<text transform="matrix(1 0 0 1 24.1648 35.3391)" class="st0 st1 st2">HTML</text>
	<g>
		<polygon class="st3" points="33.9,40.3 40.4,47.3 44.2,47.3 50.7,40.3 50.7,40 33.9,40 		"/>
		<polygon class="st3" points="40.8,55.4 43.7,57.1 43.7,48.7 40.8,48.7 		"/>
		<path class="st0" d="M51.4,38.6H33.1l-0.1,0c-0.3,0.1-0.6,0.4-0.6,0.7v1.3c0,0.2,0.1,0.4,0.2,0.5l6.8,7.2v7.5
			c0,0.2,0.1,0.5,0.4,0.6l4.3,2.6c0.1,0.1,0.2,0.1,0.4,0.1s0.3,0,0.4-0.1c0.2-0.1,0.3-0.4,0.3-0.6V48.3l6.8-7.1c0,0,0.1-0.1,0.1-0.1
			c0.1-0.1,0.1-0.3,0.1-0.4v-1.3C52.1,38.9,51.8,38.6,51.4,38.6z M43.7,57.1l-2.9-1.7v-6.7h2.9V57.1z M50.7,40.3l-6.5,7h-3.7l-6.6-7
			V40h16.8V40.3z"/>
	</g>
	<g>
		<polygon class="st3" points="47.4,23.6 39.4,15.6 47.4,23.6 		"/>
		<path class="st3" d="M40.9,23.6h6.5l-8-8v6.5C39.4,22.9,40,23.6,40.9,23.6z"/>
		<path class="st0" d="M31,52L31,52l-7.5-0.1c-1,0-1.9-0.8-1.9-1.9V16c0-0.7,0.6-1.3,1.3-1.3h14.6v-0.1h-1.4v-1.8H23
			c-1.7,0-3.1,1.4-3.1,3.1V50c0,2,1.7,3.6,3.6,3.6h6.4V52H31z"/>
		<polygon class="st0" points="31,53.7 29.9,53.7 29.9,53.7 36.5,53.7 36.5,52 31,52 		"/>
		<path class="st0" d="M37.5,14.7v7.3c0,1.8,1.4,3.3,3.3,3.3h7.4v11.6H50V24.6c0-0.1,0-0.3,0-0.3V24c0-0.3-0.1-0.5-0.3-0.7
			L39.6,13.2c-0.2-0.2-0.4-0.3-0.7-0.3h-0.3c-0.1,0-0.2-0.1-0.3,0c-0.1,0-0.1,0-0.1,0h-0.3v1.8H37.5z M39.4,22.1v-6.5l8.1,8h-0.1
			l0.1,0.1h-6.6C40,23.6,39.4,23,39.4,22.1L39.4,22.1z"/>
		<path class="st0" d="M48.2,50.1c0,0.6-0.3,1.2-0.8,1.5v2c1.5-0.4,2.6-1.8,2.6-3.5V46h-1.8V50.1z"/>
		<path class="st0" d="M40.9,23.6h6.6l-0.1-0.1L40.9,23.6c-0.8-0.1-1.5-0.7-1.5-1.6v0.1C39.4,23,40,23.6,40.9,23.6z"/>
		<polygon class="st0" points="37.5,14.7 37.5,14.7 37.9,14.7 37.9,12.9 36.1,12.9 36.1,14.7 		"/>
		<rect x="29.9" y="52" class="st0" width="1.1" height="1.7"/>
	</g>
</g>
</svg>
