<?xml version="1.0" encoding="utf-8"?>
<!-- Generator: Adobe Illustrator 25.1.0, SVG Export Plug-In . SVG Version: 6.00 Build 0)  -->
<svg version="1.1" id="Layer_1" xmlns="http://www.w3.org/2000/svg" xmlns:xlink="http://www.w3.org/1999/xlink" x="0px" y="0px"
	 viewBox="0 0 72 72" style="enable-background:new 0 0 72 72;" xml:space="preserve">
<style type="text/css">
	.st0{fill:#2D2B2B;}
	.st1{fill:#FFFFFF;}
</style>
<g>
	<rect x="41" y="29.8" class="st0" width="0.6" height="2.5"/>
	<rect x="42.7" y="29.8" class="st0" width="5.2" height="2.5"/>
	<path class="st0" d="M56,40.9l-0.2-2.5c-0.1,0-0.1,0-0.2,0h-5.2v2.5h5.2C55.7,40.9,55.9,40.9,56,40.9z"/>
	<rect x="48.9" y="29.8" class="st0" width="5.2" height="2.5"/>
	<path class="st0" d="M15.7,34.3c0-0.8,0.6-1.6,1.3-1.9l-0.9-2.3c-1.8,0.7-2.9,2.4-2.9,4.2v1.2h2.5V34.3z"/>
	<path class="st0" d="M57.6,34.1l2.5-0.3c-0.3-2.3-2.3-4-4.5-4h-0.4v2.5h0.4C56.6,32.3,57.5,33.1,57.6,34.1z"/>
	<path class="st0" d="M49.3,40.9v-2.5h-0.4c0,0.9-0.4,1.8-1,2.5H49.3z"/>
	<path class="st0" d="M17.6,29.8l0.2,2.5h5.1v-2.5h-5.1C17.7,29.8,17.6,29.8,17.6,29.8z"/>
	<path class="st0" d="M15.7,36.5l-2.5,0.2c0.2,2.3,2.2,4.2,4.5,4.2h0.3v-2.5h-0.3C16.8,38.4,15.8,37.6,15.7,36.5z"/>
	<path class="st0" d="M57.6,36.4c0,0.8-0.5,1.5-1.3,1.9l1,2.3c1.7-0.7,2.7-2.4,2.7-4.2V35h-2.5V36.4z"/>
	<rect x="19.1" y="38.4" class="st0" width="5.2" height="2.5"/>
	<path class="st0" d="M25.4,40.9L25.4,40.9C25.4,40.9,25.4,40.9,25.4,40.9L25.4,40.9z"/>
	<rect x="30.1" y="29.8" class="st0" width="2.3" height="2.5"/>
	<rect x="23.9" y="29.8" class="st0" width="5.2" height="2.5"/>
	<path class="st0" d="M55.6,47.3c1.1,0,2,1,2,2v2.1c0,1.1-0.9,2-2,2H17.8c-1.1,0-2-1-2-2v-2.1c0-1.1,1-2,2-2h13.9l-2.5-2.5H17.8
		c-2.5,0-4.5,2.1-4.5,4.5v2.1c0,2.5,2.1,4.5,4.5,4.5h37.8c2.5,0,4.5-2,4.5-4.5v-2.1c0-2.5-2.1-4.5-4.5-4.5H44.2l-2.5,2.5H55.6z"/>
	<polygon class="st1" points="34.7,41.3 34.7,40.9 34.4,40.9 	"/>
	<polygon class="st1" points="38.7,41.5 39.2,40.9 38.7,40.9 	"/>
	<rect x="38.7" y="29.8" class="st1" width="2.3" height="2.5"/>
	<polygon class="st1" points="39.2,40.9 41.7,38.4 38.7,38.4 38.7,40.9 	"/>
	<polygon class="st1" points="34.7,40.9 34.7,38.4 31.8,38.4 34.4,40.9 	"/>
	<path class="st1" d="M27.4,39.7c-0.4-0.4-0.6-0.8-0.6-1.3h-1.5v2.4c0,0,0,0.1,0.1,0.1h3.2L27.4,39.7z"/>
	<path class="st0" d="M36.7,19.3c-1,0-2,1-2,2v2h3.9v-2C38.7,20.1,37.7,19.3,36.7,19.3z"/>
	<path class="st0" d="M38.2,47.6l0.4-0.4H35l0.4,0.4"/>
	<path class="st0" d="M34.7,29.2v0.6h0.6v2.5h-0.6v6.1h2.1v2.5h-2.1v0.4l-0.4-0.4h-2.7v-2.5h0.1l-1.6-1.5c-0.8-0.8-2-0.8-2.8,0
		c-0.4,0.4-0.6,1-0.6,1.5h3.7v2.5h-1.9l3.8,3.8h8.6l3.8-3.8h-0.8v-2.5h2.5c0-0.6-0.2-1.1-0.6-1.5c-0.8-0.8-2-0.8-2.8,0l-1.5,1.5h1.4
		v2.5h-3.9l-0.5,0.5v-0.5h-0.8v-2.5h0.8v-6.1h-2.2v-2.5h2.2v-0.6v-3.3h-3.9V29.2z"/>
	<polygon class="st0" points="34.7,25.2 34.7,25.9 38.7,25.9 38.7,25.2 38.7,23.4 34.7,23.4 	"/>
	<rect x="36.4" y="29.8" class="st0" width="2.2" height="2.5"/>
	<polygon class="st0" points="43.1,40.9 43.1,38.4 41.7,38.4 39.2,40.9 	"/>
	<rect x="37.9" y="38.4" class="st0" width="0.8" height="2.5"/>
	<rect x="34.7" y="38.4" class="st0" width="2.1" height="2.5"/>
	<polygon class="st0" points="31.6,40.9 34.4,40.9 31.8,38.4 31.6,38.4 	"/>
	<path class="st0" d="M44.1,40.9h0.8l1.2-1.2c0.3-0.4,0.4-0.8,0.4-1.3h-2.5V40.9z"/>
	<path class="st0" d="M30.6,38.4h-3.7c0,0.4,0.2,0.9,0.6,1.3l1.2,1.2h1.9V38.4z"/>
	<rect x="34.7" y="29.8" class="st0" width="0.6" height="2.5"/>
	<polygon class="st0" points="35,47.3 38.6,47.3 41.1,44.8 32.5,44.8 	"/>
</g>
<g id="zkNOlD_1_">
	<g>
		<path class="st0" d="M48.1,14.6C48,14.5,48,14.5,48,14.5c-0.7-0.7-1.5-1.5-2.2-2.2c-0.3-0.3-0.7-0.3-1,0s-0.6,0.6-0.9,0.9
			c-0.3,0.3-0.3,0.7,0,1c0.4,0.4,0.8,0.8,1.1,1.1c0.8,0.8,1.7,1.7,2.5,2.5c0.5,0.5,1.2,0.5,1.6-0.2c0.6-0.8,1.1-1.7,1.7-2.5
			c1.5-2.2,3-4.5,4.5-6.7c0.2-0.3,0.2-0.7-0.2-0.9c-0.3-0.2-0.7-0.5-1-0.7S53.4,6.6,53.2,7c-1.3,1.9-2.6,3.8-3.9,5.7
			C49,13.3,48.6,13.9,48.1,14.6z"/>
		<g>
			<path class="st0" d="M15.7,21.3v-2.1c0-1.1,1-2,2-2h26.5l-1.8-1.8c-0.2-0.2-0.4-0.4-0.5-0.7H17.8c-2.5,0-4.5,2.1-4.5,4.5v2.1
				c0,2.5,2.1,4.5,4.5,4.5h14.6v-2.5H17.8C16.7,23.4,15.7,22.4,15.7,21.3z"/>
			<path class="st0" d="M55.6,14.7h-1.9L52,17.2h3.6c1.1,0,2,1,2,2v2.1c0,1.1-1,2-2,2H41v2.5h14.6c2.5,0,4.5-2.1,4.5-4.5v-2.1
				C60.1,16.8,58.1,14.7,55.6,14.7z"/>
		</g>
		<path class="st0" d="M48.1,14.6c0.4-0.7,0.9-1.3,1.3-1.9c1.3-1.9,2.6-3.8,3.9-5.7c0.2-0.3,0.6-0.4,0.9-0.2c0.3,0.2,0.7,0.5,1,0.7
			s0.4,0.6,0.2,0.9c-1.5,2.2-3,4.5-4.5,6.7c-0.6,0.8-1.1,1.7-1.7,2.5c-0.4,0.6-1.1,0.7-1.6,0.2c-0.8-0.8-1.7-1.7-2.5-2.5
			c-0.4-0.4-0.8-0.8-1.1-1.1s-0.3-0.7,0-1s0.6-0.6,0.9-0.9c0.3-0.3,0.7-0.3,1,0C46.6,13,47.4,13.8,48.1,14.6
			C48,14.5,48.1,14.5,48.1,14.6z"/>
	</g>
</g>
</svg>
