<?xml version="1.0" encoding="utf-8"?>
<!-- Generator: Adobe Illustrator 23.1.1, SVG Export Plug-In . SVG Version: 6.00 Build 0)  -->
<svg version="1.1" id="Layer_1" xmlns="http://www.w3.org/2000/svg" xmlns:xlink="http://www.w3.org/1999/xlink" x="0px" y="0px"
	 viewBox="0 0 72 72" style="enable-background:new 0 0 72 72;" xml:space="preserve">
<style type="text/css">
	.st0{fill:#2D2B2B;}
</style>
<g>
	<path class="st0" d="M31.1,19.4c0,0-0.1,0-0.1,0H16.1c-1.6,0-3,1.3-3,3v33c0,1.9,1.6,3.5,3.5,3.5h22.1c1.9,0,3.5-1.6,3.5-3.5V30.8
		c0-0.1,0-0.2,0-0.3v-0.2c0-0.2-0.1-0.5-0.2-0.6l-9.9-9.9c-0.2-0.2-0.4-0.2-0.6-0.2h-0.3C31.2,19.4,31.1,19.4,31.1,19.4z M16.1,21.2
		h14.2v7.2c0,1.7,1.4,3.1,3.1,3.1h7.2v23.9c0,1-0.8,1.8-1.8,1.8H16.6c-1,0-1.8-0.8-1.8-1.8v-33C14.8,21.7,15.4,21.2,16.1,21.2z
		 M32,22l7.8,7.8h-6.4c-0.8,0-1.4-0.6-1.4-1.4C32,28.3,32,22,32,22z"/>
	<path class="st0" d="M58.9,24.1v-0.2c0-0.2-0.1-0.5-0.2-0.6l-9.9-9.9c-0.2-0.2-0.4-0.2-0.6-0.2h-0.3c-0.1,0-0.2,0-0.2,0
		c0,0-0.1,0-0.1,0H32.7c-1.6,0-3,1.3-3,3v1.8h1.7v-1.8c0-0.7,0.6-1.3,1.3-1.3h14.2V22c0,1.7,1.4,3.1,3.1,3.1h7.2v23.9
		c0,1-0.8,1.8-1.8,1.8h-11v1.7h11c1.9,0,3.5-1.6,3.5-3.5V24.4C58.9,24.3,58.9,24.2,58.9,24.1z M50,23.4c-0.8,0-1.4-0.6-1.4-1.4v-6.4
		l7.8,7.8H50z"/>
	<path class="st0" d="M32.2,36c-1.1,0.1-2.2,0.5-3,1.4L26,40.6c0.5-0.5,2.4-0.2,2.9,0.3l1.9-1.9c0.4-0.4,1-0.7,1.6-0.7
		c0.4,0,0.9,0.1,1.4,0.5c0.4,0.4,0.5,1,0.5,1.3c0,0.6-0.3,1.2-0.7,1.6l-3.4,3.4c-0.9,0.9-2.2,1-2.9,0.2c-0.4-0.4-1.1-0.4-1.6,0
		c-0.4,0.4-0.4,1.1,0,1.6c0.8,0.8,1.8,1.2,2.9,1.2c1.1,0,2.3-0.4,3.2-1.3l3.4-3.4c0.9-0.9,1.4-2,1.4-3.2c0-1.1-0.4-2.1-1.2-2.9
		C34.5,36.3,33.4,35.9,32.2,36z M26.9,41.5c-1.1,0-2.3,0.4-3.2,1.3l-3.4,3.4c-0.9,0.9-1.4,2-1.4,3.2c0,1.1,0.4,2.1,1.2,2.9
		c0.8,0.8,1.9,1.2,3.1,1.2c1.1-0.1,2.2-0.5,3-1.4l3.2-3.2c-0.5,0.5-2.4,0.2-2.9-0.3l-1.9,1.9c-0.4,0.4-1,0.7-1.6,0.7
		c-0.4,0-0.9-0.1-1.4-0.5c-0.4-0.4-0.5-1-0.5-1.3c0-0.6,0.3-1.2,0.7-1.6l3.4-3.4c0.9-0.9,2.2-1,2.9-0.2c0.4,0.4,1.1,0.4,1.6,0
		c0.4-0.4,0.4-1.1,0-1.6C29,41.9,28,41.5,26.9,41.5z"/>
</g>
</svg>
