<?xml version="1.0" encoding="utf-8"?>
<!-- Generator: Adobe Illustrator 23.1.1, SVG Export Plug-In . SVG Version: 6.00 Build 0)  -->
<svg version="1.1" id="Layer_1" xmlns="http://www.w3.org/2000/svg" xmlns:xlink="http://www.w3.org/1999/xlink" x="0px" y="0px"
	 viewBox="0 0 72 72" style="enable-background:new 0 0 72 72;" xml:space="preserve">
<style type="text/css">
	.st0{fill:none;}
	.st1{fill:#2D2B2B;}
</style>
<g>
	<polygon class="st0" points="29.9,44.3 36.4,51.3 40.2,51.3 46.7,44.3 46.7,44 29.9,44 	"/>
	<polygon class="st0" points="36.8,59.4 39.7,61.1 39.7,52.7 36.8,52.7 	"/>
	<path class="st1" d="M47.4,42.6H29.1H29c-0.3,0.1-0.6,0.4-0.6,0.7v1.3c0,0.2,0.1,0.4,0.2,0.5l6.8,7.2v7.5c0,0.2,0.1,0.5,0.4,0.6
		l4.3,2.6c0.1,0.1,0.2,0.1,0.4,0.1s0.3,0,0.4-0.1c0.2-0.1,0.3-0.4,0.3-0.6V52.3l6.8-7.1l0.1-0.1c0.1-0.1,0.1-0.3,0.1-0.4v-1.3
		C48.1,42.9,47.8,42.6,47.4,42.6z M39.7,61.1l-2.9-1.7v-6.7h2.9V61.1z M46.7,44.3l-6.5,7h-3.7l-6.6-7V44h16.8V44.3z"/>
</g>
<g>
	<path class="st0" d="M43.4,27.6l-8-8L43.4,27.6z"/>
	<path class="st0" d="M36.9,27.6h6.5l-8-8v6.5C35.4,26.9,36,27.6,36.9,27.6z"/>
	<path class="st1" d="M27,56L27,56l-7.5-0.1c-1,0-1.9-0.8-1.9-1.9V20c0-0.7,0.6-1.3,1.3-1.3h14.6v-0.1h-1.4v-1.8H19
		c-1.7,0-3.1,1.4-3.1,3.1V54c0,2,1.7,3.6,3.6,3.6h6.4V56H27z"/>
	<polygon class="st1" points="27,57.7 25.9,57.7 25.9,57.7 32.5,57.7 32.5,56 27,56 	"/>
	<path class="st1" d="M33.5,18.7V26c0,1.8,1.4,3.3,3.3,3.3h7.4v11.6H46V28.6c0-0.1,0-0.3,0-0.3V28c0-0.3-0.1-0.5-0.3-0.7L35.6,17.2
		c-0.2-0.2-0.4-0.3-0.7-0.3h-0.3c-0.1,0-0.2-0.1-0.3,0c-0.1,0-0.1,0-0.1,0h-0.3v1.8H33.5z M35.4,26.1v-6.5l8.1,8h-0.1l0.1,0.1h-6.6
		C36,27.6,35.4,27,35.4,26.1L35.4,26.1z"/>
	<path class="st1" d="M44.2,54.1c0,0.6-0.3,1.2-0.8,1.5v2c1.5-0.4,2.6-1.8,2.6-3.5V50h-1.8V54.1z"/>
	<path class="st1" d="M36.9,27.6h6.6l-0.1-0.1L36.9,27.6c-0.8-0.1-1.5-0.7-1.5-1.6v0.1C35.4,27,36,27.6,36.9,27.6z"/>
	<polygon class="st1" points="33.5,18.7 33.5,18.7 33.9,18.7 33.9,16.9 32.1,16.9 32.1,18.7 	"/>
	<rect x="25.9" y="56" class="st1" width="1.1" height="1.7"/>
</g>
<g>
	<path class="st0" d="M49.1,19.1c-0.1,0-0.2-0.1-0.3-0.1c0,0-0.1-0.1-0.1-0.1c-0.1-0.1-0.2-0.2-0.3-0.3c0,0,0,0,0,0
		c0.3,0.4,0.7,0.7,1.2,0.8h6.6l-0.1-0.1h-6.5C49.5,19.2,49.3,19.2,49.1,19.1z"/>
	<path class="st0" d="M48.2,18.2C48.2,18.2,48.2,18.2,48.2,18.2c0,0.1,0.1,0.2,0.1,0.3c0,0,0,0,0,0C48.3,18.4,48.3,18.3,48.2,18.2z"
		/>
	<polygon class="st0" points="56.1,19.1 48.2,11.2 56.1,19.1 	"/>
	<path class="st0" d="M49.7,19.2c-0.2,0-0.4,0-0.5-0.1C49.3,19.2,49.5,19.2,49.7,19.2z"/>
	<path class="st0" d="M48.2,17.9c0,0,0-0.1,0-0.1C48.2,17.8,48.2,17.8,48.2,17.9C48.2,17.9,48.2,17.9,48.2,17.9z"/>
	<path class="st0" d="M48.9,19c0,0-0.1-0.1-0.1-0.1C48.8,19,48.8,19,48.9,19z"/>
	<path class="st0" d="M48.2,18c0.2,0.7,0.8,1.1,1.5,1.2l6.4-0.1l-7.9-7.9v6.4c0,0.1,0,0.2,0,0.2C48.2,17.9,48.2,18,48.2,18z"/>
	<path class="st0" d="M48.4,18.5C48.4,18.5,48.4,18.5,48.4,18.5C48.4,18.5,48.4,18.6,48.4,18.5c0,0.1,0.1,0.1,0.1,0.1
		C48.4,18.6,48.4,18.5,48.4,18.5z"/>
	<path class="st0" d="M48.2,18C48.2,18,48.2,18,48.2,18c0,0.1,0,0.2,0,0.2c0,0,0,0,0,0C48.2,18.2,48.2,18.1,48.2,18z"/>
	<path class="st1" d="M30.4,11.6c0-0.7,0.6-1.3,1.3-1.3h13.2v-0.1V8.5V8.4H31.7c-1.7,0-3.1,1.4-3.1,3.1v3.3h1.7V11.6z"/>
	<path class="st1" d="M58.2,47.6l-10.4,0.1v1.6h7.5l1-0.1c0,0-0.1,0-0.1,0L58.2,47.6z"/>
	<path class="st1" d="M58.5,18.9L48.3,8.8c-0.2-0.2-0.4-0.3-0.7-0.3h-0.3c-0.1,0-0.2-0.1-0.3,0c-0.1,0-0.1,0-0.1,0h-0.3v1.8h-0.4
		v7.3c0,1.8,1.4,3.3,3.3,3.3H57v10.7h1.8V20.2c0-0.1,0-0.3,0-0.3v-0.3C58.7,19.3,58.7,19.1,58.5,18.9z M56.2,19.3h-6.6
		c-0.6-0.1-1-0.3-1.2-0.8c0,0,0,0,0,0c-0.1-0.1-0.1-0.2-0.1-0.3c-0.1-0.2-0.1-0.3-0.1-0.5v-0.1v-6.4l8,7.9h0l0.1,0.1h-0.1L56.2,19.3
		z"/>
	<path class="st1" d="M48.4,18.6C48.4,18.6,48.4,18.5,48.4,18.6C48.4,18.5,48.4,18.6,48.4,18.6z"/>
	<path class="st1" d="M48.2,17.9c0,0,0-0.1,0-0.1c0,0.2,0,0.3,0.1,0.5c0-0.1,0-0.1,0-0.2C48.2,18,48.2,17.9,48.2,17.9z"/>
	<path class="st1" d="M57,45.7c0,0.6-0.3,1.2-0.8,1.5v0.4h0.1v1.6c1.4-0.4,2.5-1.8,2.5-3.5V32.5H57V45.7z"/>
	<path class="st1" d="M56.2,47.6v1.6c0,0,0.1,0,0.1,0L56.2,47.6L56.2,47.6z"/>
	<rect x="57" y="31.6" class="st1" width="1.8" height="0.9"/>
	<path class="st1" d="M48.4,18.6c0.1,0.1,0.2,0.2,0.3,0.3C48.6,18.8,48.5,18.7,48.4,18.6z"/>
	<path class="st1" d="M49.1,19.1c-0.1,0-0.2-0.1-0.3-0.1C49,19.1,49,19.1,49.1,19.1z"/>
	<path class="st1" d="M48.4,18.5c0-0.1-0.1-0.2-0.1-0.3C48.3,18.3,48.3,18.4,48.4,18.5z"/>
	<polygon class="st1" points="56.1,19.1 56.1,19.1 56.2,19.2 56.2,19.2 	"/>
	<path class="st1" d="M48.2,17.6L48.2,17.6c0,0.1,0,0.2,0,0.2C48.2,17.8,48.2,17.7,48.2,17.6z"/>
	<path class="st1" d="M48.2,17.9c0,0.1,0,0.1,0,0.2c0,0,0,0,0,0C48.2,18,48.2,17.9,48.2,17.9C48.2,17.9,48.2,17.9,48.2,17.9z"/>
	<path class="st1" d="M48.2,18c0,0.1,0,0.2,0,0.2c0,0.1,0.1,0.2,0.1,0.3c0,0,0,0.1,0.1,0.1c0.1,0.1,0.2,0.2,0.3,0.3
		c0,0,0.1,0.1,0.1,0.1c0.1,0,0.2,0.1,0.3,0.1c0.2,0,0.3,0.1,0.5,0.1C49,19.1,48.4,18.7,48.2,18z"/>
	<polygon class="st1" points="49.7,19.2 56.2,19.2 56.1,19.1 	"/>
	<polygon class="st1" points="56.2,19.1 56.1,19.1 56.2,19.2 	"/>
	<path class="st1" d="M48.2,18c0-0.1,0-0.1,0-0.2C48.2,17.9,48.2,18,48.2,18z"/>
	<polygon class="st1" points="46.2,10.2 46.2,10.3 46.7,10.3 46.7,8.5 44.8,8.5 44.8,10.2 	"/>
	<rect x="44.8" y="10.2" class="st1" width="1.4" height="0.1"/>
</g>
<polygon class="st1" points="47.7,49.3 56.2,48.3 56.2,47.2 47.7,47.2 "/>
</svg>
