<?xml version="1.0" encoding="utf-8"?>
<!-- Generator: Adobe Illustrator 25.1.0, SVG Export Plug-In . SVG Version: 6.00 Build 0)  -->
<svg version="1.1" id="Layer_1" xmlns="http://www.w3.org/2000/svg" xmlns:xlink="http://www.w3.org/1999/xlink" x="0px" y="0px"
	 viewBox="0 0 72 72" style="enable-background:new 0 0 72 72;" xml:space="preserve">
<style type="text/css">
	.st0{fill:#2D2B2B;}
	.st1{fill:none;stroke:#2D2B2B;stroke-width:2;stroke-miterlimit:10;}
</style>
<g id="DoVJow.tif">
	<g>
		<path class="st0" d="M34.4,25.3c-2.4,0-4.8,0-7.3,0c0,0,0-0.1,0-0.1c-0.8-1.5-1.7-3-2.4-4.5c0-0.1,0-0.2,0-0.3
			c2.1-3.6,4.1-7.2,6.1-10.8c0-0.1,0.1-0.1,0.3-0.1c1.9,0,3.8,0,5.6,0c0.1,0,0.2,0,0.3,0.1C39,13,41,16.4,43.1,19.7
			c0,0,0.1,0.1,0.1,0.1v0c0,0-0.1,0.1-0.1,0.1c-1,1.7-2,3.3-2.9,5c-0.1,0.1-0.1,0.2-0.3,0.2c-1.8,0-3.5,0-5.2,0
			C34.5,25.3,34.4,25.3,34.4,25.3z M41.2,20.6c0,0-0.1,0-0.1,0c-3.4,0-6.9,0-10.3,0c-0.1,0-0.2,0-0.2,0.1c-0.6,1-1.2,2-1.8,3
			c0,0,0,0.1-0.1,0.2c0.1,0,0.1,0,0.2,0c3.4,0,6.8,0,10.2,0c0.1,0,0.2,0,0.3-0.1c0.4-0.8,0.9-1.6,1.4-2.3
			C40.9,21.2,41,20.9,41.2,20.6z M41.2,19.3c0,0,0-0.1-0.1-0.1c-1.7-2.7-3.3-5.5-5-8.2c0-0.1-0.1-0.1-0.2-0.1c-1.1,0-2.2,0-3.3,0
			c0,0-0.1,0-0.2,0c0,0,0,0.1,0.1,0.1c1.6,2.7,3.1,5.5,4.7,8.2c0,0.1,0.1,0.1,0.2,0.1c1.1,0,2.2,0,3.4,0
			C40.9,19.3,41,19.3,41.2,19.3z M27.5,23.2C27.5,23.2,27.5,23.2,27.5,23.2c1.8-3,3.5-6,5.1-8.9c0-0.1,0-0.2,0-0.2
			c-0.4-0.8-0.9-1.6-1.4-2.4c0,0,0-0.1-0.1-0.1c0,0,0,0,0,0.1c-1.6,2.9-3.3,5.9-5,8.9c0,0.1,0,0.2,0,0.2c0.4,0.8,0.9,1.6,1.3,2.3
			C27.5,23.1,27.5,23.2,27.5,23.2z M35.7,19.3c-0.7-1.3-1.4-2.5-2.2-3.8c-0.7,1.3-1.4,2.5-2.2,3.8C32.8,19.3,34.2,19.3,35.7,19.3z"
			/>
	</g>
</g>
<path class="st1" d="M40.4,17.4"/>
<path class="st1" d="M29.2,17.4"/>
<g>
	<path class="st1" d="M53.8,42.4v9.5c0,2.4-1.9,4.3-4.3,4.3H40"/>
	<g>
		<path class="st1" d="M28.8,56.2h-9.5c-2.4,0-4.3-1.9-4.3-4.3v-9.5"/>
		<path class="st1" d="M45,17.4h4.5c2.4,0,4.3,1.9,4.3,4.3v9.4"/>
		<path class="st1" d="M15,31.1v-9.4c0-2.4,1.9-4.3,4.3-4.3h3.5"/>
	</g>
</g>
<g>
	<path class="st1" d="M43.4,33.1h-4.2l0,0c0-1.5-1.2-2.7-2.7-2.7h-4.4c-1.5,0-2.7,1.2-2.7,2.7l0,0h-4c-1.5,0-2.7,1.2-2.7,2.7v9
		c0,1.5,1.2,2.7,2.7,2.7h18c1.5,0,2.7-1.2,2.7-2.7v-9C46.1,34.3,44.9,33.1,43.4,33.1z"/>
	<circle class="st1" cx="34.4" cy="39.7" r="3.4"/>
</g>
</svg>
