<?xml version="1.0" encoding="utf-8"?>
<!-- Generator: Adobe Illustrator 23.1.1, SVG Export Plug-In . SVG Version: 6.00 Build 0)  -->
<svg version="1.1" id="Layer_1" xmlns="http://www.w3.org/2000/svg" xmlns:xlink="http://www.w3.org/1999/xlink" x="0px" y="0px"
	 viewBox="0 0 100.02 82" style="enable-background:new 0 0 100.02 82;" xml:space="preserve">
<style type="text/css">
	.st0{fill:#2D2B2B;}
	.st1{fill:none;}
</style>
<g>
	<path class="st0" d="M57.55,21.61c-3,0-5.46,2.4-5.58,5.37c-0.73-0.36-1.55-0.57-2.42-0.57c-3.07,0-5.59,2.52-5.59,5.59v19.76
		c-0.31-0.47-0.63-0.97-0.91-1.37c-0.44-0.63-0.64-1.01-1.25-1.52c-2.58-2.32-6.59-2.1-8.93,0.44c-2.36,2.58-1.91,6.45,0.32,8.88
		l-0.04-0.05c6.47,7.66,10.06,12.17,13.96,14.86c3.91,2.68,8,3.22,14.5,2.98c9.54-0.35,17.43-7.84,17.53-17.42
		c0-0.05,0.01-0.11,0.01-0.16V35.2c0-3.07-2.52-5.59-5.59-5.59c-0.85,0-1.67,0.21-2.4,0.56v-1.36c0-3.07-2.52-5.59-5.59-5.59
		c-1.21,0-2.34,0.4-3.26,1.07C61.31,22.68,59.55,21.61,57.55,21.61z M57.55,24.8c1.4,0,2.4,1,2.4,2.4v1.6V45.6
		c-0.01,0.88,0.69,1.62,1.58,1.62c0.88,0.01,1.62-0.69,1.62-1.58c0-0.01,0-0.03,0-0.04V28.81c0-1.4,1-2.4,2.4-2.4
		c1.4,0,2.4,1,2.4,2.4v6.39v11.99c-0.01,0.88,0.69,1.62,1.58,1.62c0.88,0,1.62-0.69,1.62-1.58c0-0.01,0-0.03,0-0.04V35.2
		c0-1.4,1-2.4,2.4-2.4c1.4,0,2.4,1,2.4,2.4v23.19c0,7.93-6.46,14.1-14.46,14.39c-6.29,0.24-9.3-0.19-12.56-2.42
		c-3.24-2.23-6.85-6.59-13.33-14.28c-0.01-0.01-0.03-0.04-0.04-0.05c-1.28-1.4-1.47-3.3-0.32-4.55c1.17-1.28,3.19-1.37,4.46-0.23
		c0.03,0.03,0.05,0.04,0.08,0.07c-0.25-0.2,0.25,0.32,0.65,0.89c0.4,0.59,0.91,1.33,1.4,2.11c0.49,0.77,1,1.55,1.44,2.2
		c0.44,0.65,0.71,1.09,1.17,1.56c0.63,0.63,1.64,0.63,2.26,0c0.29-0.29,0.47-0.71,0.47-1.13V32c0-1.4,1-2.4,2.4-2.4
		c1.4,0,2.4,1,2.4,2.4v15.19c-0.01,0.88,0.69,1.62,1.58,1.62c0.88,0.01,1.62-0.69,1.62-1.58c0-0.01,0-0.03,0-0.04V32v-4.79
		C55.16,25.8,56.16,24.8,57.55,24.8z"/>
	<g>
		<path class="st1" d="M38.05,53.82c-0.12-0.18-0.29-0.37-0.39-0.5c-0.03-0.01-0.05-0.01-0.07-0.01c-0.06,0-0.16,0.01-0.24,0.1
			c-0.02,0.07,0.02,0.35,0.32,0.68l-0.01,0.01l0.12,0.13c0,0,1.97,2.33,2.42,2.87c-0.26-0.4-0.53-0.82-0.8-1.24
			C38.93,55.11,38.44,54.39,38.05,53.82z"/>
		<path class="st1" d="M69.52,51.67c-1.2,0-2.32-0.47-3.16-1.33c-0.58-0.59-0.99-1.34-1.17-2.15c-0.81,1.14-2.14,1.88-3.64,1.88
			c-1.22,0-2.34-0.47-3.18-1.33c-0.17-0.17-0.32-0.35-0.45-0.54c-0.19,0.82-0.6,1.56-1.21,2.16c-0.84,0.83-1.96,1.29-3.14,1.29
			c-1.22,0-2.34-0.47-3.19-1.33c-0.13-0.13-0.24-0.26-0.35-0.4v7c0,1.18-0.48,2.33-1.31,3.16c-0.82,0.84-1.95,1.31-3.15,1.31
			c-0.77,0-1.5-0.19-2.16-0.55c3.03,3.5,5.23,5.82,7.13,7.13c2.18,1.49,4.17,1.97,8.18,1.97c0.81,0,1.69-0.02,2.65-0.06
			c6.56-0.24,11.7-5.3,11.7-11.52v-8.45C72.25,50.99,70.96,51.67,69.52,51.67z"/>
		<path class="st1" d="M38.38,12.36c-7.93,0-14.32,6.39-14.32,14.32c0,7.93,6.39,14.32,14.32,14.32c0.93,0,1.83-0.1,2.71-0.26V32
			c0-4.67,3.8-8.46,8.46-8.46c0.12,0,0.24,0,0.37,0.01c0.42-0.88,1.01-1.67,1.69-2.35C49.46,16,44.36,12.36,38.38,12.36z
			 M39.97,29.43v2.02c0,0.01,0,0.03,0,0.04c-0.01,0.88-0.73,1.58-1.61,1.57c-0.88-0.01-1.58-0.73-1.57-1.61v-2.02
			c-0.98-0.57-1.59-1.62-1.59-2.75c0-1.13,0.61-2.18,1.59-2.75v-6.8c-0.01-0.88,0.69-1.6,1.57-1.61c0.02,0,0.03,0,0.05,0
			c0.88,0.01,1.58,0.73,1.57,1.61v6.79c0.98,0.57,1.59,1.62,1.59,2.75C41.56,27.81,40.95,28.86,39.97,29.43z"/>
		<path class="st0" d="M39.97,23.93v-6.79c0.01-0.88-0.69-1.6-1.57-1.61c-0.02,0-0.03,0-0.05,0c-0.88,0.01-1.58,0.74-1.57,1.61v6.8
			c-0.98,0.57-1.59,1.62-1.59,2.75c0,1.14,0.61,2.19,1.59,2.75v2.02c-0.01,0.88,0.69,1.6,1.57,1.61c0.88,0.01,1.6-0.69,1.61-1.57
			c0-0.01,0-0.03,0-0.04v-2.02c0.98-0.57,1.59-1.62,1.59-2.75C41.56,25.54,40.95,24.49,39.97,23.93z"/>
		<path class="st0" d="M51.57,13.48c0.61,0.63,1.62,0.65,2.25,0.05c0.63-0.61,0.65-1.62,0.05-2.25c-0.01-0.02-0.03-0.03-0.05-0.05
			l-1.59-1.59c-0.3-0.31-0.71-0.48-1.14-0.48c-0.88,0-1.59,0.71-1.59,1.59c0,0.43,0.17,0.84,0.48,1.14L51.57,13.48z"/>
		<path class="st0" d="M38.38,41c-7.93,0-14.32-6.39-14.32-14.32c0-7.93,6.39-14.32,14.32-14.32c5.98,0,11.09,3.64,13.23,8.84
			c0.76-0.76,1.67-1.37,2.67-1.79c-2.34-5.09-7.06-8.88-12.72-9.93v-1.9c0-0.88-0.71-1.59-1.59-1.59h-3.18
			c-0.88,0-1.59,0.71-1.59,1.59v1.9c-8.13,1.5-14.32,8.64-14.32,17.2c0,9.65,7.85,17.5,17.5,17.5c0.92,0,1.82-0.09,2.71-0.23v-3.21
			C40.21,40.9,39.31,41,38.38,41z"/>
	</g>
</g>
</svg>
