<?xml version="1.0" encoding="utf-8"?>
<!-- Generator: Adobe Illustrator 25.1.0, SVG Export Plug-In . SVG Version: 6.00 Build 0)  -->
<svg version="1.1" id="Layer_1" xmlns="http://www.w3.org/2000/svg" xmlns:xlink="http://www.w3.org/1999/xlink" x="0px" y="0px"
	 viewBox="0 0 72 72" style="enable-background:new 0 0 72 72;" xml:space="preserve">
<style type="text/css">
	.st0{fill:#FFFFFF;}
	.st1{fill:none;stroke:#2D2B2B;stroke-width:2;stroke-miterlimit:10;}
</style>
<g id="zRaT9J_1_">
	<g>
		<path d="M-178.7,99.6c-6,0-12,0-18,0c-0.9-0.3-1.9-0.7-2.8-0.8c-22.5-2.2-42.5-10.6-59.9-24.9c-7.4-6.1-14.4-12.6-21.6-19
			c-1.8,0.7-4.1,3.5-6.6,6.1c-5.2,5.3-8.3,5.1-13.1-0.5c0-27.3,0-54.7,0-82c0.3-1.1,0.7-2.2,0.8-3.4c3.4-30.9,17.4-56,41.4-75.8
			c1.3-1.1,2.6-2.3,4.5-3.9c-3.2-2.9-6-5.4-8.7-8.1c-5.1-5.1-4.8-8.7,1.1-12.9c27.3,0,54.7,0,82,0c1,0.3,1.9,0.7,2.9,0.7
			c22.1,2,41.8,10,59,23.9c7.7,6.2,14.7,13.3,22.6,20.5c1.6-1.8,4-4.7,6.7-7.4c5.1-5.1,8.6-4.7,12.8,1.2c0,25.3,0,50.7,0,76
			c-2.8,1.3-5.7,3.8-8.5,3.8c-21.7,0.3-43.3,0.3-65,0c-2.4,0-6-1.6-6.8-3.5c-0.9-2.1-0.1-5.9,1.4-8c3.3-4.9,7.4-9.4,11.4-13.9
			c2-2.2,2.5-4.2,0.6-6.5c-4.9-5.6-9.4-11.7-15-16.5c-6.6-5.6-14.7-8.6-23.9-9.3c0,4.5,0.2,8.4,0,12.4c-0.3,5.9-5.7,8.6-10.7,5.2
			c-2.6-1.8-5-3.9-7.5-5.8c-11.4-9-12-9-23,0.9c-9.3,8.4-15,18.7-16.7,31.8c4.5,0,8.5-0.4,12.4,0.2c2.5,0.4,5.9,1.7,6.8,3.6
			c0.9,1.9,0,5.6-1.4,7.6c-3.2,4.7-6.9,9-10.8,13.1c-2.7,2.8-2.7,5-0.8,8.2c16.9,28.7,55.2,34.8,80.1,12.6c5.5-4.9,7.9-4.9,13.1,0.2
			c10.2,10.1,20.3,20.2,30.4,30.4c4.3,4.4,4.3,7.6-0.2,11.9c-13.8,13.3-29.9,22.6-48.5,27.5C-165,97.2-171.9,98.2-178.7,99.6z
			 M-287.4,41.9c0.9-0.6,1.5-0.9,1.9-1.3c7-6.4,9.5-6.1,14.8,1.7c24.3,36.1,68.8,52.3,110.5,40.2c14-4.1,26.6-10.8,37.1-20.2
			c-8.2-8.3-16.1-16.3-24.2-24.4c-1,0.7-2.4,1.7-3.7,2.6c-33.4,23.5-81.7,9.2-97.1-28.6c-1.8-4.3-1.4-7.6,1.7-10.9
			c2.1-2.2,3.9-4.7,6.4-7.8c-16.4,0-31.8,0-47.4,0C-287.4,9.6-287.4,25.5-287.4,41.9z M-88.9-68c-10.5,7.7-10.4,7.7-18-2.7
			c-15-20.6-35-33.8-59.9-39.4c-4.7-1.1-9.6-1.4-14.5-2.1c0,12.1,0,23.2,0,34.3c2.2,0.5,4.1,0.8,6.1,1.3c22.4,4.9,38.1,18,47.4,38.8
			c1.6,3.5,1.2,6.4-1.3,9.2c-2.4,2.7-4.6,5.5-7.3,8.8c16.3,0,31.8,0,47.5,0C-88.9-35.9-88.9-51.7-88.9-68z M-194.8-112
			c-16.4,0-32.2,0-48.4,0c0.5,0.8,0.7,1.2,1.1,1.6c6.7,7.3,6.5,9.7-1.6,15.1c-12.2,8.2-22.1,18.6-29.7,31.2
			c-8.1,13.4-12.8,27.9-13.8,44c11.6,0,22.9,0,34.3,0c0.4-1.7,0.7-3.4,1.1-5c4.6-22.3,17.4-38,38-47.6c4.5-2.1,8.2-1.7,11.8,1.7
			c2.1,2,4.6,3.5,7.3,5.5C-194.8-81.4-194.8-96.6-194.8-112z"/>
		<path class="st0" d="M-300.7,60.6c4.8,5.6,7.9,5.8,13.1,0.5c2.6-2.6,4.9-5.4,6.6-6.1c7.2,6.3,14.2,12.9,21.6,19
			c17.4,14.3,37.4,22.6,59.9,24.9c1,0.1,1.9,0.5,2.8,0.8c-34.7,0-69.3,0-104,0C-300.7,86.5-300.7,73.5-300.7,60.6z"/>
		<path class="st0" d="M-261.7-125.4c-5.8,4.2-6.2,7.8-1.1,12.9c2.7,2.7,5.6,5.2,8.7,8.1c-1.9,1.6-3.2,2.8-4.5,3.9
			c-23.9,19.7-37.9,44.8-41.4,75.8c-0.1,1.1-0.5,2.2-0.8,3.4c0-34.5,0-69.1,0-104C-287.7-125.4-274.7-125.4-261.7-125.4z"/>
		<path class="st0" d="M-88.9-68c0,16.3,0,32.1,0,48.2c-15.7,0-31.2,0-47.5,0c2.7-3.3,5-6.1,7.3-8.8c2.5-2.8,2.9-5.7,1.3-9.2
			c-9.3-20.9-25-34-47.4-38.8c-1.9-0.4-3.9-0.8-6.1-1.3c0-11.1,0-22.2,0-34.3c4.9,0.7,9.8,1,14.5,2.1c24.8,5.7,44.9,18.8,59.9,39.4
			C-99.4-60.3-99.5-60.2-88.9-68z"/>
		<path class="st0" d="M-194.8-112c0,15.5,0,30.6,0,46.6c-2.8-2.1-5.2-3.6-7.3-5.5c-3.6-3.4-7.3-3.8-11.8-1.7
			c-20.5,9.6-33.4,25.3-38,47.6c-0.3,1.6-0.7,3.2-1.1,5c-11.4,0-22.6,0-34.3,0c1-16.1,5.7-30.6,13.8-44c7.6-12.6,17.5-23,29.7-31.2
			c8.1-5.5,8.3-7.8,1.6-15.1c-0.3-0.3-0.5-0.8-1.1-1.6C-227-112-211.1-112-194.8-112z"/>
	</g>
</g>
<path id="path3649" class="st1" d="M15.2,36c0,0.3,0,0.6,0,0.9v16.9l4.7-4.7c3.8,4.7,9.6,7.7,16.1,7.7c6.8,0,12.8-3.2,16.6-8.2
	l-7.6-7.7c-0.7,1.4-1.8,2.6-3.1,3.5c-1.3,1-3.2,1.9-5.8,1.9c-0.3,0-0.6,0-0.7-0.1c-3.2-0.3-6-2-7.7-4.6l5.4-5.4
	C26.1,36.1,18.3,36.1,15.2,36"/>
<g>
	<path class="st1" d="M56.8,35.1V18.2l-4.7,4.7c-3.8-4.7-9.6-7.7-16.1-7.7c0,0-0.1,0-0.1,0v10.6c0,0,0.1,0,0.1,0
		c0.3,0,0.6,0,0.7,0.1c3.2,0.3,6,2,7.7,4.6L39.1,36c6.9,0,14.6,0,17.8,0l0-0.4C56.8,35.2,56.8,35.4,56.8,35.1z"/>
</g>
<path class="st1" d="M35,15.2H18.2l4.7,4.7c-4.7,3.8-7.7,9.6-7.7,16.1h10.6c0-0.3,0-0.6,0.1-0.7c0.3-3.2,2-6,4.6-7.7l5.4,5.4
	c0-6.9,0-14.6,0-17.8"/>
</svg>
