<?xml version="1.0" encoding="utf-8"?>
<!-- Generator: Adobe Illustrator 23.1.1, SVG Export Plug-In . SVG Version: 6.00 Build 0)  -->
<svg version="1.1" id="Layer_1" xmlns="http://www.w3.org/2000/svg" xmlns:xlink="http://www.w3.org/1999/xlink" x="0px" y="0px"
	 viewBox="0 0 72 72" style="enable-background:new 0 0 72 72;" xml:space="preserve">
<path d="M21,11.3L20.3,12l-7,7c-0.4,0.4-0.4,1,0,1.4s1,0.4,1.4,0l5.3-5.3v10.6c0,8.5,6.6,15.4,15,15.9v19.1h2V41.6
	c8.4-0.5,15-7.4,15-15.9V15.1l5.3,5.3c0.4,0.4,1,0.4,1.4,0s0.4-1,0-1.4l-7-7L51,11.3L50.3,12l-7,7c-0.4,0.4-0.4,1,0,1.4s1,0.4,1.4,0
	l5.3-5.3v10.6c0,7.8-6.2,14-14,14s-14-6.2-14-14V15.1l5.3,5.3c0.4,0.4,1,0.4,1.4,0s0.4-1,0-1.4l-7-7L21,11.3z"/>
</svg>
