<?xml version="1.0" encoding="utf-8"?>
<!-- Generator: Adobe Illustrator 23.1.1, SVG Export Plug-In . SVG Version: 6.00 Build 0)  -->
<svg version="1.1" id="Layer_1" xmlns="http://www.w3.org/2000/svg" xmlns:xlink="http://www.w3.org/1999/xlink" x="0px" y="0px"
	 viewBox="0 0 72 72" style="enable-background:new 0 0 72 72;" xml:space="preserve">
<style type="text/css">
	.st0{fill:#2D2B2B;}
</style>
<g>
	<path class="st0" d="M45.5,49.4c0.4-0.3,0.7-0.7,1.1-1c0.1,0.1,0.2,0.2,0.3,0.3c0.6,0.5,1.3,0.8,2.1,0.9c1.8,0.1,3.4-1,3.8-2.7
		c0.5-2-0.7-3.9-2.6-4.4c-0.9-0.2-1.8-0.1-2.6,0.3c-0.2,0.1-0.4,0.2-0.6,0.3c0,0,0,0-0.1,0c-0.1-0.1-0.1-0.2-0.2-0.3
		c-0.7-1.1-1.4-2.3-2.1-3.4c0-0.1-0.1-0.1-0.1-0.1c-0.6,0.1-1.1-0.1-1.6-0.5c-0.4-0.4-0.7-0.8-0.8-1.4c-0.1-0.6,0.1-1.2,0.4-1.7
		c0.4-0.4,0.8-0.7,1.4-0.8c0.6-0.1,1.2,0.1,1.7,0.5c0.4,0.4,0.7,0.8,0.8,1.4c0.1,0.6,0,1.1-0.3,1.5c-0.1,0.1-0.1,0.2-0.2,0.3
		c0.5,0.8,1.1,1.7,1.6,2.5c1.5-0.6,3-0.5,4.4,0.3c1.1,0.6,1.9,1.5,2.3,2.7c0.9,2.3,0,4.9-2.2,6.2C49.8,51.6,47.1,51.1,45.5,49.4z
		 M44.2,36.4c-0.4,0-0.7,0.3-0.7,0.7c0,0.4,0.3,0.7,0.7,0.7c0.4,0,0.7-0.3,0.7-0.7C44.9,36.8,44.6,36.4,44.2,36.4z"/>
	<path class="st0" d="M42.7,40.6C42.7,40.6,42.7,40.6,42.7,40.6c-0.7,1.3-1.4,2.5-2,3.8c0,0.1,0,0.1,0,0.1c0.4,0.5,0.6,1.1,0.5,1.8
		c-0.1,0.7-0.5,1.3-1.1,1.6c-0.6,0.4-1.3,0.4-2,0.1c-0.6-0.3-1-0.7-1.2-1.3c-0.2-0.7-0.1-1.3,0.3-1.9c0.3-0.5,0.8-0.8,1.4-0.9
		c0.2,0,0.4,0,0.6,0c0,0,0.1,0,0.1,0c0.5-0.9,1-1.8,1.4-2.7c0,0,0,0,0,0c-1.2-1.1-1.8-2.4-1.7-4.1c0-1.2,0.5-2.3,1.3-3.2
		c1.7-1.9,4.4-2.2,6.5-0.9c2.2,1.4,2.9,4,2.2,6c-0.5-0.2-0.9-0.3-1.4-0.5c0,0,0-0.1,0-0.1c0.7-2-0.5-4.1-2.5-4.7
		c-2-0.5-4,0.6-4.5,2.5c-0.3,1.2-0.1,2.4,0.8,3.4c0.2,0.2,0.4,0.4,0.7,0.6C42.3,40.3,42.5,40.4,42.7,40.6z M39.8,45.9
		c0-0.4-0.3-0.7-0.7-0.7c-0.4,0-0.7,0.3-0.7,0.7c0,0.4,0.3,0.7,0.7,0.7C39.5,46.7,39.8,46.3,39.8,45.9z"/>
	<path class="st0" d="M51.4,45.6c-0.1-0.6-0.4-1-0.8-1.4c-0.5-0.4-1.1-0.6-1.7-0.5c-0.6,0.1-1,0.4-1.4,0.8c-0.1,0.2-0.3,0.4-0.3,0.6
		c-1.5,0-3,0-4.5,0c0,0.1,0,0.1,0,0.2c0,0.3,0,0.7-0.1,1c-0.1,0.7-0.4,1.4-0.9,1.9c-1,1.1-2.2,1.5-3.7,1.1c-2-0.5-3.2-2.6-2.6-4.5
		c0.4-1.3,1.2-2.1,2.5-2.5c0.1,0,0.3-0.1,0.4-0.1c-0.1-0.5-0.2-1-0.3-1.4c-2.2,0.4-4.1,2.2-4.2,4.9c-0.1,2.5,1.6,4.7,4.2,5.2
		c1.2,0.2,2.4,0,3.4-0.6c1.4-0.8,2.2-2.1,2.5-3.7c0,0,0,0,0,0c1,0,2,0,3,0c0.1,0,0.1,0,0.1,0.1c0.1,0.4,0.4,0.7,0.7,0.9
		c0.5,0.4,1.1,0.5,1.7,0.4c0.6-0.1,1-0.4,1.4-0.8C51.4,46.8,51.5,46.2,51.4,45.6z M49.3,46.7c-0.4,0-0.7-0.3-0.7-0.7
		c0-0.4,0.3-0.7,0.7-0.7c0.4,0,0.7,0.3,0.7,0.7C50,46.3,49.7,46.7,49.3,46.7z"/>
</g>
<g id="CR737r.tif">
	<g>
		<g>
			<circle class="st0" cx="18.7" cy="23.6" r="2.5"/>
			<path class="st0" d="M24.6,21.1c-1.3,0-2.5,1-2.5,2.5c0,1.4,1,2.5,2.5,2.5c1.4,0,2.5-1,2.5-2.5C26.9,22.2,25.9,21.1,24.6,21.1z"
				/>
			<path class="st0" d="M58.1,17.3c0.1-0.1-43-0.1-43-0.1c-1.5,0-2.7,1.2-2.7,2.7v8.7c0,0.1,0,0.1,0,0.2v8.8h2v-7.8H59V55h-6.8H41.5
				H14.4v-9.7h-2V56c0,0.6,0.5,0.9,0.9,0.9h28.2h10.7h7.7c0.6,0,0.9-0.5,0.9-0.9V28.9c0-0.1,0-0.1,0-0.2V20
				C60.8,18.5,59.6,17.3,58.1,17.3z M58.8,28H14.4v-8c0-0.4,0.3-0.8,0.7-0.8H58c0.5,0,0.8,0.4,0.8,0.8V28z"/>
			<path class="st0" d="M28.9,25.9H57v-4.8H28.9V25.9z M30.8,23.1H55V24H30.8V23.1z"/>
		</g>
		<path class="st0" d="M18.8,49.9c0-2,0-4,0-6c-4.9,0-5.7,0-10.6,0c0-1.6,0-3.2,0-4.8c4.9,0,5.7,0,10.6,0c0-2,0-4,0-6
			c4.8,2.8,9.6,5.6,14.4,8.4C28.4,44.2,23.6,47.1,18.8,49.9z"/>
	</g>
</g>
</svg>
