<?xml version="1.0" encoding="utf-8"?>
<!-- Generator: Adobe Illustrator 25.1.0, SVG Export Plug-In . SVG Version: 6.00 Build 0)  -->
<svg version="1.1" id="Layer_1" xmlns="http://www.w3.org/2000/svg" xmlns:xlink="http://www.w3.org/1999/xlink" x="0px" y="0px"
	 viewBox="0 0 72 72" style="enable-background:new 0 0 72 72;" xml:space="preserve">
<style type="text/css">
	.st0{fill:#2D2B2B;}
</style>
<g>
	<path class="st0" d="M39.1,17.9c0.5,0.5,1.3,0.5,1.9,0c0.5-0.5,0.5-1.3,0-1.9l-5.2-5.2c-0.3-0.3-0.6-0.4-0.9-0.4
		c-0.4,0-0.8,0.1-0.9,0.4L28.7,16c-0.5,0.5-0.5,1.3,0,1.9c0.5,0.5,1.3,0.5,1.9,0l2.9-3.1v2.8h2.5v-2.8L39.1,17.9z"/>
	<path class="st0" d="M33.6,22.9c0,0.8,0.6,1.3,1.3,1.3c0.6,0,1.3-0.6,1.3-1.3v-5.2h-2.5V22.9L33.6,22.9z"/>
</g>
<g id="DoVJow.tif">
	<g>
		<path class="st0" d="M35.9,63c-5,0-9.9,0-14.9,0c0-0.1-0.1-0.2-0.1-0.2c-1.7-3.1-3.4-6.1-5-9.2c-0.1-0.2-0.1-0.4,0-0.6
			c4.2-7.4,8.4-14.8,12.5-22.1c0.1-0.2,0.3-0.3,0.6-0.3c3.8,0,7.7,0,11.5,0c0.3,0,0.4,0.1,0.6,0.3c4.2,6.9,8.4,13.8,12.6,20.7
			c0.1,0.1,0.2,0.2,0.2,0.3c0,0,0,0.1,0,0.1c-0.1,0.1-0.2,0.2-0.2,0.3c-2,3.4-4,6.8-6,10.3c-0.2,0.3-0.3,0.4-0.6,0.4
			c-3.6,0-7.1,0-10.7,0C36.2,63,36,63,35.9,63z M49.9,53.4c-0.1,0-0.2,0-0.3,0c-7,0-14.1,0-21.1,0c-0.2,0-0.4,0.1-0.5,0.3
			c-1.2,2.1-2.4,4.1-3.6,6.2c-0.1,0.1-0.1,0.2-0.2,0.4c0.2,0,0.3,0,0.5,0c6.9,0,13.9,0,20.8,0c0.3,0,0.4-0.1,0.6-0.3
			c0.9-1.6,1.9-3.2,2.8-4.8C49.2,54.5,49.5,54,49.9,53.4z M49.9,50.6c-0.1-0.1-0.1-0.2-0.2-0.3c-3.4-5.6-6.8-11.2-10.2-16.7
			c-0.1-0.2-0.3-0.3-0.5-0.3c-2.3,0-4.5,0-6.8,0c-0.1,0-0.2,0-0.4,0c0.1,0.1,0.1,0.2,0.2,0.3c3.2,5.6,6.4,11.2,9.6,16.8
			c0.1,0.2,0.3,0.3,0.5,0.3c2.3,0,4.6,0,6.9,0C49.2,50.6,49.5,50.6,49.9,50.6z M21.8,58.7c0.1-0.1,0.1-0.1,0.1-0.2
			c3.5-6,7-12.1,10.4-18.1c0.1-0.2,0.1-0.4,0-0.5c-0.9-1.6-1.9-3.2-2.8-4.9c-0.1-0.1-0.1-0.2-0.2-0.3c-0.1,0.1-0.1,0.1-0.1,0.2
			C25.9,40.9,22.4,47,19,53.1c-0.1,0.2-0.1,0.4,0,0.5c0.9,1.6,1.8,3.2,2.6,4.8C21.7,58.5,21.8,58.6,21.8,58.7z M38.5,50.6
			c-1.5-2.6-2.9-5.1-4.4-7.7c-1.5,2.6-2.9,5.1-4.4,7.7C32.7,50.6,35.6,50.6,38.5,50.6z"/>
	</g>
</g>
</svg>
