<?xml version="1.0" encoding="utf-8"?>
<!-- Generator: Adobe Illustrator 23.1.1, SVG Export Plug-In . SVG Version: 6.00 Build 0)  -->
<svg version="1.1" id="Layer_1" xmlns="http://www.w3.org/2000/svg" xmlns:xlink="http://www.w3.org/1999/xlink" x="0px" y="0px"
	 viewBox="0 0 72 72" style="enable-background:new 0 0 72 72;" xml:space="preserve">
<style type="text/css">
	.st0{fill:#2D2B2B;}
</style>
<path class="st0" d="M24.5,16.3c-1.9,0-3.7,1-4.5,2.8c0,0,0,0,0,0l-2.8,5.4c0,0,0,0.1,0,0.1c0,0,0,0,0,0c0,0,0,0,0,0
	c-0.5,0.8-0.7,1.8-0.7,2.8v22.3c0,3.3,2.7,6,6,6h24c3.3,0,6-2.7,6-6V27.4c0-1-0.3-1.9-0.7-2.8c0-0.1,0-0.2-0.1-0.3L48.7,19
	c0,0,0,0,0,0h0c-0.8-1.7-2.6-2.7-4.5-2.7H24.5z M24.5,18h19.7c1.3,0,2.5,0.7,3,1.8l1,2c-0.6-0.2-1.2-0.3-1.9-0.3h-24
	c-0.6,0-1.3,0.1-1.8,0.3l1-1.9c0,0,0,0,0,0C22,18.7,23.2,18,24.5,18z M34.9,18.8c-0.6,0-1.2,0.1-1.7,0.2c-0.8,0.3-0.9,0.5-0.9,0.7
	s0.1,0.5,0.9,0.7c0.5,0.1,1.1,0.2,1.7,0.2c0.7,0,1.3-0.1,1.7-0.2c0.8-0.3,0.9-0.5,0.9-0.7s-0.1-0.5-0.9-0.7
	C36.1,18.9,35.5,18.8,34.9,18.8z M22.4,23.1h24c2.4,0,4.3,1.9,4.3,4.3v22.3c0,2.4-1.9,4.3-4.3,4.3h-24c-2.4,0-4.3-1.9-4.3-4.3V27.4
	C18.1,25.1,20,23.1,22.4,23.1z M42.1,28.3c-1.4,0-2.6,1.2-2.6,2.6s1.2,2.6,2.6,2.6s2.6-1.2,2.6-2.6S43.5,28.3,42.1,28.3z M34.4,36
	c-1.4,0-2.6,1.2-2.6,2.6c0,1.4,1.2,2.6,2.6,2.6s2.6-1.2,2.6-2.6C36.9,37.2,35.8,36,34.4,36z M26.6,43.7c-1.4,0-2.6,1.2-2.6,2.6
	s1.2,2.6,2.6,2.6s2.6-1.2,2.6-2.6S28.1,43.7,26.6,43.7z"/>
</svg>
