<?xml version="1.0" encoding="utf-8"?>
<!-- Generator: Adobe Illustrator 23.1.1, SVG Export Plug-In . SVG Version: 6.00 Build 0)  -->
<svg version="1.1" id="Layer_1" xmlns="http://www.w3.org/2000/svg" xmlns:xlink="http://www.w3.org/1999/xlink" x="0px" y="0px"
	 viewBox="0 0 72 72" style="enable-background:new 0 0 72 72;" xml:space="preserve">
<style type="text/css">
	.st0{fill:#2D2B2B;}
</style>
<path class="st0" d="M13.4,17.3c-1.3,0-2.3,1.1-2.3,2.3v28c0,1.3,1.1,2.3,2.3,2.3h28.8c1.8,2.8,4.9,4.7,8.5,4.7
	c5.6,0,10.1-4.5,10.1-10.1c0-3.6-1.9-6.7-4.7-8.5V19.6c0-1.3-1.1-2.3-2.3-2.3H13.4z M13.4,18.9h40.5c0.4,0,0.8,0.3,0.8,0.8v0.9
	L34.6,35.2c-0.5,0.4-1.3,0.4-1.8,0L12.6,20.6v-0.9C12.6,19.2,13,18.9,13.4,18.9z M12.6,22.5l19.2,13.9c0.5,0.4,1.2,0.6,1.8,0.6
	s1.3-0.2,1.8-0.6l19.2-13.9v12.7c-1.2-0.5-2.5-0.8-3.9-0.8c-2,0-3.8,0.6-5.4,1.5l-3.6-2.2c-0.4-0.2-0.8-0.1-1.1,0.3
	c-0.2,0.4-0.1,0.8,0.3,1.1l3.1,1.9c-2.1,1.9-3.4,4.6-3.4,7.6c0,1.4,0.3,2.7,0.8,3.9h-28c-0.4,0-0.8-0.3-0.8-0.8v-4.2l13.7-8.3
	c0.4-0.2,0.5-0.7,0.3-1.1c-0.2-0.4-0.7-0.5-1.1-0.3l-12.9,7.8V22.5z M50.8,36c1.4,0,2.7,0.3,3.9,0.9c0.6,0.3,1.1,0.6,1.6,1
	c1.9,1.6,3.1,4,3.1,6.6c0,4.7-3.8,8.6-8.6,8.6c-2.7,0-5-1.2-6.6-3.1c-0.4-0.5-0.7-1-1-1.6c-0.6-1.2-0.9-2.5-0.9-3.9
	c0-2.7,1.3-5.2,3.3-6.7c0.5-0.4,0.9-0.7,1.5-0.9C48.1,36.3,49.4,36,50.8,36z M50.8,39.9c-0.2,0-0.4,0.1-0.6,0.2
	c-0.3,0.3-0.3,0.8,0,1.1l2.6,2.6h-7.5c-0.4,0-0.8,0.3-0.8,0.8c0,0.4,0.3,0.8,0.8,0.8h7.5l-2.6,2.6c-0.3,0.3-0.3,0.8,0,1.1
	c0.2,0.2,0.3,0.2,0.6,0.2c0.2,0,0.4-0.1,0.6-0.2l3.9-3.9c0.3-0.3,0.3-0.8,0-1.1l-3.9-3.9C51.2,40,51,39.9,50.8,39.9z"/>
</svg>
