<?xml version="1.0" encoding="utf-8"?>
<!-- Generator: Adobe Illustrator 23.1.1, SVG Export Plug-In . SVG Version: 6.00 Build 0)  -->
<svg version="1.1" id="Layer_1" xmlns="http://www.w3.org/2000/svg" xmlns:xlink="http://www.w3.org/1999/xlink" x="0px" y="0px"
	 viewBox="0 0 72 72" style="enable-background:new 0 0 72 72;" xml:space="preserve">
<style type="text/css">
	.st0{fill:#2D2B2B;}
	.st1{fill:none;}
</style>
<g>
	<path class="st0" d="M48.1,38.3c-7.1,0-12.9,5.8-12.9,12.9S41,64,48.1,64S61,58.2,61,51.1S55.2,38.3,48.1,38.3z M48.1,39.8
		c6.3,0,11.4,5.1,11.4,11.4s-5.1,11.4-11.4,11.4s-11.4-5.1-11.4-11.4S41.8,39.8,48.1,39.8z M48.1,42.7c-0.4,0-0.8,0.3-0.8,0.8v6.3
		c-0.5,0.3-0.8,0.8-0.8,1.3c0,0.8,0.7,1.5,1.5,1.5c0.6,0,1.1-0.3,1.3-0.8h3.8c0.4,0,0.8-0.3,0.8-0.8s-0.3-0.8-0.8-0.8h-3.8
		c-0.1-0.2-0.3-0.4-0.6-0.6v-6.3C48.8,43.1,48.5,42.7,48.1,42.7z M46.8,56.8c-0.4,0-0.8,0.3-0.8,0.8c0,0.4,0.3,0.8,0.8,0.8h2.6
		c0.4,0,0.8-0.3,0.8-0.8c0-0.4-0.3-0.8-0.8-0.8H46.8z"/>
	<g>
		<rect x="44.1" y="9.5" class="st1" width="1.5" height="6"/>
		<rect x="21.6" y="9.5" class="st1" width="1.5" height="6"/>
		<path class="st1" d="M35.9,42.9h-1.4v-1.4l4.3-4.5c1.7-1.8,2.1-2.4,2.1-3.4c0-1.2-1-2-2.3-2c-1.4,0-2.3,0.9-2.3,2.3v0h-1.9v0
			c0-2.3,1.8-4,4.3-4c2.4,0,4.2,1.5,4.2,3.6c0,1.3-0.7,2.5-2.8,4.6L37.3,41v0.1h0.1c2.7-2.9,6.5-4.7,10.7-4.7c2.4,0,4.6,0.6,6.6,1.6
			V22.3H12.5v30.8c0,1.3,1,2.3,2.3,2.3H34c-0.4-1.3-0.6-2.8-0.6-4.2C33.4,48.1,34.3,45.2,35.9,42.9z M29.9,42.9h-2V32.3h-0.1
			l-3.2,2.3v-2l3.4-2.4h2V42.9z"/>
		<path class="st1" d="M52.4,56.9h-0.6c0.1,0.2,0.1,0.4,0.1,0.6c0,1.4-1.1,2.6-2.6,2.6h-2.6c-1.4,0-2.6-1.1-2.6-2.6
			c0-0.2,0-0.4,0.1-0.6h-3.9c1.7,2.3,4.5,3.8,7.6,3.8c5.3,0,9.5-4.3,9.5-9.5c0-1.8-0.5-3.6-1.4-5v7C56.2,55.2,54.5,56.9,52.4,56.9z"
			/>
		<path class="st1" d="M54.7,15.5c0-1.3-1-2.3-2.3-2.3h-5.3v2.3c0,0.8-0.7,1.5-1.5,1.5h-1.5c-0.8,0-1.5-0.7-1.5-1.5v-2.3H24.6v2.3
			c0,0.8-0.7,1.5-1.5,1.5h-1.5c-0.8,0-1.5-0.7-1.5-1.5v-2.3h-5.3c-1.3,0-2.3,1-2.3,2.3v5.3h42.1V15.5z"/>
		<path class="st1" d="M46.8,54.9h2.6c0.5,0,1,0.2,1.4,0.4h1.7c1.2,0,2.2-0.9,2.2-2.1c-0.4,0.3-0.9,0.5-1.5,0.5h-3
			c-0.6,0.5-1.3,0.8-2.1,0.8c-1.8,0-3.3-1.5-3.3-3.3c0-0.8,0.3-1.5,0.8-2.1v-5.5c0-0.7,0.2-1.2,0.6-1.7c-4.3,0.9-7.6,4.8-7.6,9.3
			c0,1.5,0.4,3,1,4.2h5.8C45.8,55.1,46.3,54.9,46.8,54.9z"/>
		<path class="st1" d="M50.6,43.5v5.1h2.5c0.6,0,1.1,0.2,1.5,0.5v-4.8c-1.3-1.2-2.9-2.1-4.7-2.5C50.4,42.2,50.6,42.8,50.6,43.5z"/>
		<path class="st0" d="M37.3,41l2.8-2.9c2.1-2.2,2.8-3.3,2.8-4.6c0-2.1-1.8-3.6-4.2-3.6c-2.5,0-4.3,1.6-4.3,4v0h1.9v0
			c0-1.4,0.9-2.3,2.3-2.3c1.3,0,2.3,0.9,2.3,2c0,0.9-0.4,1.6-2.1,3.4l-4.3,4.5v1.4h1.4c0.4-0.6,0.9-1.2,1.4-1.8h-0.1V41z"/>
		<path class="st0" d="M14.8,55.4c-1.3,0-2.3-1-2.3-2.3V22.3h42.1V38c0.5,0.3,1,0.5,1.5,0.9V15.5c0-2.1-1.7-3.8-3.8-3.8h-5.3V9.5
			c0-0.8-0.7-1.5-1.5-1.5h-1.5c-0.8,0-1.5,0.7-1.5,1.5v2.3H24.6V9.5c0-0.8-0.7-1.5-1.5-1.5h-1.5c-0.8,0-1.5,0.7-1.5,1.5v2.3h-5.3
			c-2.1,0-3.8,1.7-3.8,3.8v37.6c0,2.1,1.7,3.8,3.8,3.8h19.7c-0.2-0.5-0.4-1-0.5-1.5H14.8z M44.1,9.5h1.5v6h-1.5V9.5z M21.6,9.5h1.5
			v6h-1.5V9.5z M12.5,15.5c0-1.3,1-2.3,2.3-2.3h5.3v2.3c0,0.8,0.7,1.5,1.5,1.5h1.5c0.8,0,1.5-0.7,1.5-1.5v-2.3h18.1v2.3
			c0,0.8,0.7,1.5,1.5,1.5h1.5c0.8,0,1.5-0.7,1.5-1.5v-2.3h5.3c1.3,0,2.3,1,2.3,2.3v5.3H12.5V15.5z"/>
		<polygon class="st0" points="24.6,32.5 24.6,34.6 27.8,32.3 27.9,32.3 27.9,42.9 29.9,42.9 29.9,30.2 28,30.2 		"/>
	</g>
</g>
</svg>
