<?xml version="1.0" encoding="utf-8"?>
<!-- Generator: Adobe Illustrator 23.1.1, SVG Export Plug-In . SVG Version: 6.00 Build 0)  -->
<svg version="1.1" id="Layer_1" xmlns="http://www.w3.org/2000/svg" xmlns:xlink="http://www.w3.org/1999/xlink" x="0px" y="0px"
	 viewBox="0 0 72 72" style="enable-background:new 0 0 72 72;" xml:space="preserve">
<style type="text/css">
	.st0{fill:#2D2B2B;}
</style>
<g>
	<path class="st0" d="M10.5,24.5h22.1c1,0,1.8-0.8,1.8-1.8v-7.9c0-1-0.8-1.8-1.8-1.8H10.5c-1,0-1.8,0.8-1.8,1.8v7.9
		C8.7,23.7,9.5,24.5,10.5,24.5z M10.4,14.9c0-0.1,0.1-0.1,0.1-0.1h22.1c0.1,0,0.1,0.1,0.1,0.1v7.9c0,0.1-0.1,0.1-0.1,0.1H10.5
		c-0.1,0-0.1-0.1-0.1-0.1V14.9z"/>
</g>
<g>
	<path class="st0" d="M39.3,24.5h22.1c1,0,1.8-0.8,1.8-1.8v-7.9c0-1-0.8-1.8-1.8-1.8H39.3c-1,0-1.8,0.8-1.8,1.8v7.9
		C37.5,23.7,38.3,24.5,39.3,24.5z M39.2,14.9c0-0.1,0.1-0.1,0.1-0.1h22.1c0.1,0,0.1,0.1,0.1,0.1v7.9c0,0.1-0.1,0.1-0.1,0.1H39.3
		c-0.1,0-0.1-0.1-0.1-0.1V14.9z"/>
</g>
<g>
	<path class="st0" d="M33.8,28.2c0.3-0.7,0.6-1.4,1-2c-1.1-1.4-2.6-2.4-4.2-3.1h-4.5c0,0.1-0.1,0.2-0.1,0.3c0,0.6,0.4,1,1,1
		C29.9,24.4,32.4,25.9,33.8,28.2z"/>
	<path class="st0" d="M41.5,23.1c-3.8,1.4-6.5,5.1-6.5,9.3V43l-3.3-3.3c-0.4-0.4-1-0.4-1.4,0c-0.4,0.4-0.4,1,0,1.4c0,0,0,0,0,0
		l4.9,4.9c0.2,0.3,0.5,0.4,0.8,0.4c0.3,0,0.6-0.1,0.8-0.4c0,0,0,0,0,0l4.9-4.9c0.4-0.4,0.4-1,0-1.4c-0.4-0.4-1-0.4-1.4,0
		c0,0,0,0,0,0L37,43V32.4c0-4.4,3.6-8,8-8c0.6,0,1-0.4,1-1c0-0.1,0-0.2-0.1-0.4H41.5z"/>
</g>
<g>
	<path class="st0" d="M23.7,60.3h22.1c1,0,1.8-0.8,1.8-1.8v-7.9c0-1-0.8-1.8-1.8-1.8H23.7c-1,0-1.8,0.8-1.8,1.8v7.9
		C21.9,59.5,22.7,60.3,23.7,60.3z M23.6,50.6c0-0.1,0.1-0.1,0.1-0.1h22.1c0.1,0,0.1,0.1,0.1,0.1v7.9c0,0.1-0.1,0.1-0.1,0.1H23.7
		c-0.1,0-0.1-0.1-0.1-0.1V50.6z"/>
</g>
</svg>
