<?xml version="1.0" encoding="utf-8"?>
<!-- Generator: Adobe Illustrator 25.1.0, SVG Export Plug-In . SVG Version: 6.00 Build 0)  -->
<svg version="1.1" id="Layer_1" xmlns="http://www.w3.org/2000/svg" xmlns:xlink="http://www.w3.org/1999/xlink" x="0px" y="0px"
	 viewBox="0 0 72 72" style="enable-background:new 0 0 72 72;" xml:space="preserve">
<style type="text/css">
	.st0{fill:#2D2B2B;}
</style>
<path class="st0" d="M16.1,57.1c-0.8,0-1.4-0.3-2-0.8c-0.6-0.6-0.8-1.2-0.8-2V19.9c0-0.8,0.3-1.4,0.8-2s1.2-0.8,2-0.8H56
	c0.8,0,1.4,0.3,2,0.8c0.6,0.6,0.8,1.2,0.8,2v34.4c0,0.8-0.3,1.4-0.8,2c-0.6,0.6-1.2,0.8-2,0.8H16.1z M15.5,54.8h41V19.3h-41V54.8z
	 M46.3,47.3v-2.3h2.3v2.3H46.3z M23.4,47.3v-2.3h9.2v2.3H23.4z M46.3,38.2V26.8h2.3v11.5H46.3z M23.4,38.2V36h9.2v2.3H23.4z
	 M23.4,29v-2.3h9.2V29H23.4z"/>
</svg>
