<?xml version="1.0" encoding="utf-8"?>
<!-- Generator: Adobe Illustrator 23.1.1, SVG Export Plug-In . SVG Version: 6.00 Build 0)  -->
<svg version="1.1" id="Layer_1" xmlns="http://www.w3.org/2000/svg" xmlns:xlink="http://www.w3.org/1999/xlink" x="0px" y="0px"
	 viewBox="0 0 72 72" style="enable-background:new 0 0 72 72;" xml:space="preserve">
<style type="text/css">
	.st0{fill:#2D2B2B;}
</style>
<g>
	<path class="st0" d="M13.24,14.94c-1.6,0-2.92,1.32-2.92,2.92v9.22c-0.01,0.06-0.01,0.13,0,0.19v28.77c0,0.57,0.46,1.03,1.03,1.03
		h41.2c0.37,0.01,0.71-0.19,0.9-0.51c0.18-0.32,0.18-0.71,0-1.04c-0.19-0.32-0.53-0.51-0.9-0.51H12.37V28.29h47.26v26.71H41.14
		c-0.37-0.01-0.71,0.19-0.9,0.51c-0.18,0.32-0.18,0.71,0,1.04c0.19,0.32,0.53,0.51,0.9,0.51h19.52c0.57,0,1.03-0.46,1.03-1.03V27.27
		c0.01-0.06,0.01-0.13,0-0.2v-9.21c0-1.6-1.32-2.92-2.92-2.92H13.24z M13.24,16.99h45.53c0.49,0,0.87,0.38,0.87,0.87v8.38H12.37
		v-8.38C12.37,17.37,12.74,16.99,13.24,16.99z M16.99,19.05c-1.42,0-2.57,1.15-2.57,2.57c0,1.42,1.15,2.57,2.57,2.57
		s2.57-1.15,2.57-2.57C19.56,20.2,18.41,19.05,16.99,19.05z M23.16,19.05c-1.42,0-2.57,1.15-2.57,2.57c0,1.42,1.15,2.57,2.57,2.57
		s2.57-1.15,2.57-2.57C25.72,20.2,24.57,19.05,23.16,19.05z M27.78,19.05v5.14h29.8v-5.14H27.78z M29.83,21.1h25.69v1.03H29.83
		C29.83,22.13,29.83,21.1,29.83,21.1z"/>
</g>
<path class="st0" d="M27.3,32.47c-1.43,0-2.61,1.18-2.61,2.61v13.05c0,1.43,1.18,2.61,2.61,2.61H44.7c1.43,0,2.61-1.18,2.61-2.61
	V35.08c0-1.43-1.18-2.61-2.61-2.61C44.7,32.47,27.3,32.47,27.3,32.47z M27.3,34.21H44.7c0.49,0,0.87,0.38,0.87,0.87v2.61H26.43
	v-2.61C26.43,34.59,26.81,34.21,27.3,34.21z M26.43,39.44h19.15v8.7c0,0.49-0.38,0.87-0.87,0.87H27.3c-0.49,0-0.87-0.38-0.87-0.87
	C26.43,48.14,26.43,39.44,26.43,39.44z"/>
</svg>
