<?xml version="1.0" encoding="utf-8"?>
<!-- Generator: Adobe Illustrator 23.1.1, SVG Export Plug-In . SVG Version: 6.00 Build 0)  -->
<svg version="1.1" id="Layer_1" xmlns="http://www.w3.org/2000/svg" xmlns:xlink="http://www.w3.org/1999/xlink" x="0px" y="0px"
	 viewBox="0 0 72 72" style="enable-background:new 0 0 72 72;" xml:space="preserve">
<style type="text/css">
	.st0{fill:#2D2B2B;}
</style>
<g>
	<path class="st0" d="M17,19c-1.4,0-2.6,1.1-2.6,2.6s1.1,2.6,2.6,2.6s2.6-1.1,2.6-2.6C19.7,20.2,18.5,19,17,19z"/>
	<path class="st0" d="M23.2,19c-1.4,0-2.6,1.1-2.6,2.6s1.1,2.6,2.6,2.6s2.6-1.1,2.6-2.6C25.8,20.2,24.7,19,23.2,19z"/>
	<path class="st0" d="M27.8,24.2h29.8V19H27.8V24.2z M29.8,21.2h25.7v1H29.8V21.2z"/>
	<path class="st0" d="M58.8,15H13.2c-1.6,0-2.9,1.3-2.9,2.9V27c0,0.1,0,0.1,0,0.2V56c0,0.6,0.5,1,1,1h47.4l1-2H12.5V28.3h47.3V55
		h-3.1l2,2h2c0.6,0,1-0.5,1-1V27.3c0-0.1,0-0.1,0-0.2V18C61.7,16.3,60.3,15,58.8,15z M59.7,26.3H12.5V18c0-0.5,0.3-0.9,0.8-0.9h45.5
		c0.5,0,0.9,0.4,0.9,0.9V26.3z"/>
</g>
<g>
	<path class="st0" d="M47.5,27.7v3.2h-1v-3.2c0-0.3,0.2-0.5,0.5-0.5l0,0C47.3,27.1,47.5,27.4,47.5,27.7z"/>
</g>
<path class="st0" d="M17.8,33.3c-0.6,0-1,0.4-1,1v12c0,0.6,0.4,1,1,1h16c0.6,0,1-0.4,1-1v-12c0-0.6-0.4-1-1-1H17.8z M18.8,35.3h14
	v10h-14V35.3z"/>
<g>
	<path class="st0" d="M47.2,37.1c0-0.1-0.1-0.2-0.2-0.2c-0.1,0-0.2,0.1-0.2,0.2c0,0,0,0.1,0.1,0.1h0.2
		C47.2,37.2,47.2,37.1,47.2,37.1z"/>
	<path class="st0" d="M50.2,35.7c0.6,0.3,0.8,1,0.5,1.5H55c0.6,0,1-0.4,1-1s-0.4-1-1-1h-5.6L50.2,35.7z"/>
	<path class="st0" d="M39,37.2h4.3c-0.3-0.6,0-1.2,0.5-1.5l0.8-0.5H39c-0.6,0-1,0.4-1,1S38.5,37.2,39,37.2z"/>
	<path class="st0" d="M39,41.2h2.7c-0.4-0.6-0.4-1.4,0.1-1.9l0.1-0.1H39c-0.6,0-1,0.4-1,1S38.5,41.2,39,41.2z"/>
	<path class="st0" d="M55,43.2h-3l0,0.2c0,0.6-0.5,1.1-1.2,1.1h0c-0.6,0-1.1-0.4-1.2-1l0-0.2h-5.2l0,0.2c-0.1,0.6-0.6,1-1.2,1
		c-0.7,0-1.2-0.5-1.2-1.1l0-0.2h-3c-0.6,0-1,0.4-1,1s0.4,1,1,1h16c0.6,0,1-0.4,1-1S55.6,43.2,55,43.2z"/>
	<path class="st0" d="M55,39.2h-2.9l0.1,0.1c0.3,0.3,0.4,0.7,0.4,1.1c0,0.3-0.1,0.6-0.3,0.9H55c0.6,0,1-0.4,1-1S55.6,39.2,55,39.2z"
		/>
	<path class="st0" d="M45,47.2h-6c-0.6,0-1,0.4-1,1s0.4,1,1,1h6c0.6,0,1-0.4,1-1S45.6,47.2,45,47.2z"/>
</g>
<path class="st0" d="M48.4,39.9l0.4-0.8l1.4,1.4c0.1,0.9,0.2,1.9,0.3,2.8c0,0.1,0.2,0.3,0.3,0.3c0.2,0,0.3-0.1,0.3-0.3
	c0-0.8,0.1-1.5,0.1-2.3c0.1,0,0.1-0.1,0.2-0.1l0.1-0.1c0.3-0.3,0.3-0.7,0-0.9l-2.1-2.1l0.5-0.9c0.1-0.2,0-0.4-0.2-0.5l-2.1-1.2
	c0,0-0.1,0-0.1,0v-1.8c0.4-0.2,0.8-0.6,0.8-1.2c0-0.7-0.6-1.3-1.3-1.3c-0.7,0-1.3,0.6-1.3,1.3c0,0.5,0.3,1,0.8,1.2v1.8
	c0,0-0.1,0-0.1,0l-2.1,1.2c-0.2,0.1-0.3,0.3-0.2,0.5l0.5,0.9l-2.1,2.1c-0.3,0.3-0.3,0.7,0,0.9l0.1,0.1c0.1,0.1,0.1,0.1,0.2,0.1
	c0,0.8,0.1,1.5,0.1,2.3c0,0.1,0.2,0.3,0.3,0.3c0.2,0,0.3-0.1,0.3-0.3c0.1-0.9,0.2-1.9,0.3-2.8l1.4-1.4l0.4,0.8
	c0.1,0.2,0.3,0.2,0.5,0.2 M46.5,32.1c0-0.3,0.2-0.5,0.5-0.5c0.3,0,0.5,0.2,0.5,0.5c0,0.3-0.2,0.5-0.5,0.5
	C46.7,32.6,46.5,32.4,46.5,32.1z M47,38.1c-0.6,0-1-0.5-1-1c0-0.6,0.5-1,1-1s1,0.5,1,1C48,37.7,47.6,38.1,47,38.1z"/>
</svg>
