<?xml version="1.0" encoding="utf-8"?>
<!-- Generator: Adobe Illustrator 23.1.1, SVG Export Plug-In . SVG Version: 6.00 Build 0)  -->
<svg version="1.1" id="Layer_1" xmlns="http://www.w3.org/2000/svg" xmlns:xlink="http://www.w3.org/1999/xlink" x="0px" y="0px"
	 viewBox="0 0 72 72" style="enable-background:new 0 0 72 72;" xml:space="preserve">
<style type="text/css">
	.st0{fill:none;}
	.st1{fill:#2D2B2B;}
</style>
<g>
	<g>
		<path class="st0" d="M42.47,47.55c-0.03,0.04-0.07,0.08-0.11,0.13l-0.63,0.69c-0.27,0.3-0.67,0.43-1.06,0.35
			c-0.39-0.08-0.7-0.37-0.82-0.75c-0.12-0.38-0.02-0.79,0.25-1.09l0.67-0.74c0.02-0.02,0.05-0.05,0.07-0.07l1.48-1.62
			c0.83-0.91,0.77-2.28-0.14-3.11c-0.91-0.83-2.28-0.77-3.11,0.14l-0.74,0.81c-0.2,0.21-0.46,0.34-0.74,0.35
			c-0.08,0.01-0.16,0.01-0.24,0.01c-0.02-0.01-0.05-0.02-0.07-0.03c-0.11-0.02-0.22-0.05-0.32-0.11c-0.13-0.08-0.24-0.18-0.33-0.3
			c-0.07-0.08-0.12-0.18-0.16-0.28c-0.01-0.03-0.02-0.08-0.03-0.12c-0.02-0.07-0.03-0.15-0.03-0.22c0.01-0.11,0.03-0.22,0.06-0.32
			c0.03-0.11,0.08-0.2,0.14-0.3c0.04-0.06,0.07-0.12,0.12-0.18l1.48-1.63c0.83-0.91,0.77-2.28-0.14-3.11
			c-0.91-0.83-2.28-0.77-3.11,0.14l-1.48,1.63c-0.2,0.21-0.46,0.34-0.74,0.35c-0.08,0.01-0.16,0.01-0.24,0.01
			c-0.02-0.01-0.05-0.02-0.07-0.03c-0.11-0.02-0.22-0.05-0.32-0.11c-0.3-0.16-0.5-0.46-0.55-0.8c-0.04-0.34,0.06-0.68,0.3-0.92
			l6.32-6.93c0.06-0.09,0.13-0.18,0.23-0.25l4.6-5.04c0.83-0.91,0.77-2.28-0.14-3.11c-0.91-0.83-2.28-0.77-3.15,0.12l-4.55,4.99
			c-0.06,0.09-0.13,0.18-0.23,0.25L21.4,41.19c-0.03,0.04-0.06,0.07-0.09,0.1c-0.01,0.01-0.03,0.04-0.05,0.05
			c-0.01,0.01-0.01,0.01-0.02,0.02c-0.26,0.25-0.64,0.34-0.99,0.26c-0.04,0-0.09-0.01-0.12-0.02c-0.07-0.03-0.14-0.06-0.2-0.09
			c-0.13-0.08-0.24-0.18-0.33-0.3c-0.12-0.15-0.19-0.34-0.22-0.53c-0.01-0.03-0.01-0.06,0-0.1c0-0.07,0-0.15,0.01-0.22l-0.5-10.49
			c-0.06-1.23-1.06-2.15-2.29-2.09c-1.23,0.06-2.15,1.06-2.09,2.29l0.78,17.69c0.15,3.22,1.57,6.24,3.94,8.41l5.93,5.41
			c3.16,2.89,8.02,2.66,10.91-0.5l9.66-10.58c0.83-0.91,0.77-2.28-0.14-3.11C44.67,46.58,43.3,46.64,42.47,47.55z"/>
		<polygon class="st0" points="41.3,29.26 41.31,29.26 42,28.49 		"/>
		<path class="st1" d="M51.98,6.16H31.64c-4.22,0-7.67,3.45-7.67,7.67V32.2l1.78-1.95V13.83c0-3.26,2.62-5.89,5.89-5.89h20.34
			c3.26,0,5.89,2.62,5.89,5.89V30.6c0,3.26-2.62,5.89-5.89,5.89h-9.13c0.03,0.17,0.07,0.33,0.09,0.5c0.79,0.27,1.5,0.69,2.12,1.25
			c0.01,0.01,0.02,0.02,0.03,0.03h6.88c2.36,0,4.48-1.08,5.89-2.76v1.34c0,3.26-2.62,5.89-5.89,5.89h-4.86
			c0.01,0.21,0.01,0.43-0.01,0.64c0.48,0.25,0.94,0.57,1.35,0.95c0.07,0.06,0.13,0.13,0.19,0.2h3.32c4.22,0,7.67-3.45,7.67-7.67
			V13.83C59.65,9.61,56.2,6.16,51.98,6.16z"/>
		<polygon class="st1" points="42.37,28.09 42,28.49 42.37,28.09 		"/>
	</g>
	<g>
		<path class="st1" d="M44.77,44.69c0.72-1.67,0.36-3.68-1.06-4.97c-0.81-0.73-1.81-1.06-2.82-1.09c0.31-1.48-0.12-3.09-1.32-4.18
			c-0.6-0.55-1.31-0.87-2.04-1.03l1.98-2.16c0,0,0,0,0,0l1.8-2c0,0-0.01,0-0.01,0l0.7-0.77l0.36-0.4l0,0l2.25-2.47
			c1.63-1.79,1.51-4.59-0.28-6.23s-4.59-1.51-6.23,0.28l-3.32,3.64c0,0,0,0,0-0.01l-1.81,1.99c0,0,0,0,0,0.01L21.5,37.87l-0.34-8.05
			c-0.11-2.42-2.19-4.31-4.6-4.2s-4.31,2.19-4.2,4.6l0.78,17.69c0.17,3.8,1.84,7.37,4.65,9.93l5.93,5.41
			c4.03,3.68,10.33,3.39,14.01-0.64l9.66-10.58c1.63-1.79,1.51-4.59-0.28-6.23C46.43,45.18,45.62,44.81,44.77,44.69z M45.72,50.51
			L36.06,61.1c-2.89,3.16-7.74,3.38-10.91,0.5l-5.93-5.41c-2.38-2.17-3.8-5.18-3.94-8.41L14.5,30.09c-0.06-1.23,0.86-2.23,2.09-2.29
			c1.23-0.06,2.23,0.86,2.29,2.09l0.5,10.49c-0.01,0.07-0.01,0.15-0.01,0.22c-0.01,0.04,0,0.06,0,0.1c0.03,0.19,0.1,0.38,0.22,0.53
			c0.09,0.12,0.2,0.22,0.33,0.3c0.07,0.03,0.13,0.06,0.2,0.09c0.04,0.01,0.08,0.02,0.12,0.02c0.35,0.08,0.72-0.02,0.99-0.26
			c0.01-0.01,0.01-0.01,0.02-0.02c0.01-0.01,0.03-0.04,0.05-0.05c0.03-0.04,0.06-0.07,0.09-0.1l13.52-14.82
			c0.1-0.08,0.17-0.16,0.23-0.25l4.55-4.99c0.87-0.88,2.24-0.94,3.15-0.12c0.91,0.83,0.97,2.2,0.14,3.11l-4.6,5.04
			c-0.1,0.08-0.17,0.16-0.23,0.25l-6.32,6.93c-0.24,0.24-0.34,0.58-0.3,0.92c0.04,0.34,0.25,0.63,0.55,0.8
			c0.1,0.05,0.22,0.09,0.32,0.11c0.02,0.01,0.05,0.02,0.07,0.03c0.08,0,0.16,0,0.24-0.01c0.28-0.01,0.55-0.14,0.74-0.35l1.48-1.63
			c0.83-0.91,2.2-0.97,3.11-0.14c0.91,0.83,0.97,2.2,0.14,3.11l-1.48,1.63c-0.05,0.05-0.08,0.12-0.12,0.18
			c-0.06,0.09-0.1,0.19-0.14,0.3c-0.04,0.1-0.05,0.21-0.06,0.32c0,0.07,0.01,0.15,0.03,0.22c0,0.04,0.02,0.08,0.03,0.12
			c0.04,0.1,0.09,0.2,0.16,0.28c0.09,0.12,0.2,0.22,0.33,0.3c0.1,0.05,0.22,0.09,0.32,0.11c0.02,0.01,0.05,0.02,0.07,0.03
			c0.08,0,0.16,0,0.24-0.01c0.28-0.01,0.55-0.14,0.74-0.35l0.74-0.81c0.83-0.91,2.2-0.97,3.11-0.14c0.91,0.83,0.97,2.2,0.14,3.11
			l-1.48,1.62c-0.02,0.02-0.05,0.05-0.07,0.07l-0.67,0.74c-0.27,0.3-0.37,0.7-0.25,1.09c0.12,0.38,0.43,0.67,0.82,0.75
			c0.39,0.08,0.79-0.05,1.06-0.35l0.63-0.69c0.04-0.04,0.08-0.09,0.11-0.13c0.83-0.91,2.2-0.97,3.11-0.14
			C46.49,48.23,46.55,49.6,45.72,50.51z"/>
	</g>
</g>
</svg>
