<?xml version="1.0" encoding="utf-8"?>
<!-- Generator: Adobe Illustrator 25.1.0, SVG Export Plug-In . SVG Version: 6.00 Build 0)  -->
<svg version="1.1" id="Layer_1" xmlns="http://www.w3.org/2000/svg" xmlns:xlink="http://www.w3.org/1999/xlink" x="0px" y="0px"
	 viewBox="0 0 72 72" style="enable-background:new 0 0 72 72;" xml:space="preserve">
<style type="text/css">
	.st0{fill:#2D2B2B;}
	.st1{fill:#FFFFFF;}
</style>
<path class="st0" d="M44.5,45.1c-0.7-0.7-1.9-0.7-2.6,0l-4.3,4.3V37.9v-3.7v-3.7c0-1.1-0.9-1.9-1.9-1.9c-0.9,0-1.9,0.9-1.9,1.9v3.7
	v3.7v11.3l-4.3-4.1c-0.7-0.7-1.9-0.7-2.6,0c-0.7,0.7-0.7,1.9,0,2.6l7.4,7.4c0.4,0.4,0.9,0.6,1.3,0.6c0.4,0,0.9-0.2,1.3-0.6l7.4-7.4
	C45.2,47,45.2,45.9,44.5,45.1z"/>
<g>
	<path class="st1" d="M48.3,31.8c-0.8,0-1.6-0.3-2.2-0.9c-0.6-0.6-1.1-1.1-1.7-1.7l-2-2c-1.1-1.1-1.1-2.7,0-3.8
		c0.3-0.3,0.6-0.6,0.9-0.9c0.5-0.5,1.2-0.8,1.9-0.8c0.7,0,1.4,0.3,1.9,0.8l0.7,0.7l3.9-5.7c0.5-0.8,1.3-1.2,2.2-1.2
		c0.5,0,1,0.2,1.5,0.5c0.4,0.2,0.7,0.5,1.1,0.7c1.2,0.9,1.5,2.5,0.7,3.7l-6.2,9.2C50.2,31.3,49.3,31.8,48.3,31.8z"/>
	<path class="st0" d="M48.1,26.3c-0.1-0.1-0.1-0.1-0.1-0.1c-0.7-0.7-1.5-1.5-2.2-2.2c-0.3-0.3-0.7-0.3-1,0c-0.3,0.3-0.6,0.6-0.9,0.9
		c-0.3,0.3-0.3,0.7,0,1c0.4,0.4,0.8,0.8,1.1,1.1c0.8,0.8,1.7,1.7,2.5,2.5c0.5,0.5,1.2,0.5,1.6-0.2c0.6-0.8,1.1-1.7,1.7-2.5
		c1.5-2.2,3-4.5,4.5-6.7c0.2-0.3,0.2-0.7-0.2-0.9c-0.3-0.2-0.7-0.5-1-0.7c-0.3-0.2-0.7-0.2-0.9,0.2c-1.3,1.9-2.6,3.8-3.9,5.7
		C48.9,25,48.5,25.7,48.1,26.3z"/>
	<g>
		<path class="st0" d="M12.2,32v-2.3c0-1.4,1.1-2.5,2.5-2.5h27.7l0,0c-0.7-0.7-0.9-1.5-0.8-2.4h-27c-2.7,0-4.9,2.2-4.9,4.9V32
			c0,2.7,2.2,4.9,4.9,4.9h17.1v-2.4H14.7C13.4,34.5,12.2,33.4,12.2,32z"/>
		<path class="st0" d="M57.1,24.8h-2.5L53,27.2h4.1c1.4,0,2.5,1.1,2.5,2.5V32c0,1.4-1.1,2.5-2.5,2.5H39.7v2.4h17.4
			c2.7,0,4.9-2.2,4.9-4.9v-2.3C62,27,59.8,24.8,57.1,24.8z"/>
	</g>
	<path class="st0" d="M48.1,26.3c0.4-0.7,0.9-1.3,1.3-1.9c1.3-1.9,2.6-3.8,3.9-5.7c0.2-0.3,0.6-0.4,0.9-0.2c0.3,0.2,0.7,0.5,1,0.7
		c0.3,0.2,0.4,0.6,0.2,0.9c-1.5,2.2-3,4.5-4.5,6.7c-0.6,0.8-1.1,1.7-1.7,2.5c-0.4,0.6-1.1,0.7-1.6,0.2c-0.8-0.8-1.7-1.7-2.5-2.5
		c-0.4-0.4-0.8-0.8-1.1-1.1c-0.3-0.3-0.3-0.7,0-1c0.3-0.3,0.6-0.6,0.9-0.9c0.3-0.3,0.7-0.3,1,0c0.7,0.7,1.5,1.5,2.2,2.2
		C48,26.2,48,26.3,48.1,26.3z"/>
</g>
</svg>
