<?xml version="1.0" encoding="utf-8"?>
<!-- Generator: Adobe Illustrator 23.1.1, SVG Export Plug-In . SVG Version: 6.00 Build 0)  -->
<svg version="1.1" id="Layer_1" xmlns="http://www.w3.org/2000/svg" xmlns:xlink="http://www.w3.org/1999/xlink" x="0px" y="0px"
	 viewBox="0 0 72 72" style="enable-background:new 0 0 72 72;" xml:space="preserve">
<style type="text/css">
	.st0{fill:#2D2B2B;}
</style>
<g id="DhMakl_1_">
	<g>
		<path class="st0" d="M35.9,34.3c0.6,0,1.1,0,1.5,0c6.1,0,12.2,0,18.3,0c1.6,0,1.8,0.2,1.8,1.8c0,6,0,11.9,0,17.9
			c0,1.5-0.3,1.8-1.8,1.8c-10.2,0-20.4,0-30.5,0c-1.6,0-1.8-0.2-1.8-1.8c0-2,0-3.9,0-6.1c-2.3,0-4.5,0-6.7,0c-2.3,0-2.4-0.1-2.4-2.3
			c0-9.2,0-18.3,0-27.5c0-1.7,0.2-1.9,2-1.9c5.9,0,11.8,0,17.7,0c1.8,0,1.9,0.1,1.9,2c0,4.9,0,9.8,0,14.6
			C35.9,33.2,35.9,33.7,35.9,34.3z M55.3,36.6c-9.9,0-19.6,0-29.4,0c0,5.7,0,11.3,0,16.9c9.8,0,19.6,0,29.4,0
			C55.3,47.9,55.3,42.3,55.3,36.6z M16.8,45.6c2.3,0,4.4,0,6.7,0c0-3.2,0-6.3,0-9.5c0-1.6,0.2-1.8,1.8-1.8c2.8,0,5.5,0,8.4,0
			c0-5.4,0-10.6,0-15.9c-5.7,0-11.3,0-16.9,0"/>
	</g>
</g>
</svg>
