<?xml version="1.0" encoding="utf-8"?>
<!-- Generator: Adobe Illustrator 25.1.0, SVG Export Plug-In . SVG Version: 6.00 Build 0)  -->
<svg version="1.1" id="Layer_1" xmlns="http://www.w3.org/2000/svg" xmlns:xlink="http://www.w3.org/1999/xlink" x="0px" y="0px"
	 viewBox="0 0 72 72" style="enable-background:new 0 0 72 72;" xml:space="preserve">
<style type="text/css">
	.st0{fill:#2D2B2B;}
</style>
<path class="st0" d="M36,58.4c-3,0-6-0.6-8.7-1.8c-2.7-1.2-5.1-2.8-7.1-4.8c-2-2-3.6-4.4-4.8-7.1c-1.2-2.7-1.8-5.6-1.8-8.7
	c0-3,0.6-6,1.8-8.7c1.2-2.7,2.8-5.1,4.8-7.1c2-2,4.4-3.6,7.1-4.8c2.7-1.2,5.6-1.8,8.7-1.8c3.1,0,6,0.6,8.7,1.8
	c2.7,1.2,5.1,2.8,7.1,4.8c2,2,3.6,4.4,4.8,7.1c1.2,2.7,1.8,5.6,1.8,8.7c0,3.1-0.6,6-1.8,8.7c-1.2,2.7-2.8,5.1-4.8,7.1
	s-4.4,3.6-7.1,4.8C42,57.8,39.1,58.4,36,58.4z M36,15.9c-5.5,0-10.3,2-14.2,5.9c-3.9,3.9-5.9,8.7-5.9,14.2c0,5.6,2,10.4,5.9,14.3
	c3.9,3.9,8.7,5.9,14.2,5.9c5.6,0,10.4-2,14.3-5.9s5.9-8.7,5.9-14.3c0-5.5-2-10.3-5.9-14.2C46.4,17.9,41.6,15.9,36,15.9z M29.4,36
	l9.1-9.1l1.6,1.6l-7,7c-0.1,0.1-0.2,0.3-0.2,0.4s0.1,0.3,0.2,0.4l7,7l-1.6,1.6L29.4,36z"/>
</svg>
