<?xml version="1.0" encoding="utf-8"?>
<!-- Generator: Adobe Illustrator 25.1.0, SVG Export Plug-In . SVG Version: 6.00 Build 0)  -->
<svg version="1.1" id="Layer_1" xmlns="http://www.w3.org/2000/svg" xmlns:xlink="http://www.w3.org/1999/xlink" x="0px" y="0px"
	 viewBox="0 0 72 72" style="enable-background:new 0 0 72 72;" xml:space="preserve">
<style type="text/css">
	.st0{fill:none;stroke:#2D2B2B;stroke-width:1.8;stroke-miterlimit:10;}
	.st1{fill:#2D2B2B;}
</style>
<path class="st0" d="M35.7,30h-15c-0.2,0-0.3-0.1-0.3-0.4V17.8c0-0.4,0.3-0.8,0.6-0.8h14.8c0.2,0,0.3,0.1,0.3,0.4v12.2
	C36,29.9,35.9,30,35.7,30z"/>
<path class="st0" d="M57.6,30H36V17h21c0.3,0,0.6,0.4,0.6,0.8V30z"/>
<rect x="20.4" y="30" class="st0" width="15.6" height="13"/>
<rect x="36" y="30" class="st0" width="21.6" height="13"/>
<path class="st0" d="M36,56H21c-0.3,0-0.6-0.4-0.6-0.8V43H36V56z"/>
<path class="st0" d="M57,56H36V43h21.6v12.2C57.6,55.7,57.4,56,57,56z"/>
<path class="st1" d="M14.3,27.3h-1.6v-5.5h-1.9v-1.1c0.5,0,0.8-0.1,1-0.1c0.3-0.1,0.6-0.2,0.8-0.4c0.1-0.1,0.2-0.3,0.3-0.6
	c0-0.1,0.1-0.3,0.1-0.3h1.3V27.3z"/>
<path class="st1" d="M13.9,34c-0.2-0.2-0.5-0.3-0.8-0.3c-0.5,0-0.8,0.2-1,0.5c-0.1,0.2-0.2,0.5-0.2,1h-1.5c0-0.7,0.1-1.2,0.4-1.7
	c0.4-0.8,1.2-1.2,2.2-1.2c0.8,0,1.5,0.2,2,0.7s0.8,1.1,0.8,1.9c0,0.6-0.2,1.1-0.5,1.6c-0.2,0.3-0.6,0.6-1.1,1L13.5,38
	c-0.4,0.3-0.7,0.5-0.8,0.6c-0.1,0.1-0.3,0.3-0.4,0.4h3.5v1.4h-5.5c0-0.6,0.1-1.1,0.4-1.6c0.2-0.5,0.8-1.1,1.6-1.7
	c0.7-0.5,1.2-0.9,1.4-1.1c0.3-0.4,0.5-0.7,0.5-1.1C14.2,34.5,14.1,34.2,13.9,34z"/>
<path class="st1" d="M12.2,46.9c-0.2,0.2-0.3,0.6-0.3,0.9h-1.5c0-0.4,0.1-0.8,0.2-1.1c0.1-0.3,0.3-0.6,0.6-0.9
	c0.2-0.2,0.5-0.3,0.7-0.4c0.3-0.1,0.6-0.1,1-0.1c0.8,0,1.4,0.2,1.9,0.6c0.5,0.4,0.7,0.9,0.7,1.6c0,0.5-0.1,0.9-0.4,1.2
	c-0.2,0.2-0.4,0.3-0.6,0.4c0.1,0,0.4,0.1,0.6,0.4c0.4,0.4,0.6,0.9,0.6,1.5c0,0.7-0.2,1.3-0.7,1.8c-0.5,0.5-1.2,0.8-2.1,0.8
	c-1.1,0-1.9-0.4-2.4-1.1c-0.2-0.4-0.4-0.9-0.4-1.5h1.5c0,0.3,0.1,0.6,0.2,0.8c0.2,0.4,0.5,0.6,1,0.6c0.3,0,0.6-0.1,0.8-0.3
	c0.2-0.2,0.3-0.5,0.3-0.9c0-0.5-0.2-0.9-0.6-1.1c-0.2-0.1-0.6-0.1-1.1-0.1v-1.1c0.5,0,0.9-0.1,1.1-0.1c0.4-0.2,0.5-0.5,0.5-0.9
	c0-0.3-0.1-0.6-0.3-0.7c-0.2-0.2-0.4-0.3-0.8-0.3C12.6,46.5,12.3,46.6,12.2,46.9z"/>
</svg>
