<?xml version="1.0" encoding="utf-8"?>
<!-- Generator: Adobe Illustrator 23.1.1, SVG Export Plug-In . SVG Version: 6.00 Build 0)  -->
<svg version="1.1" id="Layer_1" xmlns="http://www.w3.org/2000/svg" xmlns:xlink="http://www.w3.org/1999/xlink" x="0px" y="0px"
	 viewBox="0 0 72 72" style="enable-background:new 0 0 72 72;" xml:space="preserve">
<style type="text/css">
	.st0{fill:#2D2B2B;}
	.st1{fill:#F9F9F9;stroke:#2D2B2B;stroke-width:2;stroke-miterlimit:10;}
	.st2{fill:none;}
</style>
<g>
	<path class="st0" d="M27.6,30.6v8.9h1.8h4.5h1.8h4.5h1.7v-8.9H27.6z M33.9,37.7h-4.5v-1.8h4.5V37.7z M33.9,34.2h-4.5v-1.8h4.5V34.2
		z M40.2,37.7h-4.5v-1.8h4.5V37.7z M40.2,34.2h-4.5v-1.8h4.5V34.2z"/>
	<path class="st0" d="M35.7,41.6h-1.8h-4.5h-1.8V47h14.3v-5.4h-1.7H35.7z M33.9,45.2h-4.5v-1.8h4.5V45.2z M40.2,45.2h-4.5v-1.8h4.5
		V45.2z"/>
	<circle class="st1" cx="45.7" cy="51.7" r="6.9"/>
	<g>
		<path class="st0" d="M50.1,50.5v2.3h-8.9v-2.3H50.1z"/>
	</g>
	<g>
		<path class="st2" d="M40,24.1C39.9,24.1,39.9,24.1,40,24.1C39.9,24.1,39.9,24.1,40,24.1z"/>
		<path class="st2" d="M40.2,24.2C40.2,24.2,40.2,24.2,40.2,24.2C40.2,24.2,40.2,24.2,40.2,24.2z"/>
		<polygon class="st2" points="39.3,16.2 47.2,24.1 47.3,24.1 39.2,16 39.2,22.8 39.3,22.8 		"/>
		<path class="st2" d="M39.6,23.8c0,0-0.1-0.1-0.1-0.1C39.5,23.7,39.6,23.8,39.6,23.8z"/>
		<path class="st2" d="M40.7,24.3c-0.1,0-0.2,0-0.3,0C40.5,24.3,40.6,24.3,40.7,24.3z"/>
		<path class="st2" d="M39.3,23.3c0-0.1,0-0.1-0.1-0.2C39.3,23.2,39.3,23.3,39.3,23.3z"/>
		<path class="st2" d="M40.7,26.1c-1.8,0-3.3-1.5-3.3-3.3v-7.5H22.6c-0.7,0-1.3,0.5-1.3,1.3v34.6c0,1.1,0.9,1.9,1.9,1.9h7.7v0.1h5.2
			c-0.1-0.5-0.1-1-0.1-1.5c0-5.4,4.3-9.7,9.7-9.7c0.9,0,1.8,0.1,2.6,0.4V26.1H40.7z"/>
		<path class="st2" d="M39.5,23.6c0-0.1-0.1-0.1-0.1-0.2C39.4,23.5,39.4,23.5,39.5,23.6z"/>
		<path class="st2" d="M39.8,24C39.7,23.9,39.7,23.9,39.8,24C39.7,23.9,39.7,23.9,39.8,24z"/>
		<path class="st2" d="M39.3,23.3C39.3,23.4,39.3,23.4,39.3,23.3c0,0.1,0.1,0.2,0.1,0.3c0,0,0,0,0,0.1c0,0.1,0.1,0.1,0.1,0.1
			c0,0,0,0.1,0.1,0.1c0,0,0.1,0.1,0.1,0.1c0,0,0.1,0.1,0.1,0.1c0,0,0,0,0.1,0c0.1,0,0.1,0.1,0.2,0.1c0,0,0,0,0.1,0
			c0.1,0,0.1,0,0.2,0.1c0.1,0,0.2,0,0.3,0l6.5-0.2l-7.9-7.9v6.6h-0.1c0,0.1,0,0.2,0,0.3C39.3,23.2,39.3,23.3,39.3,23.3z"/>
		<path class="st0" d="M30.9,53.2L30.9,53.2l-7.7-0.1c-1,0-1.9-0.8-1.9-1.9V16.6c0-0.8,0.6-1.3,1.3-1.3h14.8v-0.1h-1.5v-1.7H22.5
			v-0.1c-1.7,0-3.1,1.4-3.1,3.1v34.7c0,2,1.7,3.7,3.8,3.7h6.3v-1.7H30.9z"/>
		<path class="st0" d="M37.9,15.3h-0.5v7.5c0,1.8,1.5,3.3,3.3,3.3h7.5v16.2c0.6,0.2,1.2,0.4,1.8,0.7V25.3c0-0.1,0-0.3,0-0.3v-0.3
			c0-0.2,0-0.5-0.2-0.6L39.4,13.7c-0.1-0.1-0.4-0.3-0.6-0.3h-0.3c-0.1,0-0.1,0-0.3,0c-0.1,0-0.1,0-0.1,0h-2.2v0.1h2V15.3z M39.2,16
			l8.1,8.1l-0.1,0l0.2,0.2h-6.7c-0.1,0-0.2,0-0.3,0c-0.1,0-0.2,0-0.2-0.1c0,0,0,0-0.1,0c-0.1,0-0.1-0.1-0.2-0.1c0,0,0,0-0.1,0
			c-0.1,0-0.1-0.1-0.1-0.1c0,0-0.1,0-0.1-0.1c0,0-0.1-0.1-0.1-0.1c0,0-0.1-0.1-0.1-0.1c0,0,0,0,0-0.1c0-0.1-0.1-0.1-0.1-0.2
			c0,0,0,0,0-0.1c0-0.1,0-0.1-0.1-0.2c0-0.1,0-0.2,0-0.3V16z"/>
		<path class="st0" d="M30.9,53.2v1.7h-1.4V55h7c-0.2-0.6-0.4-1.2-0.5-1.8H30.9z"/>
		<path class="st0" d="M39.9,24.1c-0.1,0-0.1-0.1-0.1-0.1C39.8,24,39.9,24,39.9,24.1z"/>
		<path class="st0" d="M40.2,24.2c-0.1,0-0.1-0.1-0.2-0.1C40,24.1,40.1,24.2,40.2,24.2z"/>
		<polygon class="st0" points="47.4,24.3 47.2,24.1 40.7,24.3 		"/>
		<path class="st0" d="M40.4,24.3c-0.1,0-0.2,0-0.2-0.1C40.3,24.2,40.4,24.3,40.4,24.3z"/>
		<path class="st0" d="M39.2,22.8c0,0.1,0,0.2,0,0.3C39.3,23,39.2,22.9,39.2,22.8z"/>
		<path class="st0" d="M39.4,23.4C39.3,23.4,39.3,23.4,39.4,23.4C39.3,23.4,39.3,23.4,39.4,23.4z"/>
		<path class="st0" d="M39.5,23.7C39.5,23.6,39.5,23.6,39.5,23.7C39.5,23.6,39.5,23.6,39.5,23.7z"/>
		<path class="st0" d="M39.7,23.9C39.6,23.9,39.6,23.8,39.7,23.9C39.6,23.8,39.6,23.9,39.7,23.9z"/>
		<rect x="29.5" y="53.2" class="st0" width="1.4" height="1.7"/>
		<polygon class="st0" points="37.4,15.2 37.4,15.3 37.9,15.3 37.9,13.5 35.9,13.5 35.9,15.2 		"/>
	</g>
</g>
</svg>
