<?xml version="1.0" encoding="utf-8"?>
<!-- Generator: Adobe Illustrator 23.1.1, SVG Export Plug-In . SVG Version: 6.00 Build 0)  -->
<svg version="1.1" id="Layer_1" xmlns="http://www.w3.org/2000/svg" xmlns:xlink="http://www.w3.org/1999/xlink" x="0px" y="0px"
	 viewBox="0 0 72 72" style="enable-background:new 0 0 72 72;" xml:space="preserve">
<style type="text/css">
	.st0{fill:#2D2B2B;}
	.st1{font-family:'Quicksand-Regular';}
	.st2{font-size:6.1px;}
</style>
<path class="st0" d="M30,17.7l-4.7,4.7l1.4,1.4l2.3-2.3v5.6c0,1.6,1.4,3,3,3h2c0.6,0,1,0.4,1,1v6h2v-6c0-0.6,0.4-1,1-1h2
	c1.6,0,3-1.4,3-3v-5.6l2.3,2.3l1.4-1.4L42,17.7l-4.7,4.7l1.4,1.4l2.3-2.3v5.6c0,0.6-0.4,1-1,1h-2c-0.8,0-1.5,0.3-2,0.8
	c-0.5-0.5-1.2-0.8-2-0.8h-2c-0.6,0-1-0.4-1-1v-5.6l2.3,2.3l1.4-1.4L30,17.7z"/>
<path class="st0" d="M57.1,37.1H14.9c-1,0-1.8,0.8-1.8,1.8v7.9c0,1,0.8,1.8,1.8,1.8h42.1c1,0,1.8-0.8,1.8-1.8v-7.9
	C58.9,37.9,58.1,37.1,57.1,37.1z M57.2,46.7c0,0.1-0.1,0.1-0.1,0.1H14.9c-0.1,0-0.1-0.1-0.1-0.1v-7.9c0-0.1,0.1-0.1,0.1-0.1h42.1
	c0.1,0,0.1,0.1,0.1,0.1V46.7z"/>
<text transform="matrix(1 0 0 1 21.6551 44.8535)" class="st1 st2">Full Name</text>
</svg>
