<?xml version="1.0" encoding="utf-8"?>
<!-- Generator: Adobe Illustrator 23.1.1, SVG Export Plug-In . SVG Version: 6.00 Build 0)  -->
<svg version="1.1" id="Layer_1" xmlns="http://www.w3.org/2000/svg" xmlns:xlink="http://www.w3.org/1999/xlink" x="0px" y="0px"
	 viewBox="0 0 72 72" style="enable-background:new 0 0 72 72;" xml:space="preserve">
<style type="text/css">
	.st0{fill:#2D2B2B;}
	.st1{fill:none;}
	.st2{enable-background:new    ;}
</style>
<path class="st0" d="M32.7,38.5c-0.4-0.4-1-0.4-1.4,0c-0.4,0.4-0.4,1,0,1.4l4,4c0.2,0.2,0.5,0.3,0.7,0.3c0.3,0,0.5-0.1,0.7-0.3l4-4
	c0.4-0.4,0.4-1,0-1.4c-0.4-0.4-1-0.4-1.4,0L37,40.8v-8.2h-2v8.1L32.7,38.5z"/>
<path class="st0" d="M36.9,30.6c0-0.6-0.5-1-1-1c-0.5,0-1,0.5-1,1v4h2L36.9,30.6L36.9,30.6z"/>
<g>
	<path class="st1" d="M40.4,24.8c0,0.8,0.7,1.5,1.5,1.5h6.6l-8.1-8.1V24.8z"/>
	<path class="st0" d="M24,15.6c-1.7,0-3.1,1.4-3.1,3.1v34.1c0,2,1.7,3.6,3.6,3.6h7.5v-1.8h-7.5c-1,0-1.9-0.8-1.9-1.9v-34
		c0-0.7,0.6-1.3,1.3-1.3h15v-1.8H24z"/>
	<path class="st0" d="M50.8,26.1L40.6,15.9c-0.2-0.2-0.4-0.3-0.7-0.3h-0.3c-0.1,0-0.2-0.1-0.3,0c-0.1,0-0.1,0-0.1,0h-2.1v1.8h1.4
		v7.4c0,1.8,1.4,3.3,3.3,3.3h7.4v24.8c0,1-0.8,1.9-1.9,1.9H31v1.8h16.5c2,0,3.6-1.6,3.6-3.6V27.3c0-0.1,0-0.3,0-0.3v-0.3
		C51.1,26.5,51,26.3,50.8,26.1z M41.9,26.3c-0.8,0-1.5-0.7-1.5-1.5v-6.5l8.1,8H41.9z"/>
</g>
<g class="st2">
	<path class="st0" d="M28.2,49c0-1.5,1.3-2.8,2.9-2.8c0.7,0,1.3,0.2,1.8,0.6c0.2,0.2,0.2,0.4,0.1,0.6c-0.2,0.2-0.4,0.2-0.6,0.1
		c-0.3-0.3-0.8-0.4-1.3-0.4c-0.5,0-1,0.2-1.4,0.6C29.3,48,29,48.5,29,49s0.2,1,0.6,1.4c0.4,0.3,0.9,0.6,1.4,0.6
		c0.5,0,0.9-0.1,1.3-0.4c0.2-0.1,0.5-0.1,0.6,0.1c0.1,0.2,0.1,0.5-0.1,0.6c-0.5,0.4-1.1,0.6-1.8,0.6C29.5,51.8,28.2,50.5,28.2,49z"
		/>
	<path class="st0" d="M34.2,50.4c0.1-0.2,0.4-0.2,0.6-0.1c0.3,0.3,0.9,0.6,1.5,0.6c0.4,0,0.7-0.1,1-0.3c0.2-0.2,0.3-0.4,0.3-0.6
		c0-0.1,0-0.2-0.1-0.2s-0.1-0.2-0.2-0.2c-0.2-0.1-0.6-0.3-1.1-0.4h0c-0.4-0.1-0.7-0.2-1-0.3c-0.3-0.1-0.6-0.3-0.7-0.6
		c-0.1-0.2-0.2-0.4-0.2-0.6c0-0.5,0.3-0.9,0.6-1.1c0.4-0.3,0.8-0.4,1.3-0.4c0.7,0,1.3,0.4,1.7,0.6c0.2,0.1,0.2,0.4,0.1,0.6
		c-0.1,0.2-0.4,0.2-0.6,0.1c-0.4-0.3-0.8-0.5-1.3-0.5c-0.4,0-0.7,0.1-0.9,0.3s-0.3,0.3-0.3,0.5c0,0.1,0,0.2,0.1,0.2s0.1,0.1,0.2,0.2
		c0.2,0.1,0.6,0.3,1,0.3h0c0.4,0.1,0.8,0.2,1.1,0.3c0.3,0.2,0.6,0.4,0.8,0.6c0.1,0.2,0.2,0.4,0.2,0.7c0,0.5-0.3,0.9-0.7,1.2
		c-0.4,0.3-0.9,0.4-1.4,0.4c-0.8,0-1.6-0.4-2-0.8C34.1,50.9,34.1,50.6,34.2,50.4z"/>
	<path class="st0" d="M41.2,51.7C41.1,51.7,41.1,51.7,41.2,51.7C41.1,51.7,41.1,51.7,41.2,51.7c-0.1-0.1-0.1-0.1-0.1-0.1
		c0,0,0,0,0,0c0,0,0,0,0-0.1L39.1,47c-0.1-0.2,0-0.5,0.2-0.6c0.2-0.1,0.5,0,0.6,0.2l1.5,3.6l1.5-3.6c0.1-0.2,0.4-0.3,0.6-0.2
		c0.2,0.1,0.3,0.3,0.2,0.6l-1.9,4.6c0,0,0,0,0,0.1c0,0,0,0,0,0c0,0,0,0,0,0s0,0,0,0c0,0,0,0,0,0c0,0,0,0,0,0s0,0-0.1,0c0,0,0,0,0,0
		c0,0,0,0-0.1,0c0,0,0,0,0,0c0,0-0.1,0-0.1,0s-0.1,0-0.1,0c0,0,0,0,0,0C41.3,51.8,41.3,51.8,41.2,51.7
		C41.2,51.8,41.2,51.8,41.2,51.7C41.2,51.8,41.2,51.8,41.2,51.7C41.2,51.8,41.2,51.7,41.2,51.7C41.2,51.7,41.2,51.7,41.2,51.7z"/>
</g>
</svg>
