<?xml version="1.0" encoding="utf-8"?>
<!-- Generator: Adobe Illustrator 23.1.1, SVG Export Plug-In . SVG Version: 6.00 Build 0)  -->
<svg version="1.1" id="Layer_1" xmlns="http://www.w3.org/2000/svg" xmlns:xlink="http://www.w3.org/1999/xlink" x="0px" y="0px"
	 viewBox="0 0 72 72" style="enable-background:new 0 0 72 72;" xml:space="preserve">
<style type="text/css">
	.st0{fill:none;}
	.st1{fill:#2D2B2B;}
</style>
<g>
	<rect x="25.2" y="38.3" class="st0" width="4.5" height="1.8"/>
	<rect x="25.2" y="41.9" class="st0" width="4.5" height="1.8"/>
	<path class="st0" d="M40.7,39.6c0-2.7,1.3-5.1,3.3-6.5v-7.3h-7.5c-1.8,0-3.3-1.5-3.3-3.3v-7.5H18.5c-0.8,0-1.3,0.6-1.3,1.3v34.4
		c0,1,0.8,1.9,1.9,1.9h13.3l9.3-9.3C41,42.2,40.7,41,40.7,39.6z M37.7,45.5H23.4V33h14.3V45.5z"/>
	<path class="st0" d="M42.1,52.7c1.1,0,1.9-0.8,1.9-1.9v-3.6l-5.5,5.5H42.1z"/>
	<path class="st0" d="M36.5,24h6.6l-8.1-8.1v6.6C35.1,23.4,35.7,24,36.5,24z"/>
	<path class="st0" d="M42.5,44.7l-8,8h1.9l7-7C43.1,45.3,42.8,45,42.5,44.7z"/>
	<path class="st0" d="M31.1,56.1c-0.2,0.2-0.2,0.3-0.2,0.4c0,0.1,0,0.3,0.2,0.4l0.1,0.1c0.2,0.2,0.3,0.2,0.4,0.2s0.3,0,0.4-0.2
		l2.6-2.6h-1.9L31.1,56.1z"/>
	<path class="st0" d="M44,43.1l-0.4,0.4c0.1,0.2,0.3,0.3,0.4,0.5V43.1z"/>
	<rect x="25.2" y="34.8" class="st0" width="4.5" height="1.8"/>
	<rect x="31.5" y="38.3" class="st0" width="4.5" height="1.8"/>
	<rect x="31.5" y="34.8" class="st0" width="4.5" height="1.8"/>
	<rect x="31.5" y="41.9" class="st0" width="4.5" height="1.8"/>
	<path class="st1" d="M23.4,45.5h14.3V33H23.4V45.5z M31.5,34.8h4.5v1.8h-4.5V34.8z M31.5,38.3h4.5v1.8h-4.5V38.3z M31.5,41.9h4.5
		v1.8h-4.5V41.9z M25.2,34.8h4.5v1.8h-4.5V34.8z M25.2,38.3h4.5v1.8h-4.5V38.3z M25.2,41.9h4.5v1.8h-4.5V41.9z"/>
	<path class="st1" d="M44,47.2v3.6c0,1-0.8,1.9-1.9,1.9h-3.6l-1.8,1.8h5.3c2,0,3.7-1.6,3.7-3.7V47c-0.4-0.1-0.8-0.3-1.1-0.5L44,47.2
		z"/>
	<path class="st1" d="M19.1,52.7c-1.1,0-1.9-0.8-1.9-1.9V16.4c0-0.7,0.6-1.3,1.3-1.3h14.8v7.5c0,1.8,1.5,3.3,3.3,3.3H44v7.3
		c0.5-0.4,1.1-0.7,1.8-1v-7c0-0.1,0-0.2,0-0.4v-0.3c0-0.2-0.1-0.5-0.3-0.6L35.2,13.5c-0.2-0.2-0.4-0.3-0.6-0.3h-0.3
		c-0.1,0-0.2,0-0.3,0c0,0-0.1,0-0.1,0H18.5c-1.7,0-3.1,1.4-3.1,3.1v34.4c0,2,1.7,3.7,3.7,3.7h11.5l1.8-1.8H19.1z M35.1,15.9l8.1,8.1
		h-6.6c-0.8,0-1.5-0.6-1.5-1.5V15.9z"/>
	<path class="st1" d="M48.6,31.6c-1,0-2,0.2-2.9,0.5v1.7c0.9-0.4,1.8-0.7,2.9-0.7c3.6,0,6.5,2.9,6.5,6.5s-2.9,6.5-6.5,6.5
		c-1,0-2-0.2-2.8-0.7l0,0v1.6c0.9,0.3,1.8,0.5,2.9,0.5c4.4,0,8-3.6,8-8S53.1,31.6,48.6,31.6z"/>
	<path class="st1" d="M40.7,39.6c0,1.4,0.3,2.7,1,3.8l1.1-1.1c-0.4-0.8-0.6-1.7-0.6-2.7c0-1.7,0.7-3.3,1.8-4.5v-2
		C42,34.5,40.7,36.9,40.7,39.6z"/>
	<path class="st1" d="M43.6,43.6l-1.1,1.1c0.3,0.3,0.6,0.7,0.9,1l0.6-0.6v-1C43.8,43.9,43.7,43.8,43.6,43.6z"/>
	<path class="st1" d="M44,35.1c0.5-0.5,1.1-1,1.8-1.3v-1.7c-0.6,0.2-1.2,0.6-1.8,1V35.1z"/>
	<path class="st1" d="M44,44.1v1l0.5-0.5C44.3,44.4,44.2,44.2,44,44.1z"/>
	<path class="st1" d="M44.7,46.5c0.4,0.2,0.7,0.4,1.1,0.5v-1.6L44.7,46.5z"/>
	<path class="st1" d="M32,57c-0.2,0.2-0.3,0.2-0.4,0.2s-0.3,0-0.4-0.2L31.1,57c-0.2-0.2-0.2-0.3-0.2-0.4c0-0.1,0-0.3,0.2-0.4
		l1.6-1.6h-2.2L30,55c-0.8,0.8-0.8,2.2,0,3l0.1,0.1c0.8,0.8,2.2,0.8,3,0l3.7-3.7h-2.2L32,57z"/>
	<path class="st1" d="M43.4,45.6l-7,7h2.2l5.5-5.5v-1.1C43.8,45.9,43.6,45.8,43.4,45.6z"/>
	<path class="st1" d="M41.6,43.4l-9.3,9.3h2.2l8-8C42.2,44.3,41.9,43.8,41.6,43.4z"/>
	<polygon class="st1" points="36.4,52.7 34.6,54.5 36.8,54.5 38.5,52.7 	"/>
	<path class="st1" d="M44,47.2l0.7-0.7c-0.2-0.1-0.5-0.3-0.7-0.4V47.2z"/>
	<polygon class="st1" points="34.5,52.7 32.3,52.7 30.5,54.5 32.7,54.5 	"/>
	<path class="st1" d="M42.8,42.2l-1.1,1.1c0.2,0.5,0.5,0.9,0.9,1.3l1.1-1.1C43.2,43.2,43,42.7,42.8,42.2z"/>
	<path class="st1" d="M44,46.1v-1l-0.6,0.6C43.6,45.8,43.8,45.9,44,46.1z"/>
	<path class="st1" d="M45.8,45.4L45.8,45.4C45.8,45.4,45.8,45.4,45.8,45.4L45.8,45.4z"/>
	<path class="st1" d="M44.5,44.5L44,45.1v1c0.2,0.2,0.4,0.3,0.7,0.4l1.1-1.1v0C45.3,45.2,44.9,44.9,44.5,44.5z"/>
</g>
</svg>
