<?xml version="1.0" encoding="utf-8"?>
<!-- Generator: Adobe Illustrator 23.1.1, SVG Export Plug-In . SVG Version: 6.00 Build 0)  -->
<svg version="1.1" id="Layer_1" xmlns="http://www.w3.org/2000/svg" xmlns:xlink="http://www.w3.org/1999/xlink" x="0px" y="0px"
	 viewBox="0 0 72 72" style="enable-background:new 0 0 72 72;" xml:space="preserve">
<style type="text/css">
	.st0{fill:#2D2B2B;}
</style>
<path class="st0" d="M26.1,46.7c0.1,0,0.3,0.1,0.3,0.1c0.3,0,0.7-0.2,0.9-0.4l16.7-16.7v9.3c0,0.4,0.3,0.9,0.7,1.1
	c0.2,0.1,0.4,0.2,0.7,0.2c0.3,0,0.5-0.1,0.7-0.2c0.4-0.3,0.7-0.7,0.7-1.1V26.6c0-0.3,0-0.7-0.3-1l-0.1-0.1h-0.1
	c-0.1,0-0.2-0.1-0.3-0.1c-0.2-0.1-0.3-0.2-0.7-0.2H33.1c-0.4,0-0.9,0.3-1.1,0.7c-0.3,0.4-0.3,0.9,0,1.4s0.7,0.7,1.1,0.7h9.2
	L25.6,44.4c-0.4,0.3-0.6,0.9-0.4,1.3S25.7,46.6,26.1,46.7z"/>
<path class="st0" d="M51.6,18.3H20.9v-0.1h-0.5c-1.2,0-2.1,0.9-2.1,2.1v31.3c0,1.2,0.9,2.1,2.1,2.1h31.3c1.2,0,2.1-0.9,2.1-2.1V20.4
	C53.8,19.3,52.8,18.3,51.6,18.3z M51.1,21v30.3H20.9V21H51.1z"/>
</svg>
