<?xml version="1.0" encoding="utf-8"?>
<!-- Generator: Adobe Illustrator 23.1.1, SVG Export Plug-In . SVG Version: 6.00 Build 0)  -->
<svg version="1.1" id="Layer_1" xmlns="http://www.w3.org/2000/svg" xmlns:xlink="http://www.w3.org/1999/xlink" x="0px" y="0px"
	 viewBox="0 0 72 72" style="enable-background:new 0 0 72 72;" xml:space="preserve">
<style type="text/css">
	.st0{fill:#2D2B2B;}
	.st1{fill:none;}
</style>
<g>
	<path class="st0" d="M27.3,17c-0.3,0-0.6,0.2-0.6,0.6v3.5h-3.5c-0.3,0-0.6,0.2-0.6,0.6s0.2,0.6,0.6,0.6l0,0h3.5v3.5
		c0,0.3,0.2,0.6,0.6,0.6s0.6-0.2,0.6-0.6l0,0v-3.5h3.5c0.3,0,0.6-0.2,0.6-0.6c0-0.3-0.2-0.6-0.6-0.6l0,0h-3.5v-3.5
		C27.9,17.2,27.6,17,27.3,17L27.3,17z"/>
	<path class="st0" d="M27.3,13.6c-4.4,0-8.1,3.6-8.1,8.1s3.6,8.1,8.1,8.1s8.1-3.6,8.1-8.1S31.7,13.6,27.3,13.6z M27.3,28.5
		c-3.8,0-6.8-3.1-6.8-6.8s3.1-6.8,6.8-6.8s6.8,3.1,6.8,6.8S31.1,28.5,27.3,28.5z"/>
	<g>
		<path class="st1" d="M42,26.8c0.1,0.6,0.6,1,1.1,1.1C42.6,27.8,42.1,27.4,42,26.8z"/>
		<polygon class="st1" points="51.2,50.2 51.2,50.2 51.2,50.2 51.2,50.2 		"/>
		<path class="st1" d="M52.6,36.3c-0.4,1.3-0.9,8.5-1.3,12.3l0,0C51.8,44.7,52.2,37.6,52.6,36.3z"/>
		<rect x="32.1" y="42.3" class="st1" width="4.5" height="1.8"/>
		<rect x="32.1" y="45.9" class="st1" width="4.5" height="1.8"/>
		<path class="st1" d="M42,26.5c0,0.1,0,0.2,0,0.3c0.1,0.6,0.6,1,1.1,1.1c0.1,0,0.2,0,0.3,0h6.6L42,19.9V26.5z"/>
		<path class="st1" d="M50.5,47.5c0.1,0.2,0.3,0.3,0.4,0.5v-0.9L50.5,47.5z"/>
		<rect x="32.1" y="38.7" class="st1" width="4.5" height="1.8"/>
		<rect x="38.4" y="42.3" class="st1" width="4.5" height="1.8"/>
		<rect x="38.4" y="38.7" class="st1" width="4.5" height="1.8"/>
		<rect x="38.4" y="45.9" class="st1" width="4.5" height="1.8"/>
		<path class="st0" d="M44.7,36.9H30.3v12.5h14.3V36.9z M36.6,47.7h-4.5v-1.8h4.5V47.7z M36.6,44.1h-4.5v-1.8h4.5V44.1z M36.6,40.5
			h-4.5v-1.8h4.5V40.5z M42.9,47.7h-4.5v-1.8h4.5V47.7z M42.9,44.1h-4.5v-1.8h4.5V44.1z M42.9,40.5h-4.5v-1.8h4.5V40.5z"/>
		<path class="st0" d="M50.9,54.7c0,1-0.8,1.9-1.9,1.9h-7.6l-1.8,1.8h1.9H49c2,0,3.7-1.6,3.7-3.7v-3c-0.7,0.3-1.3,0.8-1.8,1.3V54.7z
			"/>
		<path class="st0" d="M52.6,36.3c0-0.1,0.1-0.2,0.1-0.2v-7c0-0.1,0-0.2,0-0.4v-0.3c0-0.2-0.1-0.5-0.3-0.6L42.2,17.5
			c-0.2-0.2-0.4-0.3-0.6-0.3h-0.3c-0.1,0-0.2,0-0.3,0c0,0-0.1,0-0.1,0h-4.3V19h3.6v7.5c0,1.8,1.5,3.3,3.3,3.3h7.5v17.3V48v1l0.4-0.4
			C51.8,44.7,52.2,37.6,52.6,36.3z M43.5,28c-0.1,0-0.2,0-0.3,0c-0.6-0.1-1-0.6-1.1-1.1c0-0.1,0-0.2,0-0.3v-6.6l8.1,8.1H43.5z"/>
		<path class="st0" d="M51.2,50.2c-0.1,0-0.2-0.1-0.2-0.1v0C51,50.1,51.1,50.1,51.2,50.2C51.2,50.2,51.2,50.2,51.2,50.2z"/>
		<path class="st0" d="M22.3,54.7c0,2,1.7,3.7,3.7,3.7h11.5l1.8-1.8H26c-1.1,0-1.9-0.8-1.9-1.9V31.2h-1.8V54.7z"/>
		<path class="st0" d="M51.2,50.2c0.2,0.1,0.3,0.2,0.5,0.3l0,0C51.5,50.4,51.3,50.3,51.2,50.2C51.2,50.2,51.2,50.2,51.2,50.2z"/>
		<path class="st0" d="M51.4,48.6L51.4,48.6c0.5,0.2,0.9,0.5,1.4,0.8V36.1c0,0-0.1,0.1-0.1,0.2C52.2,37.6,51.8,44.7,51.4,48.6z"/>
		<path class="st0" d="M51.6,50.5C51.6,50.5,51.6,50.5,51.6,50.5l-0.7,0.7V53c0.5-0.5,1.1-1,1.8-1.3V51C52.3,50.8,52,50.7,51.6,50.5
			L51.6,50.5z"/>
		<path class="st0" d="M51.6,50.5c0.4,0.2,0.7,0.4,1.1,0.5v-1.6v0L51.6,50.5z"/>
		<path class="st0" d="M51.2,50.2C51.1,50.7,51,51,50.9,51C51,51,51.1,50.7,51.2,50.2C51.2,50.2,51.2,50.2,51.2,50.2z"/>
		<path class="st0" d="M50.9,50v1c0.1-0.1,0.1-0.4,0.2-0.9C51.1,50.1,51,50.1,50.9,50z"/>
		<path class="st0" d="M51.2,50.2C51.1,50.7,51,51,50.9,51v0.1l0.7-0.7C51.5,50.4,51.3,50.3,51.2,50.2z"/>
		<polygon class="st0" points="51.6,50.5 50.9,51.2 51.6,50.5 		"/>
		<polygon class="st0" points="39.3,56.6 37.5,58.4 37.5,58.4 39.3,56.6 		"/>
		<polygon class="st0" points="39.3,56.6 37.5,58.4 39.6,58.4 41.4,56.6 		"/>
		<path class="st0" d="M52.7,49.3L52.7,49.3L52.7,49.3L52.7,49.3C52.7,49.3,52.7,49.3,52.7,49.3z"/>
		<path class="st0" d="M51.4,48.6L51.4,48.6c-0.1,0.6-0.1,1.2-0.2,1.6c0,0,0,0,0,0C51.2,49.8,51.3,49.2,51.4,48.6z"/>
		<path class="st0" d="M51.4,48.6L50.9,49v1c0.1,0.1,0.2,0.1,0.2,0.1C51.2,49.8,51.3,49.2,51.4,48.6z"/>
		<path class="st0" d="M51.4,48.6c-0.1,0.6-0.1,1.2-0.2,1.6c0.2,0.1,0.3,0.2,0.5,0.3l1.1-1.1v0v0C52.3,49.1,51.8,48.8,51.4,48.6
			L51.4,48.6z"/>
	</g>
</g>
</svg>
