<?xml version="1.0" encoding="utf-8"?>
<!-- Generator: Adobe Illustrator 23.1.1, SVG Export Plug-In . SVG Version: 6.00 Build 0)  -->
<svg version="1.1" id="Layer_1" xmlns="http://www.w3.org/2000/svg" xmlns:xlink="http://www.w3.org/1999/xlink" x="0px" y="0px"
	 viewBox="0 0 72 72" style="enable-background:new 0 0 72 72;" xml:space="preserve">
<style type="text/css">
	.st0{fill:none;}
	.st1{fill:#2D2B2B;}
</style>
<g>
	<path class="st0" d="M47.4,23.6l-8-8L47.4,23.6z"/>
	<path class="st0" d="M40.9,23.6h6.5l-8-8v6.5C39.4,22.9,40,23.6,40.9,23.6z"/>
	<path class="st1" d="M31,52L31,52l-7.5-0.1c-1,0-1.9-0.8-1.9-1.9V16c0-0.7,0.6-1.3,1.3-1.3h14.6v-0.1h-1.4v-1.8H23
		c-1.7,0-3.1,1.4-3.1,3.1V50c0,2,1.7,3.6,3.6,3.6h6.4V52H31z"/>
	<polygon class="st1" points="31,53.7 29.9,53.7 29.9,53.7 36.5,53.7 36.5,52 31,52 	"/>
	<path class="st1" d="M37.5,14.7V22c0,1.8,1.4,3.3,3.3,3.3h7.4v11.6H50V24.6c0-0.1,0-0.3,0-0.3V24c0-0.3-0.1-0.5-0.3-0.7L39.6,13.2
		c-0.2-0.2-0.4-0.3-0.7-0.3h-0.3c-0.1,0-0.2-0.1-0.3,0c-0.1,0-0.1,0-0.1,0h-0.3v1.8H37.5z M39.4,22.1v-6.5l8.1,8h-0.1l0.1,0.1h-6.6
		C40,23.6,39.4,23,39.4,22.1L39.4,22.1z"/>
	<path class="st1" d="M48.2,50.1c0,0.6-0.3,1.2-0.8,1.5v2c1.5-0.4,2.6-1.8,2.6-3.5V46h-1.8V50.1z"/>
	<path class="st1" d="M40.9,23.6h6.6l-0.1-0.1L40.9,23.6c-0.8-0.1-1.5-0.7-1.5-1.6v0.1C39.4,23,40,23.6,40.9,23.6z"/>
	<polygon class="st1" points="37.5,14.7 37.5,14.7 37.9,14.7 37.9,12.9 36.1,12.9 36.1,14.7 	"/>
	<rect x="29.9" y="52" class="st1" width="1.1" height="1.7"/>
</g>
<path d="M31,25.3c-3,0-5.4,2.4-5.4,5.4s2.4,5.4,5.4,5.4c2.1,0,3.9-1.3,4.8-3.1h2.1v2.3h4.6V33H44v-4.6h-0.8h-7.5
	C35,26.6,33.2,25.3,31,25.3z M31,26.9c1.8,0,3.1,1.1,3.7,2.6l0.2,0.5h7.7v1.5H41v2.3h-1.5v-2.3h-4.6L34.7,32c-0.6,1.5-2,2.6-3.7,2.6
	c-2.1,0-3.8-1.7-3.8-3.8C27.2,28.6,28.9,26.9,31,26.9z M31,28.4c-1.3,0-2.3,1-2.3,2.3s1,2.3,2.3,2.3s2.3-1,2.3-2.3
	C33.3,29.4,32.3,28.4,31,28.4z M31,29.9c0.4,0,0.8,0.3,0.8,0.8c0,0.4-0.3,0.8-0.8,0.8s-0.8-0.3-0.8-0.8C30.3,30.3,30.6,29.9,31,29.9
	z"/>
<path d="M39.1,35.7c-0.1,0-0.2,0-0.2,0.1l-0.8,0.8c-0.1,0.1-0.1,0.5,0,0.6l2.8,2.8l-2.8,2.8c-0.1,0.1-0.1,0.5,0,0.6l0.8,0.8
	c0.1,0.1,0.5,0.1,0.6,0l2.8-2.8l2.8,2.8c0.1,0.1,0.5,0.1,0.6,0l0.8-0.8c0.1-0.1,0.1-0.5,0-0.6L43.7,40l2.8-2.8
	c0.1-0.1,0.1-0.5,0-0.6l-0.8-0.8c-0.1-0.1-0.5-0.1-0.6,0l-2.8,2.8l-2.8-2.8C39.3,35.7,39.2,35.7,39.1,35.7z"/>
<g>
	<polygon class="st0" points="37.9,42.1 37.9,40 33.9,40 33.9,40.3 40.5,47.3 44.2,47.3 50.7,40.3 50.7,40 47.5,40 47.5,42.1 	"/>
	<polygon class="st0" points="40.8,55.4 43.7,57.1 43.7,48.7 40.8,48.7 	"/>
	<path class="st1" d="M51.4,38.6h-3.9V40h3.2v0.3l-6.5,7h-3.7h-0.1l-6.5-7V40h4v-1.4h-4.8H33c-0.3,0.1-0.6,0.4-0.6,0.7v1.3
		c0,0.2,0.1,0.4,0.2,0.5l6.8,7.2v7.5c0,0.2,0.1,0.5,0.4,0.6l4.3,2.6c0.1,0.1,0.2,0.1,0.4,0.1s0.3,0,0.4-0.1c0.2-0.1,0.3-0.4,0.3-0.6
		V48.3l6.8-7.1l0.1-0.1c0.1-0.1,0.1-0.3,0.1-0.4v-1.3C52.1,38.9,51.8,38.6,51.4,38.6z M43.7,57.1l-2.9-1.7v0v-6.7h2.9V57.1z"/>
	<polygon class="st1" points="40.4,47.3 40.5,47.3 33.9,40.3 	"/>
	<polygon class="st1" points="40.8,55.4 43.7,57.1 40.8,55.4 	"/>
</g>
</svg>
