<?xml version="1.0" encoding="utf-8"?>
<!-- Generator: Adobe Illustrator 25.1.0, SVG Export Plug-In . SVG Version: 6.00 Build 0)  -->
<svg version="1.1" id="Layer_1" xmlns="http://www.w3.org/2000/svg" xmlns:xlink="http://www.w3.org/1999/xlink" x="0px" y="0px"
	 viewBox="0 0 72 72" style="enable-background:new 0 0 72 72;" xml:space="preserve">
<style type="text/css">
	.st0{fill:#FFFFFF;}
	.st1{fill:none;stroke:#2D2B2B;stroke-width:2;stroke-miterlimit:10;}
</style>
<g id="_x30_W3uvk_1_">
	<g>
		<g>
			<path class="st0" d="M124.8,15.6c86.7,0,173.3,0,260,0c0,93.3,0,186.7,0,280c-86.7,0-173.3,0-260,0
				C124.8,202.3,124.8,108.9,124.8,15.6z M215.5,103.5c0,15.8-0.2,31,0.1,46.3c0.1,5.2,4.4,8.8,9.8,8.8c17.1,0.1,34.3,0.1,51.4,0
				c5.2,0,9.7-3.8,9.8-8.8c0.3-15.3,0.1-30.5,0.1-46.3c-5,0-9.6,0.2-14.2-0.1c-1.7-0.1-4.3-1.1-4.8-2.3c-2.9-6.9-8.2-8.3-14.8-7.5
				c-2.3,0.3-4.7,0.3-7,0c-4.8-0.8-7.9,1.1-9.9,5.4c-1.6,3.6-4.3,5-8.3,4.6C223.8,103.2,219.8,103.5,215.5,103.5z M309.4,71.2
				c-11,0-21.4,0-32.1,0c0,2.2,0,4,0,6.5c8.7,0,17.1,0,25.8,0c0,8.8,0,17.1,0,25.5c2.3,0,4.2,0,6.3,0
				C309.4,92.5,309.4,82.1,309.4,71.2z M224.6,77.5c0-2.5,0-4.3,0-6.2c-10.8,0-21.2,0-31.6,0c0,10.9,0,21.4,0,31.9
				c2.1,0,3.9,0,6.2,0c0-8.7,0-17.1,0-25.7C207.9,77.5,216.1,77.5,224.6,77.5z M277.3,181.6c0,2.4,0,4.1,0,6c10.8,0,21.4,0,32.1,0
				c0-10.8,0-21.2,0-31.7c-2.2,0-4.1,0-6.6,0c0,8.7,0,17.1,0,25.7C294,181.6,285.9,181.6,277.3,181.6z M192.9,155.7
				c0,11,0,21.4,0,32c10.7,0,21.1,0,31.6,0c0-2.2,0-4,0-6.4c-8.7,0-16.9,0-25.8,0c0-8.9,0-17.2,0-25.6
				C196.5,155.7,194.9,155.7,192.9,155.7z"/>
			<path d="M215.5,103.5c4.3,0,8.3-0.3,12.2,0.1c4,0.4,6.7-0.9,8.3-4.6c1.9-4.3,5-6.2,9.9-5.4c2.3,0.4,4.7,0.3,7,0
				c6.7-0.9,11.9,0.6,14.8,7.5c0.5,1.3,3.1,2.2,4.8,2.3c4.6,0.3,9.2,0.1,14.2,0.1c0,15.8,0.2,31-0.1,46.3c-0.1,5-4.6,8.8-9.8,8.8
				c-17.1,0.1-34.3,0.1-51.4,0c-5.3,0-9.6-3.6-9.8-8.8C215.3,134.6,215.5,119.3,215.5,103.5z M221.8,110.4c0,12.7,0,24.8,0,37
				c0,4,2.5,5,5.9,5c15.5,0,31-0.1,46.5,0c4.6,0,6.2-2,6.1-6.4c-0.2-8.8,0-17.7,0-26.5c0-3.1,0-6.2,0-9.5c-4,0-7.2-0.2-10.3,0.1
				c-3.2,0.3-5.6-0.6-6.8-3.7c-2.1-5.3-6.2-6.8-11.5-6.1c-2,0.3-4-0.2-6,0.1c-1.3,0.2-3.3,0.8-3.7,1.7c-3.1,7.6-9,8.8-16.2,7.8
				C224.7,109.9,223.5,110.2,221.8,110.4z"/>
			<path d="M309.4,71.2c0,10.9,0,21.3,0,32c-2.1,0-4,0-6.3,0c0-8.4,0-16.7,0-25.5c-8.8,0-17.2,0-25.8,0c0-2.5,0-4.3,0-6.5
				C288,71.2,298.4,71.2,309.4,71.2z"/>
			<path d="M224.6,77.5c-8.5,0-16.6,0-25.3,0c0,8.6,0,17,0,25.7c-2.4,0-4.1,0-6.2,0c0-10.5,0-21,0-31.9c10.4,0,20.8,0,31.6,0
				C224.6,73.2,224.6,75.1,224.6,77.5z"/>
			<path d="M277.3,181.6c8.6,0,16.7,0,25.5,0c0-8.6,0-17,0-25.7c2.5,0,4.4,0,6.6,0c0,10.5,0,20.9,0,31.7c-10.7,0-21.2,0-32.1,0
				C277.3,185.7,277.3,184,277.3,181.6z"/>
			<path d="M192.9,155.7c1.9,0,3.6,0,5.8,0c0,8.3,0,16.7,0,25.6c8.9,0,17.1,0,25.8,0c0,2.3,0,4.2,0,6.4c-10.5,0-20.9,0-31.6,0
				C192.9,177.1,192.9,166.7,192.9,155.7z"/>
			<path class="st0" d="M221.8,110.4c1.7-0.2,2.8-0.5,3.9-0.4c7.1,1,13.1-0.2,16.2-7.8c0.4-0.9,2.4-1.6,3.7-1.7c2-0.3,4,0.2,6-0.1
				c5.4-0.8,9.4,0.8,11.5,6.1c1.2,3.1,3.6,3.9,6.8,3.7c3.1-0.3,6.3-0.1,10.3-0.1c0,3.4,0,6.4,0,9.5c0,8.8-0.1,17.7,0,26.5
				c0.1,4.4-1.6,6.4-6.1,6.4c-15.5-0.1-31-0.1-46.5,0c-3.5,0-5.9-0.9-5.9-5C221.8,135.2,221.8,123.1,221.8,110.4z M251,145.7
				c9,0,16.2-7,16.3-16c0.1-9.2-7.2-16.4-16.5-16.3c-9,0.1-16,7.3-16,16.3C234.9,138.6,242,145.7,251,145.7z"/>
			<path d="M251,145.7c-9,0-16.2-7.1-16.2-16.1c0-9,7.1-16.2,16-16.3c9.3-0.1,16.5,7.1,16.5,16.3C267.2,138.6,260,145.7,251,145.7z
				 M251.2,119.7c-5.3-0.1-9.8,4.3-9.8,9.8c0,5.2,4.1,9.5,9.3,9.8c5.3,0.3,10-4.2,10.1-9.5C260.9,124.5,256.5,119.8,251.2,119.7z"/>
			<path class="st0" d="M251.2,119.7c5.3,0.1,9.7,4.8,9.6,10.1c-0.1,5.3-4.8,9.8-10.1,9.5c-5.2-0.3-9.3-4.6-9.3-9.8
				C241.5,124.1,245.9,119.6,251.2,119.7z"/>
		</g>
	</g>
</g>
<path class="st1" d="M44,123.1"/>
<path class="st1" d="M53.9,123.1"/>
<g>
	<path class="st1" d="M42,16.6"/>
	<path class="st1" d="M30.8,16.6"/>
	<g>
		<path class="st1" d="M55.4,41.6v9.5c0,2.4-1.9,4.3-4.3,4.3h-9.5"/>
		<g>
			<path class="st1" d="M30.4,55.4h-9.5c-2.4,0-4.3-1.9-4.3-4.3v-9.5"/>
			<path class="st1" d="M41.6,16.6h9.5c2.4,0,4.3,1.9,4.3,4.3v9.4"/>
			<path class="st1" d="M16.6,30.3v-9.4c0-2.4,1.9-4.3,4.3-4.3h9.5"/>
		</g>
	</g>
	<g>
		<path class="st1" d="M45,28.9h-4.2v0c0-1.5-1.2-2.7-2.7-2.7h-4.4c-1.5,0-2.7,1.2-2.7,2.7v0H27c-1.5,0-2.7,1.2-2.7,2.7v9
			c0,1.5,1.2,2.7,2.7,2.7H45c1.5,0,2.7-1.2,2.7-2.7v-9C47.7,30.1,46.5,28.9,45,28.9z"/>
		<circle class="st1" cx="36" cy="35.5" r="3.4"/>
	</g>
</g>
</svg>
