<?xml version="1.0" encoding="utf-8"?>
<!-- Generator: Adobe Illustrator 23.1.1, SVG Export Plug-In . SVG Version: 6.00 Build 0)  -->
<svg version="1.1" id="Layer_1" xmlns="http://www.w3.org/2000/svg" xmlns:xlink="http://www.w3.org/1999/xlink" x="0px" y="0px"
	 viewBox="0 0 72 72" style="enable-background:new 0 0 72 72;" xml:space="preserve">
<style type="text/css">
	.st0{fill:#2D2B2B;}
</style>
<g>
	<g>
		<path class="st0" d="M41.44,27.46h1.79l0.06-1.33c0.01-0.33,0.06-0.64,0.12-0.95h-4.05L41.44,27.46z"/>
		<path class="st0" d="M62.38,25.18h-6.41c0.1,0.49,0.15,1.01,0.12,1.53l-0.03,0.74h6.31c1.21,0,2.19,0.98,2.19,2.19v12.72
			c0,1.21-0.98,2.19-2.19,2.19H55.3c-0.04,0.77-0.15,1.53-0.3,2.28h7.38c2.45,0,4.47-2.01,4.47-4.47V29.65
			C66.84,27.19,64.83,25.18,62.38,25.18z"/>
		<path class="st0" d="M15.97,44.56H9.63c-1.21,0-2.19-0.98-2.19-2.19V29.65c0-1.21,0.98-2.19,2.19-2.19h14.44L23.66,27l0-0.01
			l-1.05-1.16h0l-0.6-0.65H9.63c-2.45,0-4.47,2.01-4.47,4.47v12.72c0,2.45,2.01,4.47,4.47,4.47h6.43
			C15.9,46.09,15.86,45.32,15.97,44.56z"/>
	</g>
	<path class="st0" d="M19.34,42.2c-1.79,1.64-1.92,4.44-0.28,6.23l9.66,10.58c3.68,4.03,9.98,4.32,14.01,0.64l5.93-5.41
		c2.81-2.56,4.48-6.13,4.65-9.93l0.78-17.69c0.11-2.42-1.78-4.49-4.2-4.6s-4.49,1.78-4.6,4.2l-0.34,8.05L33.48,21.7c0,0,0,0,0-0.01
		l-1.81-1.99c0,0,0,0,0,0.01l-3.32-3.64c-1.64-1.79-4.44-1.92-6.23-0.28s-1.92,4.44-0.28,6.23l2.25,2.47l0,0l0.36,0.4l0.7,0.77
		c0,0-0.01,0-0.01,0l1.8,2c0,0,0,0,0,0l1.98,2.16c-0.74,0.16-1.44,0.48-2.04,1.03c-1.2,1.09-1.62,2.7-1.32,4.18
		c-1.01,0.03-2.02,0.35-2.82,1.09c-1.41,1.29-1.77,3.3-1.06,4.97C20.83,41.2,20.02,41.58,19.34,42.2z M20.88,43.8
		c0.91-0.83,2.28-0.77,3.11,0.14c0.03,0.04,0.07,0.08,0.11,0.13l0.63,0.69c0.27,0.3,0.67,0.43,1.06,0.35
		c0.39-0.08,0.7-0.37,0.82-0.75c0.12-0.38,0.02-0.79-0.25-1.09l-0.67-0.74c-0.02-0.02-0.05-0.05-0.07-0.07l-1.48-1.62
		c-0.83-0.91-0.77-2.28,0.14-3.11c0.91-0.83,2.28-0.77,3.11,0.14l0.74,0.81c0.2,0.21,0.46,0.34,0.74,0.35
		c0.08,0.01,0.16,0.01,0.24,0.01c0.02-0.01,0.05-0.02,0.07-0.03c0.11-0.02,0.22-0.05,0.32-0.11c0.13-0.08,0.24-0.18,0.33-0.3
		c0.07-0.08,0.12-0.18,0.16-0.28c0.01-0.03,0.02-0.08,0.03-0.12c0.02-0.07,0.03-0.15,0.03-0.22c-0.01-0.11-0.03-0.22-0.06-0.32
		c-0.03-0.11-0.08-0.2-0.14-0.3c-0.04-0.06-0.07-0.12-0.12-0.18l-1.48-1.63c-0.83-0.91-0.77-2.28,0.14-3.11
		c0.91-0.83,2.28-0.77,3.11,0.14l1.48,1.63c0.2,0.21,0.46,0.34,0.74,0.35c0.08,0.01,0.16,0.01,0.24,0.01
		c0.02-0.01,0.05-0.02,0.07-0.03c0.11-0.02,0.22-0.05,0.32-0.11c0.3-0.16,0.5-0.46,0.55-0.8c0.04-0.34-0.06-0.68-0.3-0.92
		l-6.32-6.93c-0.06-0.09-0.13-0.18-0.23-0.25l-4.6-5.04c-0.83-0.91-0.77-2.28,0.14-3.11c0.91-0.83,2.28-0.77,3.15,0.12l4.55,4.99
		c0.06,0.09,0.13,0.18,0.23,0.25l13.52,14.82c0.03,0.04,0.06,0.07,0.09,0.1c0.01,0.01,0.03,0.04,0.05,0.05
		c0.01,0.01,0.01,0.01,0.02,0.02c0.26,0.25,0.64,0.34,0.99,0.26c0.04,0,0.09-0.01,0.12-0.02c0.07-0.03,0.14-0.06,0.2-0.09
		c0.13-0.08,0.24-0.18,0.33-0.3c0.12-0.15,0.19-0.34,0.22-0.53c0.01-0.03,0.01-0.06,0-0.1c0-0.07,0-0.15-0.01-0.22l0.5-10.49
		c0.06-1.23,1.06-2.15,2.29-2.09c1.23,0.06,2.15,1.06,2.09,2.29l-0.78,17.69c-0.15,3.22-1.57,6.24-3.94,8.41l-5.93,5.41
		c-3.16,2.89-8.02,2.66-10.91-0.5l-9.66-10.58C19.9,46,19.97,44.63,20.88,43.8z"/>
</g>
</svg>
