<?xml version="1.0" encoding="utf-8"?>
<!-- Generator: Adobe Illustrator 25.1.0, SVG Export Plug-In . SVG Version: 6.00 Build 0)  -->
<svg version="1.1" id="Layer_1" xmlns="http://www.w3.org/2000/svg" xmlns:xlink="http://www.w3.org/1999/xlink" x="0px" y="0px"
	 viewBox="0 0 72 72" style="enable-background:new 0 0 72 72;" xml:space="preserve">
<style type="text/css">
	.st0{fill:none;stroke:#2D2B2B;stroke-width:2;stroke-miterlimit:10;}
</style>
<g>
	<path class="st0" d="M41.4,40.8H12.8c-1.1,0-2-0.9-2-2V15c0-1.1,0.9-2,2-2h28.6c1.1,0,2,0.9,2,2v23.8
		C43.4,39.9,42.5,40.8,41.4,40.8z"/>
	<path class="st0" d="M58.6,40.8h-6.4c-1.4,0-2.6-1.1-2.6-2.6V15.6c0-1.4,1.1-2.6,2.6-2.6h6.4c1.4,0,2.6,1.1,2.6,2.6v22.7
		C61.2,39.6,60,40.8,58.6,40.8z"/>
	<line class="st0" x1="21.8" y1="12.7" x2="21.8" y2="40.8"/>
	<line class="st0" x1="32.9" y1="12.7" x2="32.9" y2="40.8"/>
	<path class="st0" d="M10.8,57.3v-7.5c0-1.1,0.9-2,2-2h28.6c1.1,0,2,0.9,2,2v7.5c0,1.1-0.9,2-2,2H12.8
		C11.7,59.3,10.8,58.4,10.8,57.3z"/>
</g>
</svg>
