<?xml version="1.0" encoding="utf-8"?>
<!-- Generator: Adobe Illustrator 25.1.0, SVG Export Plug-In . SVG Version: 6.00 Build 0)  -->
<svg version="1.1" id="Layer_1" xmlns="http://www.w3.org/2000/svg" xmlns:xlink="http://www.w3.org/1999/xlink" x="0px" y="0px"
	 viewBox="0 0 72 72" style="enable-background:new 0 0 72 72;" xml:space="preserve">
<style type="text/css">
	.st0{fill:#2D2B2B;}
</style>
<g>
	<path class="st0" d="M22.9,18.6l2.3,2.3h37.6v32.6H9.3V18.6H22.9 M23.8,16.3H9.3c-1.2,0-2.3,1-2.3,2.3l0,34.9c0,1.2,1,2.3,2.3,2.3
		h53.4c1.2,0,2.3-1,2.3-2.3V20.8c0-1.2-1-2.3-2.3-2.3H26.1L23.8,16.3z"/>
	<g id="jYU9i8_1_">
		<g>
			<path class="st0" d="M45.3,38.3C45.3,38.2,45.3,38.2,45.3,38.3c-2.1-3.7-4.1-7.2-6.2-10.8c-0.1-0.1-0.1-0.1-0.2-0.1
				c-1.9,0-3.9,0-5.8,0c0,0-0.1,0-0.2,0c0.2,0.4,0.4,0.8,0.7,1.1c1.8,3.2,3.7,6.4,5.5,9.6c0.1,0.1,0.1,0.1,0.3,0.1
				c1.9,0,3.9,0,5.8,0C45.2,38.3,45.2,38.3,45.3,38.3z M29.3,44.6c0-0.1,0.1-0.1,0.1-0.1c1.9-3.4,3.9-6.8,5.8-10.2
				c0.1-0.1,0.1-0.2,0-0.3c-1-1.7-2-3.4-3-5.2c0,0,0-0.1-0.1-0.1c0,0.1-0.1,0.1-0.1,0.1c-1.9,3.4-3.8,6.8-5.7,10.1
				c-0.1,0.1-0.1,0.2,0,0.3c0.8,1.4,1.6,2.8,2.4,4.2C28.8,43.9,29,44.2,29.3,44.6z M30.8,44.6c0.1,0,0.1,0,0.1,0c3.9,0,7.7,0,11.6,0
				c0.1,0,0.2,0,0.2-0.1c0.9-1.6,1.8-3.3,2.8-4.9c0.1-0.1,0.2-0.3,0.2-0.4c-0.1,0-0.1,0-0.2,0c-3.9,0-7.7,0-11.6,0
				c-0.1,0-0.2,0-0.2,0.1c-0.7,1.3-1.4,2.6-2.2,3.8C31.4,43.6,31.1,44.1,30.8,44.6z"/>
			<path class="st0" d="M45.3,38.3c-0.1,0-0.1,0-0.2,0c-1.9,0-3.9,0-5.8,0c-0.1,0-0.2,0-0.3-0.1c-1.8-3.2-3.7-6.4-5.5-9.6
				c-0.2-0.4-0.4-0.7-0.7-1.1c0.1,0,0.1,0,0.2,0c1.9,0,3.9,0,5.8,0c0.1,0,0.2,0,0.2,0.1C41.2,31.1,43.2,34.6,45.3,38.3
				C45.3,38.2,45.3,38.2,45.3,38.3z"/>
			<path class="st0" d="M29.3,44.6c-0.2-0.4-0.4-0.7-0.6-1.1c-0.8-1.4-1.6-2.8-2.4-4.2c-0.1-0.1-0.1-0.2,0-0.3
				c1.9-3.4,3.8-6.8,5.7-10.1c0,0,0.1-0.1,0.1-0.1c0,0,0.1,0.1,0.1,0.1c1,1.7,2,3.4,3,5.2c0.1,0.1,0.1,0.2,0,0.3
				c-1.9,3.4-3.9,6.8-5.8,10.2C29.3,44.5,29.3,44.6,29.3,44.6z"/>
			<path class="st0" d="M30.8,44.6c0.3-0.5,0.6-1,0.8-1.5c0.7-1.3,1.5-2.6,2.2-3.8c0.1-0.1,0.1-0.1,0.2-0.1c3.9,0,7.7,0,11.6,0
				c0,0,0.1,0,0.2,0c-0.1,0.2-0.2,0.3-0.2,0.4c-0.9,1.6-1.8,3.2-2.8,4.9c0,0.1-0.1,0.1-0.2,0.1c-3.9,0-7.7,0-11.6,0
				C30.9,44.6,30.9,44.6,30.8,44.6z"/>
		</g>
	</g>
</g>
</svg>
