<?xml version="1.0" encoding="utf-8"?>
<!-- Generator: Adobe Illustrator 25.1.0, SVG Export Plug-In . SVG Version: 6.00 Build 0)  -->
<svg version="1.1" id="Layer_1" xmlns="http://www.w3.org/2000/svg" xmlns:xlink="http://www.w3.org/1999/xlink" x="0px" y="0px"
	 viewBox="0 0 72 72" style="enable-background:new 0 0 72 72;" xml:space="preserve">
<style type="text/css">
	.st0{fill:#2D2B2B;}
</style>
<path class="st0" d="M16.1,58.8c-0.7,0-1.5-0.3-2.1-0.9c-0.6-0.6-0.9-1.3-0.9-2.1V20.2h2.4v36.3h36.3v2.4H16.1z M23.7,51.9v-0.1
	h-0.6c-0.7,0-1.5-0.3-2.1-0.9c-0.6-0.6-0.9-1.3-0.9-2.1V16.1c0-0.7,0.3-1.5,0.9-2.1c0.6-0.6,1.3-0.9,2.1-0.9h32.8
	c0.7,0,1.5,0.3,2.1,0.9c0.6,0.6,0.9,1.3,0.9,2.1v32.8c0,0.7-0.3,1.5-0.9,2.1c-0.6,0.6-1.3,0.9-2.1,0.9H23.7z M22.5,49.5h33.9V15.5
	H22.5V49.5z M39.5,34.2l-4.9,4.9l-1.7-1.7l4.9-4.9l-4.9-4.9l1.7-1.7l4.9,4.9l4.9-4.9l1.7,1.7l-4.9,4.9l4.9,4.9l-1.7,1.7L39.5,34.2z"
	/>
</svg>
