<?xml version="1.0" encoding="utf-8"?>
<!-- Generator: Adobe Illustrator 23.1.1, SVG Export Plug-In . SVG Version: 6.00 Build 0)  -->
<svg version="1.1" id="Layer_1" xmlns="http://www.w3.org/2000/svg" xmlns:xlink="http://www.w3.org/1999/xlink" x="0px" y="0px"
	 viewBox="0 0 100 82" style="enable-background:new 0 0 100 82;" xml:space="preserve">
<style type="text/css">
	.st0{fill:#2D2B2B;}
</style>
<g>
	<path class="st0" d="M19.1,60.6c1.3,0,2.3-1,2.3-2.3s-1-2.3-2.3-2.3s-2.3,1-2.3,2.3S17.8,60.6,19.1,60.6z"/>
	<path class="st0" d="M58.1,53.3c0-1-0.3-1.9-0.8-2.7c1.2-1,1.9-2.4,1.9-4c0-1-0.3-1.9-0.8-2.7c1.2-1,1.9-2.4,1.9-4
		c0-2.8-2.3-5.1-5.1-5.1H39.8c0.8-2.5,1.6-5.6,1.6-7.2c0-4.5-3.3-10.6-6.7-10.6h-2.8c-0.9,0-1.7,0.8-1.7,1.7v8.5l-4.4,8.9
		c-0.2-0.7-0.9-1.3-1.7-1.3H9.6c-0.5,0-1,0.2-1.3,0.6c-0.3,0.4-0.5,0.9-0.4,1.3l3.3,26.8c0.1,0.9,0.8,1.5,1.7,1.5h11.1
		c0.9,0,1.7-0.8,1.7-1.7v-0.5h0.3c0.7,1.3,2,2.2,3.6,2.2h21.2c2.8,0,5.1-2.3,5.1-5.1c0-0.8-0.2-1.5-0.5-2.2
		C57.1,56.9,58.1,55.2,58.1,53.3z M22.4,61.6h-7.9l-2.9-23.3h10.8V61.6z M54.2,44.9c0.9,0,1.6,0.7,1.6,1.6s-0.7,1.6-1.6,1.6h-1.1
		c-0.9,0-1.7,0.8-1.7,1.7s0.8,1.7,1.7,1.7c0.9,0,1.6,0.7,1.6,1.6s-0.7,1.6-1.6,1.6h-2.2c-0.9,0-1.7,0.8-1.7,1.7s0.8,1.7,1.7,1.7
		c0.9,0,1.6,0.7,1.6,1.6c0,0.9-0.7,1.6-1.6,1.6H29.7c-0.3,0-0.5-0.2-0.5-0.5c0-0.9-0.8-1.7-1.7-1.7h-1.6V41.6c0.6,0,1.2-0.4,1.5-1
		l6.1-12.3c0.1-0.2,0.2-0.5,0.2-0.8v-7.2l1.1,0c0.7,0.1,3.3,3.5,3.3,7.2c0,1.5-1.3,5.9-2.1,8.4c-0.2,0.5-0.1,1.1,0.2,1.6
		c0.3,0.4,0.8,0.7,1.4,0.7h17.8c0.9,0,1.6,0.7,1.6,1.6s-0.7,1.6-1.6,1.6h-1.1c-0.9,0-1.7,0.8-1.7,1.7S53.3,44.9,54.2,44.9z"/>
	<path class="st0" d="M78,21c-4,0-7.7,1.7-10.4,4.7c-2.7-3-6.5-4.7-10.4-4.7c-6.6,0-12.4,4.7-13.9,11.2L43,32.9h3.4l0.1-0.5
		c1.2-4.8,5.6-8.2,10.5-8.2c3.6,0,7,1.8,9.1,4.9l1.4,2l1.4-2c2-3.1,5.4-4.9,9.1-4.9c6,0,10.9,4.9,10.9,10.9c0,10.6-9.8,17.2-16.9,22
		c-1.6,1.1-3.1,2.1-4.4,3.1c-1.3-1-2.8-2-4.4-3.1c-0.8-0.5-1.6-1.1-2.4-1.6L59.9,55l-0.2,0.9c-0.1,0.7-0.4,1.3-0.7,1.9l-0.2,0.5
		l0.4,0.3c0.8,0.6,1.6,1.1,2.4,1.6c1.9,1.3,3.6,2.4,4.8,3.4l1,0.9l1-0.9c1.2-1,2.8-2.1,4.8-3.4c7.5-5,18.8-12.5,18.8-25.1
		C92.1,27.3,85.8,21,78,21z"/>
</g>
</svg>
