<?xml version="1.0" encoding="utf-8"?>
<!-- Generator: Adobe Illustrator 23.1.1, SVG Export Plug-In . SVG Version: 6.00 Build 0)  -->
<svg version="1.1" id="Layer_1" xmlns="http://www.w3.org/2000/svg" xmlns:xlink="http://www.w3.org/1999/xlink" x="0px" y="0px"
	 viewBox="0 0 72 72" style="enable-background:new 0 0 72 72;" xml:space="preserve">
<style type="text/css">
	.st0{fill:#2D2B2B;}
</style>
<g>
	<g id="wf1thk.tif">
		<g>
			<path class="st0" d="M36,42.6c0.3,0.1,0.6,0.2,0.8,0.3c1.9,1.1,3.8,2.2,5.7,3.3c0.3,0.2,0.7,0.4,1,0.6c0.1,0,0.2,0.1,0.2,0.2
				c0.2,0.2,0.3,0.5,0,0.7c-0.1,0.1-0.3,0.2-0.4,0.3c-2.1,1.2-4.3,2.5-6.4,3.7c-0.6,0.4-1.2,0.4-1.8,0c-2.2-1.3-4.4-2.5-6.6-3.8
				c-0.1-0.1-0.3-0.2-0.4-0.3c-0.2-0.2-0.2-0.4,0-0.6c0.1-0.1,0.2-0.2,0.3-0.2c2.2-1.3,4.5-2.6,6.7-3.9C35.4,42.8,35.7,42.7,36,42.6
				z M37.7,47.4c-0.4-0.2-0.4-0.5-0.3-0.8c0-0.1,0-0.2,0.1-0.3c0.1-0.4,0-0.6-0.3-0.9c-0.5-0.4-1.1-0.4-1.7-0.3
				c-0.8,0.1-1.5,0.4-2.1,0.8c-0.4,0.3-0.8,0.6-1.2,0.9c0.4,0.2,0.7,0.4,1.1,0.6c0-0.1,0.1-0.1,0.1-0.2c0.4-0.6,0.9-1.1,1.7-1.2
				c0.6-0.1,0.9,0.2,0.7,0.8c0,0.2-0.1,0.3-0.1,0.5c0,0.3,0.1,0.4,0.3,0.6c0.2,0.2,0.4,0.1,0.5,0c0,0,0.1-0.1,0.1-0.1
				C37,47.8,37.4,47.6,37.7,47.4z M36.7,48.5c0.3,0.2,0.5,0.3,0.7,0.4c0.3,0.2,0.6,0.2,0.9,0c0.3-0.2,0.7-0.4,1-0.6
				c-0.4-0.2-0.8-0.4-1.1-0.6c0,0-0.1,0-0.2,0C37.7,47.9,37.2,48.2,36.7,48.5z"/>
			<path class="st0" d="M44.6,52.6c0,1.1,0,2.3,0,3.4c0,0.7-0.3,1.2-0.9,1.5c-1.7,1-3.3,1.9-5,2.9c-0.5,0.3-1.1,0.6-1.6,0.9
				c-0.4,0.2-0.7,0-0.7-0.4c0-2.4,0-4.8,0-7.1c0-0.6,0.3-1,0.8-1.3c1.2-0.7,2.5-1.4,3.7-2.1c0.9-0.5,1.9-1.1,2.8-1.6
				c0.1-0.1,0.2-0.1,0.3-0.1c0.3-0.1,0.6,0.1,0.6,0.5c0,0.5,0,1,0,1.5C44.6,51.3,44.6,51.9,44.6,52.6z M39.1,54.6
				c0.2-0.2,0.3-0.4,0.5-0.6c0.3-0.3,0.7-0.5,1-0.8c0.1-0.1,0.3-0.1,0.4,0c0.1,0.1,0.1,0.3,0.1,0.4c0,0.2-0.1,0.4-0.2,0.6
				c-0.3,0.5-0.6,1-0.9,1.5c-0.1,0.2-0.2,0.5-0.1,0.8c0.4-0.2,0.8-0.5,1.2-0.7c0,0,0.1-0.1,0.1-0.2c0.1-0.2,0.1-0.5,0.2-0.7
				c0.1-0.3,0.3-0.5,0.5-0.8c0.3-0.5,0.6-1,0.5-1.6c0-0.6-0.3-0.9-0.9-0.7c-0.1,0-0.3,0.1-0.4,0.1c-0.8,0.3-1.4,0.8-2,1.4
				c0,0-0.1,0.1-0.1,0.1C39.1,53.8,39.1,54.2,39.1,54.6z M39.9,58.5c0.4-0.3,0.8-0.5,1.3-0.7c0,0,0.1-0.1,0.1-0.1c0-0.4,0-0.8,0-1.3
				c-0.4,0.3-0.8,0.5-1.2,0.7c0,0-0.1,0.1-0.1,0.1C39.9,57.7,39.9,58.1,39.9,58.5z"/>
			<path class="st0" d="M35.6,57.3c0,1.1,0,2.2,0,3.3c0,0.1,0,0.1,0,0.2c0,0.6-0.3,0.7-0.8,0.5c-0.4-0.3-0.9-0.5-1.3-0.8
				c-1.7-1-3.4-2-5.2-3c-0.6-0.3-0.8-0.8-0.8-1.5c0-2.3,0-4.6,0-6.9c0,0,0-0.1,0-0.1c0-0.4,0.3-0.6,0.7-0.4c1,0.6,2,1.1,2.9,1.7
				c1.2,0.7,2.4,1.4,3.6,2.1c0.6,0.3,0.9,0.8,0.9,1.5C35.6,55.1,35.6,56.2,35.6,57.3z M31.7,56.2c-0.1-0.4,0.2-0.6,0.5-0.7
				c0.1,0,0.1,0,0.2-0.1c0.3-0.2,0.5-0.4,0.6-0.8c0-0.5-0.1-1-0.4-1.5c-0.6-0.8-1.4-1.4-2.4-1.7c-0.2-0.1-0.4-0.1-0.6-0.2
				c0,0.4,0,0.8,0,1.2c0.3,0,0.6,0,0.9,0.1c0.5,0.1,1,0.4,1.1,1c0.1,0.3,0,0.5-0.3,0.6c-0.1,0.1-0.3,0.1-0.5,0.2
				c-0.4,0.2-0.5,0.4-0.5,0.9c0,0.1,0,0.1,0.1,0.2C30.9,55.7,31.3,56,31.7,56.2z M31.7,58.2c0-0.5,0-0.9,0-1.3c0-0.1,0-0.1-0.1-0.1
				c-0.4-0.2-0.8-0.5-1.2-0.7c0,0.5,0,0.9,0,1.3c0,0,0,0.1,0.1,0.1C30.9,57.7,31.3,57.9,31.7,58.2z"/>
		</g>
	</g>
	<g>
		<path class="st0" d="M45.8,24.6v-4.2c0-5.4-4.4-9.8-9.8-9.8s-9.8,4.4-9.8,9.8v4.2H22V47h5.3v-2.8h-2.5V27.4h22.4v16.8h-2.5V47H50
			V24.6H45.8z M43,24.6H29v-4.2c0-3.9,3.1-7,7-7s7,3.1,7,7V24.6z"/>
		<circle class="st0" cx="36" cy="35.8" r="1.4"/>
		<circle class="st0" cx="41.6" cy="35.8" r="1.4"/>
		<path class="st0" d="M31.8,35.8c0-0.8-0.6-1.4-1.4-1.4S29,35,29,35.8s0.6,1.4,1.4,1.4S31.8,36.6,31.8,35.8z"/>
	</g>
</g>
</svg>
