<?xml version="1.0" encoding="utf-8"?>
<!-- Generator: Adobe Illustrator 25.1.0, SVG Export Plug-In . SVG Version: 6.00 Build 0)  -->
<svg version="1.1" id="Layer_1" xmlns="http://www.w3.org/2000/svg" xmlns:xlink="http://www.w3.org/1999/xlink" x="0px" y="0px"
	 viewBox="0 0 72 72" style="enable-background:new 0 0 72 72;" xml:space="preserve">
<style type="text/css">
	.st0{fill:none;stroke:#2D2B2B;stroke-width:1.8;stroke-miterlimit:10;}
	.st1{fill:#2D2B2B;}
</style>
<g>
	<path class="st0" d="M35.7,26.5h-21c-0.2,0-0.3-0.1-0.3-0.3v-8.6c0-0.3,0.3-0.6,0.6-0.6h20.8c0.2,0,0.3,0.1,0.3,0.3v8.9
		C36,26.4,35.9,26.5,35.7,26.5z"/>
	<path class="st0" d="M57.6,26.5H36v-9.5h21c0.3,0,0.6,0.3,0.6,0.6V26.5z"/>
	<rect x="14.4" y="26.5" class="st0" width="21.6" height="9.5"/>
	<rect x="36" y="26.5" class="st0" width="21.6" height="9.5"/>
	<rect x="14.4" y="36" class="st0" width="21.6" height="9.5"/>
	<rect x="36" y="36" class="st0" width="21.6" height="9.5"/>
	<path class="st0" d="M36,54.9H15c-0.3,0-0.6-0.3-0.6-0.6v-8.9H36V54.9z"/>
	<path class="st0" d="M57,54.9H36v-9.5h21.6v8.9C57.6,54.7,57.4,54.9,57,54.9z"/>
	<rect x="18.9" y="29.4" class="st1" width="12.6" height="3.8"/>
	<rect x="18.9" y="38.8" class="st1" width="12.6" height="3.8"/>
</g>
</svg>
