<?xml version="1.0" encoding="utf-8"?>
<!-- Generator: Adobe Illustrator 23.1.1, SVG Export Plug-In . SVG Version: 6.00 Build 0)  -->
<svg version="1.1" id="Layer_1" xmlns="http://www.w3.org/2000/svg" xmlns:xlink="http://www.w3.org/1999/xlink" x="0px" y="0px"
	 viewBox="0 0 72 72" style="enable-background:new 0 0 72 72;" xml:space="preserve">
<style type="text/css">
	.st0{fill:#2D2B2B;}
</style>
<g>
	<g>
		<circle class="st0" cx="47.5" cy="22.2" r="1.5"/>
		<path class="st0" d="M49.1,16.7c1.1,0,2-0.9,2-2s-0.9-2-2-2c-1.1,0-2,0.9-2,2S47.9,16.7,49.1,16.7z"/>
		<circle class="st0" cx="32.5" cy="25.2" r="1.5"/>
		<circle class="st0" cx="26" cy="31.7" r="3"/>
		<circle class="st0" cx="35.5" cy="34.2" r="1.5"/>
		<circle class="st0" cx="28" cy="41.8" r="2"/>
		<path class="st0" d="M33.1,55c-10.6-1.5-18.5-10.6-18.5-21.3c0-11.8,9.6-21.5,21.5-21.5c0.7,0,1.4,0,1.8,0.1
			c0.5,0,0.9,0.3,1.1,0.8c0.2,0.4,0.2,1-0.1,1.4c-0.3,0.5-0.5,1.1-0.5,1.7c0,1.3,0.8,2.4,2,2.9c0.4,0.1,0.7,0.4,0.8,0.8
			c0.1,0.4,0.1,0.8-0.1,1.2c-0.4,0.8-0.7,1.7-0.7,2.7c0,3.1,2.5,5.6,5.6,5.6c0.9,0,1.9-0.2,2.7-0.7c0.2-0.1,0.4-0.2,0.7-0.2
			c0.2,0,0.3,0,0.5,0.1c0.4,0.1,0.7,0.4,0.8,0.8c0.5,1.2,1.6,2,2.9,2c0.6,0,1.2-0.2,1.7-0.5c0.2-0.1,0.5-0.2,0.8-0.2
			c0.2,0,0.4,0.1,0.6,0.1c0.4,0.2,0.7,0.6,0.8,1.1c0.1,0.7,0.1,1.3,0.1,1.8c0,3.6-0.9,7.2-2.6,10.3l-0.3,0.6L54.2,44
			c-0.4-0.6-0.8-1.2-1.3-1.8l-0.2-0.2l0.1-0.2c1.2-2.5,1.8-5.2,1.9-8c-0.3,0.1-0.7,0.3-1.1,0.3c-1.8,0-3.5-0.9-4.6-2.6
			c-1,0.4-2,0.6-2.9,0.6c-4.7,0-8.4-3.8-8.4-8.4c0-0.9,0.2-1.9,0.6-2.9c-1.6-1.2-2.6-2.8-2.6-4.6c0-0.4,0.1-0.8,0.3-1.1
			c-10.2,0.1-18.5,8.4-18.5,18.7c0,9,6.4,16.7,15.2,18.3l0.3,0l0.1,0.3c0.2,0.7,0.4,1.4,0.6,2.1l0.3,0.6L33.1,55z"/>
		<path class="st0" d="M56.4,31.1c-0.3-0.2-0.7-0.1-1,0.1c-0.6,0.4-1.2,0.6-1.9,0.6c-1.5,0-2.7-0.9-3.3-2.2
			c-0.1-0.3-0.3-0.5-0.6-0.6c-0.3-0.1-0.6-0.1-0.8,0.1c-0.8,0.5-1.8,0.7-2.9,0.7c-3.3,0-6-2.7-6-6c0-1,0.3-2,0.7-2.9
			c0.1-0.3,0.2-0.6,0.1-0.8c-0.1-0.3-0.3-0.5-0.6-0.6c-1.3-0.5-2.2-1.8-2.2-3.3c0-0.7,0.2-1.3,0.6-1.9c0.2-0.3,0.2-0.7,0.1-1
			c-0.2-0.3-0.5-0.5-0.8-0.6c-0.6-0.1-1.2-0.1-1.8-0.1c-11.6,0-21.1,9.5-21.1,21.1c0,10.7,7.9,19.5,18.2,20.9
			c-0.3-0.7-0.5-1.4-0.7-2.1c-8.8-1.7-15.5-9.4-15.5-18.7c0-10.5,8.5-19.1,19.1-19.1c0.1,0,0.3,0,0.4,0c-0.2,0.5-0.4,0.9-0.4,1.5
			c0,1.9,1.1,3.5,2.7,4.5c-0.4,0.9-0.7,2-0.7,3.1c0,4.4,3.6,8,8,8c1.1,0,2.1-0.3,3.1-0.7c1,1.5,2.5,2.7,4.5,2.7c0.5,0,1-0.3,1.5-0.4
			c0,0.1,0,0.3,0,0.4c0,3-0.7,5.8-1.9,8.3c0.5,0.6,0.9,1.2,1.3,1.8c1.6-3,2.6-6.4,2.6-10.1c0-0.6,0-1.2-0.1-1.8
			C57,31.6,56.8,31.3,56.4,31.1z"/>
	</g>
	<path class="st0" d="M44.2,40.1c-2.5,0-5,1-7,2.9c-3.8,3.8-3.8,10.1,0,13.9s10.1,3.8,13.9,0s3.8-10.1,0-13.9
		C49.2,41,46.7,40.1,44.2,40.1z M44.2,42.1c2,0,4,0.8,5.6,2.3c3.1,3.1,3.1,8.1,0,11.1s-8.1,3.1-11.1,0c-3.1-3.1-3.1-8.1,0-11.1
		C40.1,42.8,42.1,42.1,44.2,42.1z M40.8,45.5c-0.2,0-0.5,0.1-0.7,0.3c-0.4,0.4-0.4,1,0,1.4l2.7,2.7l-2.7,2.7c-0.4,0.4-0.4,1,0,1.4
		s1,0.4,1.4,0l2.7-2.7l2.7,2.7c0.4,0.4,1,0.4,1.4,0s0.4-1,0-1.4l-2.7-2.7l2.7-2.7c0.4-0.4,0.4-1,0-1.4s-1-0.4-1.4,0l-2.7,2.7
		l-2.7-2.7C41.2,45.6,41,45.5,40.8,45.5z"/>
</g>
</svg>
