<?xml version="1.0" encoding="utf-8"?>
<!-- Generator: Adobe Illustrator 23.1.1, SVG Export Plug-In . SVG Version: 6.00 Build 0)  -->
<svg version="1.1" id="Layer_1" xmlns="http://www.w3.org/2000/svg" xmlns:xlink="http://www.w3.org/1999/xlink" x="0px" y="0px"
	 viewBox="0 0 72 72" style="enable-background:new 0 0 72 72;" xml:space="preserve">
<style type="text/css">
	.st0{fill:#2D2B2B;}
</style>
<g>
	<path class="st0" d="M53.5,15h-32c-2.7,0-5,2.3-5,5v5.1h2V20c0-1.7,1.3-3,3-3h32c1.7,0,3,1.3,3,3v32c0,1.7-1.3,3-3,3h-32
		c-1.7,0-3-1.3-3-3v-5.9h-2V52c0,2.7,2.3,5,5,5h32c2.7,0,5-2.3,5-5V20C58.5,17.3,56.2,15,53.5,15z"/>
</g>
<path class="st0" d="M19.8,27.1v2.2h-4.4c-2.4,0-4.4,2-4.4,4.4v1.1H9.8c-1.8,0-3.3,1.5-3.3,3.3v22.8h2.2V38.1c0-0.6,0.5-1.1,1.1-1.1
	h1.1v1.1c0,2.4,2,4.4,4.4,4.4h4.4v2.2H22v-4.4h3.4v-2.2H22v-4.4h3.4v-2.2H22v-4.4H19.8z M15.4,31.5h4.4v8.8h-4.4
	c-1.2,0-2.2-1-2.2-2.2v-4.4C13.2,32.5,14.1,31.5,15.4,31.5z"/>
<path class="st0" d="M46.7,39.4l-2.8-2.8l0.2-0.4c0.6-1.1,0.2-2.5-0.9-3.2l-3.1-1.8V30c0.8-0.7,1.3-1.8,1.3-2.9
	c0-2.2-1.8-3.9-3.9-3.9c-2.2,0-3.9,1.8-3.9,3.9c0,1.1,0.5,2.2,1.3,2.9v1.3l-3.1,1.8c-1.1,0.7-1.5,2-0.9,3.2l0.2,0.4l-2.8,2.8
	c-1.1,1.1-1.1,3,0,4.1l0.2,3.3c0.1,1.2,1.1,2,2.3,2.1c1.2,0,2.2-0.8,2.3-2l0.4-4.3l0.5-0.5c0.5,0.5,1.2,0.8,1.9,0.8H39
	c0.7,0,1.4-0.3,1.9-0.8l0.5,0.5l0.4,4.3c0.1,1.1,1.1,2,2.3,2h0.1c1.2,0,2.2-0.9,2.3-2.1l0.2-3.3l0,0C47.8,42.4,47.8,40.6,46.7,39.4z
	 M45.4,42.3l-0.1,0.1c-0.1,0.1-0.2,0.2-0.3,0.2c-0.1,1.3-0.1,2.7-0.2,4c0,0.3-0.3,0.5-0.6,0.5c-0.3,0-0.6-0.2-0.6-0.4
	c-0.2-1.6-0.3-3.3-0.5-4.9l-2.5-2.5l-0.8,1.4c-0.1,0.3-0.5,0.4-0.8,0.4l-3.1,0c-0.3,0-0.7-0.2-0.8-0.4l-0.8-1.4l-2.5,2.5
	c-0.2,1.6-0.3,3.3-0.5,4.9c0,0.3-0.3,0.4-0.6,0.4c-0.3,0-0.6-0.2-0.6-0.5c-0.1-1.3-0.1-2.7-0.2-4c-0.1-0.1-0.2-0.1-0.3-0.2l-0.1-0.1
	c-0.5-0.5-0.5-1.2,0-1.6l3.6-3.7l-0.8-1.5c-0.2-0.3,0-0.7,0.3-0.9l3.7-2.2c0.1,0,0.1-0.1,0.2-0.1v-3.2c-0.8-0.3-1.3-1.1-1.3-2
	c0-1.2,1-2.2,2.2-2.2c1.2,0,2.2,1,2.2,2.2c0,0.9-0.5,1.7-1.3,2v3.2c0.1,0,0.1,0,0.2,0.1l3.7,2.2c0.3,0.2,0.5,0.6,0.3,0.9l-0.8,1.5
	l3.6,3.7C45.9,41.1,45.9,41.8,45.4,42.3z"/>
</svg>
