<?xml version="1.0" encoding="utf-8"?>
<!-- Generator: Adobe Illustrator 23.1.1, SVG Export Plug-In . SVG Version: 6.00 Build 0)  -->
<svg version="1.1" id="Layer_1" xmlns="http://www.w3.org/2000/svg" xmlns:xlink="http://www.w3.org/1999/xlink" x="0px" y="0px"
	 viewBox="0 0 72 72" style="enable-background:new 0 0 72 72;" xml:space="preserve">
<style type="text/css">
	.st0{fill:none;}
	.st1{fill:#2D2B2B;}
</style>
<g>
	<rect x="27.2" y="34.9" class="st0" width="4.5" height="1.8"/>
	<rect x="33.5" y="38.5" class="st0" width="4.5" height="1.8"/>
	<rect x="33.5" y="42.1" class="st0" width="4.5" height="1.8"/>
	<path class="st0" d="M46.1,26h-7.5c-1.8,0-3.3-1.5-3.3-3.3v-7.5H20.5c-0.8,0-1.3,0.6-1.3,1.3V51c0,1,0.8,1.9,1.9,1.9H33l13-13V26z
		 M25.5,45.7V33.1h14.3v12.5H25.5z"/>
	<rect x="27.2" y="38.5" class="st0" width="4.5" height="1.8"/>
	<rect x="33.5" y="34.9" class="st0" width="4.5" height="1.8"/>
	<path class="st0" d="M32.7,56.4l0.5,0.5l2.1-0.8l-0.3-0.3c-0.1-0.1-0.2-0.2-0.2-0.4v-0.5h-0.5c-0.1,0-0.3-0.1-0.4-0.2l-0.1-0.1
		h-0.4L32.7,56.4z"/>
	<polygon class="st0" points="50.1,41.7 47.9,39.5 47.9,39.5 47.9,43.9 	"/>
	<path class="st0" d="M44.2,52.8c1.1,0,1.9-0.8,1.9-1.9v-3.7l-5.6,5.6H44.2z"/>
	<polygon class="st0" points="35.8,55.2 36.2,55.6 37.1,54.6 35.8,54.6 	"/>
	<polygon class="st0" points="34.5,52.8 38.9,52.8 46.1,45.7 46.1,41.3 	"/>
	<rect x="27.2" y="42.1" class="st0" width="4.5" height="1.8"/>
	<path class="st0" d="M52.4,36c-0.3,0-0.6,0.1-0.8,0.3l-0.4,0.4l1.6,1.6l0.4-0.4c0.4-0.4,0.4-1.2,0-1.6C53,36.1,52.7,36,52.4,36z"/>
	<polygon class="st0" points="48.7,38.7 50.9,40.9 52.4,39.4 50.1,37.2 	"/>
	<path class="st0" d="M38.6,24.2h6.6L37.1,16v6.6C37.1,23.5,37.8,24.2,38.6,24.2z"/>
	<path class="st1" d="M46.1,51c0,1-0.8,1.9-1.9,1.9h-3.7l-1.8,1.8h5.5c2,0,3.7-1.6,3.7-3.7v-5.5l-1.8,1.8V51z"/>
	<polygon class="st1" points="33.4,54.6 33.7,54.6 33.5,54.4 	"/>
	<path class="st1" d="M25.5,33.1v12.5h14.3V33.1H25.5z M31.7,43.9h-4.5v-1.8h4.5V43.9z M31.7,40.3h-4.5v-1.8h4.5V40.3z M31.7,36.7
		h-4.5v-1.8h4.5V36.7z M38,43.9h-4.5v-1.8H38V43.9z M38,40.3h-4.5v-1.8H38V40.3z M38,36.7h-4.5v-1.8H38V36.7z"/>
	<path class="st1" d="M32.9,53l0.1-0.1H21.1c-1.1,0-1.9-0.8-1.9-1.9V16.5c0-0.7,0.6-1.3,1.3-1.3h14.8v7.5c0,1.8,1.5,3.3,3.3,3.3h7.5
		v13.8l1.8-1.8V25.2c0-0.1,0-0.2,0-0.4v-0.3c0-0.2-0.1-0.5-0.3-0.6L37.3,13.7c-0.2-0.2-0.4-0.3-0.6-0.3h-0.3c-0.1,0-0.2,0-0.3,0
		c0,0-0.1,0-0.1,0H20.5c-1.7,0-3.1,1.4-3.1,3.1V51c0,2,1.7,3.7,3.7,3.7h11.1l0.6-1.5C32.8,53.1,32.8,53,32.9,53z M37.1,16l8.1,8.1
		h-6.6c-0.8,0-1.5-0.6-1.5-1.5V16z"/>
	<polygon class="st1" points="40.5,52.8 46.1,47.2 46.1,45.7 38.9,52.8 	"/>
	<path class="st1" d="M54,35.6c-0.4-0.4-1-0.6-1.6-0.6c-0.6,0-1.1,0.2-1.6,0.6L50.4,36c-0.1-0.1-0.2-0.1-0.4-0.1
		c-0.1,0-0.2,0.1-0.3,0.2L47.9,38v1.5l0,0l2.2,2.2l-2.3,2.3v1.5l5.6-5.6c0.2-0.2,0.2-0.5,0.1-0.7l0.4-0.4
		C54.8,37.8,54.8,36.4,54,35.6z M50.9,40.9l-2.2-2.2l1.5-1.5l2.2,2.2L50.9,40.9z M53.2,37.9l-0.4,0.4l-1.6-1.6l0.4-0.4
		c0.2-0.2,0.5-0.3,0.8-0.3s0.6,0.1,0.8,0.3C53.7,36.7,53.7,37.5,53.2,37.9z"/>
	<polygon class="st1" points="46.1,39.8 33,52.8 34.5,52.8 46.1,41.3 	"/>
	<path class="st1" d="M36.2,55.6l-0.4-0.4v-0.5h-2.1l0.1,0.1c0.1,0.1,0.2,0.2,0.4,0.2h0.5v0.5c0,0.1,0.1,0.3,0.2,0.4l0.3,0.3
		l-2.1,0.8l-0.5-0.5l0.7-1.8h-1.1L31,57.9c-0.1,0.2,0,0.4,0.1,0.6c0.1,0.1,0.4,0.2,0.6,0.1l4.7-1.8c0.1,0,0.1-0.1,0.2-0.1l2.1-2.1
		h-1.5L36.2,55.6z"/>
	<polygon class="st1" points="46.1,41.3 47.9,39.5 47.9,38 46.1,39.8 	"/>
	<polygon class="st1" points="46.1,45.7 46.1,47.2 47.9,45.4 47.9,43.9 	"/>
	<path class="st1" d="M33.5,54.4l0.3,0.3h2.1v-0.3c0-0.3-0.2-0.5-0.5-0.5h-0.8L34,53.4l0.5-0.5H33L32.9,53c-0.1,0.1-0.1,0.1-0.1,0.2
		l-0.6,1.5h1.1L33.5,54.4z"/>
	<polygon class="st1" points="38.9,52.8 37.1,54.6 38.7,54.6 40.5,52.8 	"/>
</g>
</svg>
