<?xml version="1.0" encoding="utf-8"?>
<!-- Generator: Adobe Illustrator 23.1.1, SVG Export Plug-In . SVG Version: 6.00 Build 0)  -->
<svg version="1.1" id="Layer_1" xmlns="http://www.w3.org/2000/svg" xmlns:xlink="http://www.w3.org/1999/xlink" x="0px" y="0px"
	 viewBox="0 0 72 72" style="enable-background:new 0 0 72 72;" xml:space="preserve">
<style type="text/css">
	.st0{fill:#2D2B2B;}
</style>
<g id="surface1_1_">
	<path class="st0" d="M32.4,13.7c-5,0-9.5,0.9-12.9,2.4c-1.7,0.8-3.1,1.7-4.1,2.8c-1,1-1.6,2.2-1.6,3.5c0,0,0,0.1,0,0.1
		c0,0,0,0,0,0.1v8.7c0,0.1,0,0.1,0,0.2v8.7c0,0.1,0,0.1,0,0.2v8c0,1.4,0.6,2.6,1.6,3.7c1,1.1,2.4,2,4.1,2.8
		c3.4,1.5,7.9,2.4,12.9,2.4c1.9,0,3.7-0.1,5.5-0.4c0.3,0,0.6-0.2,0.8-0.5c0.1-0.3,0.1-0.7-0.1-0.9c-0.2-0.3-0.6-0.4-0.9-0.3
		c-1.6,0.3-3.4,0.3-5.2,0.3c-4.8,0-9.1-0.9-12.2-2.3c-1.5-0.7-2.7-1.5-3.5-2.3c-0.8-0.8-1.2-1.7-1.2-2.5v-4.1c1,1,2.4,1.9,4,2.6
		c3.4,1.5,7.9,2.4,12.9,2.4c0.8,0,1.5,0,2.3-0.1c0.5-0.1,0.8-0.5,0.8-1c-0.1-0.5-0.5-0.8-1-0.8c-0.6,0.1-1.3,0.1-2.1,0.1
		c-4.8,0-9.1-0.9-12.2-2.3c-1.5-0.7-2.7-1.5-3.5-2.3c-0.8-0.8-1.2-1.7-1.2-2.5c0-0.1,0-0.1,0-0.2v-4.9c1,1,2.4,1.9,4,2.6
		c3.4,1.5,7.9,2.4,12.9,2.4S42,39.5,45.4,38c1.6-0.7,3-1.6,4-2.6V36c0,0.3,0.2,0.6,0.4,0.8c0.3,0.2,0.6,0.2,0.9,0
		c0.3-0.2,0.4-0.5,0.4-0.8V22.6c0,0,0-0.1,0-0.1s0-0.1,0-0.1c0,0,0,0,0,0c0,0,0,0,0-0.1c-0.1-1.3-0.7-2.5-1.6-3.5
		c-1-1.1-2.4-2-4.1-2.8C42,14.6,37.4,13.7,32.4,13.7z M32.4,15.5c4.8,0,9.1,0.9,12.2,2.3c1.5,0.7,2.7,1.5,3.5,2.3
		c0.8,0.8,1.2,1.7,1.2,2.5c0,0.8-0.4,1.7-1.2,2.5c-0.8,0.8-2,1.6-3.5,2.3c-3.1,1.4-7.4,2.3-12.2,2.3s-9.1-0.9-12.2-2.3
		c-1.5-0.7-2.7-1.5-3.5-2.3c-0.8-0.8-1.2-1.7-1.2-2.5c0,0,0-0.1,0-0.1c0-0.8,0.4-1.6,1.2-2.4c0.8-0.8,2-1.6,3.5-2.3
		C23.3,16.4,27.7,15.5,32.4,15.5z M15.5,26.5c1,1,2.4,1.9,4,2.6c3.4,1.5,7.9,2.4,12.9,2.4s9.5-0.9,12.9-2.4c1.6-0.7,3-1.6,4-2.6v5
		c0,0.8-0.4,1.7-1.2,2.5c-0.8,0.8-2,1.6-3.5,2.3c-3.1,1.4-7.4,2.3-12.2,2.3s-9.1-0.9-12.2-2.3c-1.5-0.7-2.7-1.5-3.5-2.3
		c-0.8-0.8-1.2-1.7-1.2-2.5c0-0.1,0-0.1,0-0.2V26.5z M46.6,38.6l-0.1,0.8l-0.4,2.2c-0.3,0.1-0.6,0.2-0.9,0.4l-2.4-1.8l-2.7,2.7
		l0.4,0.6l1.3,1.8c-0.1,0.3-0.2,0.5-0.3,0.8l-2.1,0.4l-0.8,0.1v3.7l0.8,0.1l2.1,0.4c0.1,0.3,0.2,0.6,0.3,0.9l-1.2,1.8L40.2,54
		l0.5,0.5l1.6,1.6l0.5,0.5l2.4-1.7c0.3,0.1,0.6,0.3,0.9,0.4l0.4,2.2l0.1,0.8h3.8l0.1-0.8l0.4-2.2c0.3-0.1,0.6-0.2,0.9-0.4l2.4,1.7
		l2.1-2.1l0.5-0.6l-0.4-0.6L55,51.6c0.1-0.3,0.3-0.6,0.4-0.8l2.1-0.4l0.7-0.2v-3.7l-0.8-0.1L55.3,46c-0.1-0.3-0.2-0.6-0.4-0.9
		l1.7-2.4l-0.5-0.5l-1.5-1.5L54,40.1l-0.6,0.4l-1.8,1.3c-0.3-0.1-0.6-0.3-0.8-0.4l-0.4-2.2l-0.1-0.8H46.6z M48.1,40.4h0.7l0.3,1.9
		l0.1,0.6l0.6,0.2c0.6,0.2,1.1,0.3,1.5,0.6l0.5,0.4l0.5-0.4l1.5-1.1l0.4,0.4l-1.1,1.6L52.9,45l0.3,0.5c0.3,0.5,0.5,1.1,0.6,1.6
		l0.2,0.6l0.6,0.1l1.9,0.3v0.7l-1.9,0.4l-0.5,0.1l-0.2,0.5c-0.2,0.6-0.3,1.1-0.6,1.5L53,51.8l0.4,0.5l1.1,1.5L54,54.4l-1.6-1.1
		L51.9,53l-0.5,0.2c-0.5,0.3-1.1,0.5-1.6,0.6L49.3,54l-0.1,0.6l-0.3,1.9h-0.7l-0.3-1.9L47.7,54l-0.6-0.2c-0.6-0.2-1.1-0.3-1.5-0.6
		l-0.5-0.3l-0.5,0.3l-1.6,1.1l-0.6-0.6l1.1-1.6l0.3-0.4l-0.2-0.5c-0.3-0.5-0.5-1.1-0.6-1.6l-0.2-0.6l-0.6-0.1l-1.8-0.3V48l1.8-0.3
		l0.6-0.1l0.1-0.6c0.1-0.5,0.3-1,0.6-1.4l0.3-0.5l-0.3-0.5L42.5,43l0.5-0.5l1.6,1.2l0.4,0.3l0.5-0.3c0.5-0.3,1.1-0.5,1.6-0.6
		l0.6-0.2l0.1-0.6L48.1,40.4z M48.5,44.9c-2,0-3.6,1.6-3.6,3.6s1.6,3.6,3.6,3.6c2,0,3.6-1.6,3.6-3.6S50.4,44.9,48.5,44.9z
		 M48.5,46.6c1.1,0,1.8,0.7,1.8,1.8s-0.7,1.8-1.8,1.8s-1.8-0.7-1.8-1.8S47.4,46.6,48.5,46.6z"/>
</g>
</svg>
