<?xml version="1.0" encoding="utf-8"?>
<!-- Generator: Adobe Illustrator 25.1.0, SVG Export Plug-In . SVG Version: 6.00 Build 0)  -->
<svg version="1.1" id="Layer_1" xmlns="http://www.w3.org/2000/svg" xmlns:xlink="http://www.w3.org/1999/xlink" x="0px" y="0px"
	 viewBox="0 0 72 72" style="enable-background:new 0 0 72 72;" xml:space="preserve">
<style type="text/css">
	.st0{fill:#2D2B2B;}
</style>
<path class="st0" d="M14.4,55.2c-0.7,0-1.3-0.3-1.9-0.8c-0.5-0.5-0.8-1.2-0.8-1.9v-33c0-0.7,0.3-1.3,0.8-1.9s1.2-0.8,1.9-0.8h43.2
	c0.7,0,1.3,0.3,1.9,0.8c0.5,0.5,0.8,1.2,0.8,1.9v33c0,0.7-0.3,1.3-0.8,1.9s-1.2,0.8-1.9,0.8H14.4z M13.3,53.6h45.4V23.7H13.3V53.6z"
	/>
<polygon class="st0" points="29.1,38.9 30.4,37.6 35,42.3 35,31.4 36.9,31.4 36.9,42.3 41.7,37.5 42.9,38.8 36,45.7 "/>
</svg>
